<svg aria-hidden="true" style="position: absolute; width: 0; height: 0; overflow: hidden;" version="1.1" xmlns="http://www.w3.org/2000/svg" xmlns:xlink="http://www.w3.org/1999/xlink">
<defs>

<symbol id="icon-gym" viewBox="0 0 32 32">
<path d="M20.25 0c0.33 0 0.66 0 1 0 0 1.32 0 2.64 0 4 0.66 0.082 1.32 0.165 2 0.25 0.021-0.232 0.041-0.464 0.063-0.703 0.188-0.797 0.188-0.797 0.601-1.217 0.758-0.427 1.284-0.42 2.152-0.412 0.3 0.001 0.6 0.003 0.91 0.004 0.469 0.008 0.469 0.008 0.947 0.016 0.473 0.002 0.473 0.002 0.956 0.004 2.334 0.020 2.334 0.020 2.623 0.309 0.025 0.458 0.032 0.917 0.031 1.375 0.001 0.375 0.001 0.375 0.002 0.758-0.033 0.617-0.033 0.617-0.283 0.867-0.716 0.018-1.425 0.023-2.141 0.016-0.202-0.001-0.403-0.002-0.611-0.003-0.5-0.003-0.999-0.007-1.499-0.012 0.017 1.482 0.039 2.963 0.066 4.445 0.008 0.504 0.015 1.008 0.021 1.512 0.008 0.724 0.021 1.448 0.035 2.173 0.002 0.226 0.003 0.452 0.005 0.684 0.005 0.21 0.010 0.42 0.015 0.637 0.003 0.185 0.006 0.37 0.008 0.56 0.126 0.617 0.396 0.819 0.85 1.239 0.088 0.589 0.088 0.589 0.084 1.278 0.005 0.375 0.005 0.375 0.010 0.758 0 0.525-0.002 1.049-0.006 1.574 0.026 1.693 0.193 2.452 1.412 3.639 0.466 1.4 0.465 2.918-0.125 4.281-0.124 0.237-0.247 0.474-0.375 0.719 0.124 0.082 0.247 0.165 0.375 0.25 0.609 0.812 0.454 1.503 0.375 2.5-0.5 0.5-0.5 0.5-1.007 0.562-0.21-0-0.419-0.001-0.635-0.001-0.241 0.001-0.481 0.001-0.729 0.002-0.265-0.002-0.529-0.004-0.802-0.005-0.278 0-0.556 0-0.843 0-0.923-0-1.845-0.004-2.768-0.008-0.638-0.001-1.277-0.002-1.915-0.002-1.511-0.002-3.021-0.006-4.531-0.011-1.719-0.006-3.439-0.008-5.158-0.011-3.537-0.005-7.075-0.014-10.612-0.025-0.293-0.585-0.3-0.973-0.313-1.625-0.006-0.198-0.013-0.397-0.020-0.602 0.027-0.173 0.054-0.345 0.082-0.523 0.725-0.483 0.974-0.575 1.797-0.656 0.315-0.031 0.629-0.062 0.953-0.094-0.115-0.115-0.229-0.231-0.348-0.35-1.638-1.741-2.44-3.365-2.527-5.775 0.085-2.321 0.842-4.009 2.405-5.711 0.467-0.412 0.873-0.632 1.438-0.883 0.832-0.435 0.832-0.435 0.911-1.129 0.051-0.679 0.051-0.679 0.029-1.342 0.030-0.185 0.060-0.37 0.091-0.561 0.505-0.326 0.505-0.326 1-0.5 0-0.495 0-0.99 0-1.5 0.484-0.141 0.484-0.141 1-0.25 0.25 0.25 0.25 0.25 0.266 0.891-0.005 0.201-0.010 0.402-0.016 0.609 0.412 0 0.825 0 1.25 0 0-1.155 0-2.31 0-3.5-0.412 0-0.825 0-1.25 0-0.082 0.33-0.165 0.66-0.25 1-0.33-0.082-0.66-0.165-1-0.25 0-0.248 0-0.495 0-0.75-0.315 0.021-0.629 0.041-0.953 0.063-0.973-0.007-0.973-0.007-1.547-0.438-0.353-0.882-0.387-1.697-0.25-2.625 0.421-0.968 0.789-1.351 1.75-1.75 1.649-0.29 3.351 0.118 4.969 0.438 0.208 0.039 0.416 0.078 0.631 0.119 1.146 0.243 1.943 0.438 2.65 1.444 0.137 0.96 0.136 1.51-0.344 2.359-1.038 0.618-1.963 0.453-3.156 0.391 0 1.238 0 2.475 0 3.75 0.33 0.165 0.66 0.33 1 0.5 0 0.66 0 1.32 0 2 0.242-0.012 0.483-0.023 0.732-0.035 0.488-0.014 0.488-0.014 0.986-0.027 0.319-0.012 0.638-0.023 0.967-0.035 2.232 0.090 4.23 1.421 6.096 2.535 0.215 0.127 0.431 0.253 0.652 0.384 0.523 0.308 1.045 0.618 1.566 0.929 0.045-0.266 0.045-0.266 0.092-0.538 0.042-0.23 0.084-0.46 0.127-0.696 0.041-0.229 0.081-0.458 0.123-0.694 0.052-0.189 0.104-0.377 0.158-0.571 0.165-0.082 0.33-0.165 0.5-0.25 0.082-1.815 0.165-3.63 0.25-5.5 0.33-0.082 0.66-0.165 1-0.25 0.25 0.25 0.25 0.25 0.278 0.783-0.002 0.344-0.002 0.344-0.004 0.694-0.001 0.371-0.001 0.371-0.002 0.749-0.003 0.39-0.003 0.39-0.006 0.789-0.001 0.261-0.002 0.522-0.003 0.791-0.003 0.648-0.007 1.295-0.012 1.943 0.413 0 0.825 0 1.25 0 0-3.465 0-6.93 0-10.5-0.413 0-0.825 0-1.25 0 0 1.155 0 2.31 0 3.5-0.33 0.082-0.66 0.165-1 0.25-0.25-0.25-0.25-0.25-0.274-1.040 0.003-0.322 0.006-0.644 0.009-0.976 0.002-0.323 0.005-0.645 0.007-0.978 0.003-0.25 0.006-0.5 0.009-0.757-0.172 0.014-0.344 0.029-0.52 0.044-0.338 0.017-0.338 0.017-0.683 0.034-0.223 0.014-0.447 0.029-0.677 0.044-0.62-0.122-0.62-0.122-1.072-0.631-0.366-0.91-0.39-1.716-0.36-2.679 0.001-0.171 0.003-0.342 0.004-0.519 0.020-1.255 0.020-1.255 0.309-1.544zM24.75 3.25c-0.082 0.33-0.165 0.66-0.25 1 1.898 0 3.795 0 5.75 0 0-0.33 0-0.66 0-1-1.815 0-3.63 0-5.5 0zM5.203 5.156c-0.57 0.723-0.57 0.723-0.703 1.594 0.273 0.431 0.273 0.431 0.75 0.75 0.693 0.108 0.693 0.108 1.478 0.082 0.289-0.001 0.577-0.003 0.875-0.004 0.301-0.005 0.603-0.010 0.914-0.016 0.454-0.002 0.454-0.002 0.916-0.004 1.453 0.059 1.453 0.059 2.818-0.309-0.082-0.412-0.165-0.825-0.25-1.25-0.997-0.265-1.996-0.512-3-0.75-0.408-0.097-0.408-0.097-0.823-0.196-1.528-0.35-1.528-0.35-2.974 0.103zM6.5 13.25c0 0.495 0 0.99 0 1.5 1.072 0 2.145 0 3.25 0 0-0.495 0-0.99 0-1.5-1.072 0-2.145 0-3.25 0zM3.25 18c-1.452 1.907-1.736 3.62-1.5 6 0.512 1.686 1.465 3.099 3 4 1.376 0.589 2.515 0.86 4.020 0.847 0.191 0.001 0.382 0.003 0.579 0.004 0.624 0.003 1.249 0.001 1.873-0.001 0.437 0 0.874 0.001 1.311 0.002 0.913 0.001 1.825-0 2.738-0.004 1.169-0.004 2.337-0.002 3.505 0.003 0.901 0.003 1.802 0.002 2.703-0 0.431-0 0.862 0 1.293 0.002 0.602 0.002 1.204-0.001 1.805-0.005 0.266 0.002 0.266 0.002 0.537 0.005 1.089-0.014 1.766-0.193 2.637-0.852 0.715-0.863 0.84-1.596 0.874-2.71-0.255-1.11-0.762-1.781-1.672-2.432-0.704-0.43-1.418-0.834-2.14-1.233-0.541-0.306-1.081-0.612-1.622-0.918-0.278-0.156-0.557-0.313-0.843-0.474-0.84-0.479-1.67-0.972-2.498-1.471-0.265-0.159-0.531-0.318-0.804-0.482-0.507-0.304-1.013-0.61-1.517-0.919-2.347-1.395-4.308-1.698-7.011-1.689-0.231-0.004-0.462-0.008-0.701-0.012-2.502-0.002-4.75 0.533-6.565 2.34zM23.5 17c0 0.907 0 1.815 0 2.75 1.073 0.578 2.145 1.155 3.25 1.75 0-1.485 0-2.97 0-4.5-1.073 0-2.145 0-3.25 0zM1.75 30c0 0.33 0 0.66 0 1 8.828 0 17.655 0 26.75 0 0-0.33 0-0.66 0-1-8.828 0-17.655 0-26.75 0z"></path>
<path d="M11.48 17.796c1.304 0.984 1.783 2.175 2.27 3.704 0.104-0.122 0.207-0.243 0.314-0.369 0.732-0.64 1.637-0.489 2.561-0.475 0.29-0.004 0.29-0.004 0.585-0.009 1.417 0.007 1.417 0.007 1.971 0.437 0.487 0.635 0.4 1.14 0.319 1.916-0.247 0.371-0.247 0.371-0.5 0.75-0.485 0.093-0.485 0.093-1.070 0.091-0.21-0-0.421-0-0.638-0-0.22-0.004-0.44-0.008-0.667-0.012-0.33 0.001-0.33 0.001-0.667 0.002-1.641-0.014-1.641-0.014-2.208-0.581-0.098 0.299-0.196 0.598-0.297 0.906-0.605 1.585-1.538 2.719-3.094 3.42-1.598 0.456-3.429 0.461-4.969-0.201-1.183-0.71-2.157-1.802-2.538-3.144-0.071-0.481-0.071-0.481-0.103-1.231 0.33 0 0.66 0 1 0 0.382 0.52 0.382 0.52 0.734 1.203 0.535 1.032 0.957 1.542 2.016 2.047 1.141 0.318 2.053 0.309 3.188-0.031 1.301-0.75 2.107-1.521 2.563-2.969-0.578-0.082-1.155-0.165-1.75-0.25-0.046 0.191-0.093 0.382-0.141 0.578-0.359 0.672-0.359 0.672-1.156 1.156-1.142 0.318-1.635 0.269-2.703-0.234-0.614-0.645-0.969-1.102-1.039-2.008 0.063-0.842 0.221-1.387 0.68-2.102 0.846-0.542 1.607-0.696 2.609-0.641 0.743 0.339 1.176 0.676 1.75 1.25 0 0.247 0 0.495 0 0.75 0.578-0.082 1.155-0.165 1.75-0.25-0.582-1.432-1.091-2.287-2.465-3.038-1.085-0.43-1.969-0.397-3.070-0.037-1.574 0.691-2.257 1.791-2.965 3.325-0.33 0-0.66 0-1 0 0.029-1.616 0.406-2.409 1.523-3.576 2.131-1.895 4.868-1.818 7.207-0.378zM7.031 21.281c-0.351 0.487-0.351 0.487-0.25 1.234 0.155 0.808 0.155 0.808 0.969 1.234 0.655-0.039 0.655-0.039 1.25-0.25 0.082-0.165 0.165-0.33 0.25-0.5-0.742-0.124-0.742-0.124-1.5-0.25 0-0.247 0-0.495 0-0.75 0.495-0.082 0.99-0.165 1.5-0.25-0.165-0.247-0.33-0.495-0.5-0.75-0.714-0.11-1.096-0.092-1.719 0.281zM15 22c0 0.247 0 0.495 0 0.75 1.073 0 2.145 0 3.25 0 0-0.247 0-0.495 0-0.75-1.073 0-2.145 0-3.25 0z"></path>
<path d="M26 23.25c0.701 0.503 1.162 0.87 1.362 1.733 0.049 0.902-0.073 1.439-0.487 2.251-0.84 0.693-1.545 0.843-2.625 0.766-0.905-0.394-1.198-0.672-1.75-1.5-0.197-1.749-0.197-1.749 0.578-2.734 1.040-0.798 1.676-0.864 2.922-0.516zM23.75 24.75c-0.125 0.75-0.125 0.75 0 1.5 0.692 0.579 0.692 0.579 1.406 0.422 0.578-0.115 0.578-0.115 0.844-0.422 0.083-0.739 0.083-0.739 0-1.5-1.003-0.668-1.247-0.668-2.25 0z"></path>
</symbol>

<symbol id="icon-muscle" viewBox="0 0 32 32">
<path d="M11.063 0.968c0.063-0.001 0.126-0.001 0.191-0.002 0.069 0 0.138 0.001 0.209 0.002 0.073-0 0.146-0.001 0.221-0.001 0.241-0.001 0.482-0 0.723 0 0.167-0 0.334-0 0.502-0.001 0.351-0 0.701 0 1.052 0.001 0.405 0.001 0.81 0.001 1.215-0 0.348-0.001 0.696-0.001 1.044-0.001 0.208 0 0.416 0 0.623-0 0.232-0.001 0.463 0 0.695 0.002 0.069-0 0.138-0.001 0.209-0.002 0.095 0.001 0.095 0.001 0.191 0.002 0.055 0 0.11 0 0.166 0 0.201 0.043 0.275 0.119 0.397 0.281 0.029 0.145 0.029 0.145 0.026 0.308-0 0.062-0.001 0.124-0.001 0.188-0.003 0.102-0.003 0.102-0.005 0.205-0.001 0.072-0.002 0.143-0.003 0.217-0.002 0.156-0.004 0.312-0.007 0.468-0.004 0.247-0.006 0.495-0.008 0.742-0.004 0.703-0.010 1.407-0.023 2.11-0.007 0.389-0.011 0.777-0.011 1.166-0 0.205-0.003 0.41-0.008 0.615-0.046 1.045-0.046 1.045 0.433 1.932 0.37 0.374 0.37 0.374 0.858 0.486 0-0.041 0-0.082 0-0.125 0.774-0.476 1.493-0.83 2.428-0.654 0.275 0.069 0.512 0.15 0.755 0.294 0.325 0.175 0.651 0.096 1.004 0.047 0.481-0.052 0.954-0.070 1.438-0.063-0.298-0.992-0.703-1.763-1.438-2.5-0.289 0.058-0.567 0.123-0.844 0.227-0.285 0.095-0.546 0.158-0.844 0.086-0.196-0.118-0.342-0.273-0.5-0.438-0.060-0.059-0.121-0.119-0.182-0.178-0.561-0.549-0.561-0.549-0.587-0.862 0.005-0.409 0.115-0.799 0.218-1.192 0.035-0.132 0.068-0.265 0.1-0.398 0.022-0.085 0.044-0.17 0.066-0.255 0.020-0.076 0.039-0.153 0.059-0.231 0.083-0.22 0.127-0.32 0.324-0.447 0.422-0.077 0.813 0.055 1.209 0.19 0.060 0.020 0.12 0.040 0.182 0.060 0.126 0.042 0.252 0.084 0.378 0.127 0.191 0.064 0.382 0.127 0.573 0.189 0.623 0.206 1.192 0.409 1.72 0.809 0.098 0.069 0.196 0.137 0.294 0.206 1.405 1.022 2.796 2.208 3.817 3.626 0.085 0.118 0.173 0.234 0.261 0.35 0.062 0.083 0.124 0.165 0.187 0.248 0.028 0.037 0.056 0.074 0.085 0.113 0.5 0.68 0.617 1.31 0.544 2.145-0.154 0.691-0.616 1.178-1.188 1.563-0.224 0.142-0.451 0.28-0.678 0.416-0.29 0.174-0.575 0.354-0.857 0.542-1.335 0.888-2.784 1.371-4.401 1.049-0.298-0.069-0.586-0.162-0.876-0.258 0.001 0.038 0.003 0.076 0.004 0.115 0.055 1.835-0.397 3.299-1.659 4.665-0.148 0.149-0.301 0.29-0.458 0.43-1.012 0.908-1.714 2.103-1.825 3.478-0.003 0.040-0.007 0.080-0.010 0.121-0.038 0.884 0.215 1.767 0.764 2.458 1.177 1.516 1.75 3.457 1.684 5.359-0.351 0-0.701 0-1.063 0-0.008-0.128-0.008-0.128-0.016-0.259-0.11-1.534-0.5-3.249-1.532-4.45-0.139-0.166-0.139-0.166-0.139-0.291-2.227 0-4.455 0-6.75 0 0 0.433 0 0.866 0 1.313-0.057 0.328-0.118 0.63-0.205 0.948-0.021 0.082-0.042 0.164-0.063 0.247-0.054 0.212-0.11 0.422-0.166 0.633-0.058 0.217-0.114 0.435-0.17 0.653-0.109 0.423-0.221 0.846-0.333 1.269-0.269 0.063-0.439 0.046-0.707-0.027-0.067-0.018-0.134-0.036-0.202-0.054-0.076-0.021-0.076-0.021-0.153-0.043 0.041-0.436 0.146-0.844 0.26-1.266 0.040-0.152 0.079-0.303 0.119-0.455 0.062-0.236 0.124-0.472 0.188-0.707 0.384-1.421 0.439-2.629 0.244-4.079-0.038-0.285-0.073-0.571-0.108-0.857-0.007-0.056-0.014-0.112-0.021-0.169-0.109-0.877-0.174-1.753-0.198-2.636-0.001-0.047-0.003-0.095-0.004-0.144-0.006-0.233-0.011-0.466-0.015-0.698-0.017-0.922-0.077-1.719-0.738-2.411-0.881-0.94-0.942-2.172-1.039-3.391-0.066 0.001-0.132 0.003-0.2 0.004-0.251 0.005-0.502 0.007-0.753 0.010-0.107 0.001-0.215 0.003-0.322 0.005-1.504 0.030-2.822-0.349-4.1-1.144-0.048-0.030-0.095-0.059-0.145-0.090-0.349-0.217-0.697-0.437-1.043-0.66-0.052-0.034-0.105-0.067-0.159-0.102-0.051-0.033-0.102-0.066-0.154-0.101-0.069-0.045-0.069-0.045-0.14-0.091-0.109-0.081-0.109-0.081-0.171-0.206-0.126-1.874 0.234-3.632 1.063-5.313 0.020-0.041 0.040-0.083 0.061-0.125 0.395-0.804 0.887-1.522 1.501-2.176 0.273-0.296 0.406-0.499 0.493-0.898 0.164-0.68 0.458-1.187 1.058-1.558 0.449-0.229 0.888-0.218 1.383-0.212 0.082-0.001 0.163-0.002 0.247-0.003 0.642 0.003 1.18 0.104 1.661 0.553 0.462 0.514 0.57 1.059 0.553 1.732-0.030 0.524-0.255 0.962-0.645 1.312-0.455 0.342-0.867 0.458-1.43 0.445-0.049-0.001-0.098-0.001-0.148-0.002-0.12-0.001-0.24-0.004-0.359-0.006-0.020 0.050-0.020 0.050-0.040 0.102-0.085 0.148-0.085 0.148-0.254 0.318-0.377 0.376-0.377 0.376-0.532 0.87 0.020 0.345 0.088 0.678 0.173 1.012 0.028 0.135 0.028 0.135 0.028 0.385 0.055-0.010 0.055-0.010 0.11-0.020 0.6-0.088 1.157 0.029 1.66 0.374 0.152 0.12 0.285 0.255 0.417 0.396 0.093 0.062 0.093 0.062 0.188 0.125 0.028-0.020 0.056-0.039 0.085-0.060 0.746-0.497 1.471-0.593 2.352-0.503 0.251 0.053 0.462 0.13 0.688 0.25 0.043 0.022 0.086 0.044 0.13 0.066 0.325 0.185 0.591 0.436 0.864 0.69 0.122 0.121 0.122 0.121 0.256 0.181 0.105-0.061 0.21-0.123 0.313-0.188 0.041 0 0.082 0 0.125 0 0-0.165 0-0.33 0-0.5-0.051 0.003-0.102 0.006-0.155 0.009-0.067 0.002-0.135 0.005-0.204 0.007-0.067 0.003-0.133 0.006-0.202 0.009-0.188-0.024-0.188-0.024-0.325-0.108-0.142-0.208-0.196-0.411-0.266-0.652-0.198-0.693-0.198-0.693-0.715-1.158-0.187-0.086-0.378-0.158-0.571-0.231-0.1-0.201-0.086-0.407-0.063-0.625 0.061-0.16 0.122-0.295 0.203-0.444 0.021-0.040 0.041-0.080 0.063-0.121 0.066-0.126 0.132-0.252 0.199-0.377s0.133-0.251 0.199-0.378c0.041-0.078 0.082-0.156 0.124-0.233 0.132-0.252 0.186-0.477 0.213-0.76-0.050-0.003-0.101-0.005-0.152-0.008-0.466-0.115-0.799-0.405-1.080-0.785-0.24-0.433-0.299-0.798-0.295-1.286-0.001-0.055-0.002-0.111-0.004-0.167 0-0.080 0-0.080 0-0.162-0-0.048-0-0.096-0-0.145 0.073-0.314 0.293-0.416 0.594-0.417zM11.563 2c0.068 0.482 0.068 0.482 0.375 0.813 0.589 0.273 1.232 0.217 1.868 0.219 0.151 0.001 0.303 0.003 0.454 0.005 0.070-0 0.070-0 0.141-0.001 0.319 0.005 0.319 0.005 0.47 0.11 0.101 0.154 0.15 0.315 0.204 0.49 0.021 0.068 0.043 0.136 0.065 0.206 0.024 0.078 0.024 0.078 0.048 0.157 0.045 0.005 0.091 0.011 0.137 0.016 0.405 0.059 0.647 0.115 0.925 0.421 0.18 0.281 0.2 0.483 0.191 0.805-0.017 0.506-0.017 0.506 0.204 0.942 0.273 0.198 0.541 0.315 0.855 0.441 0-1.526 0-3.053 0-4.625-1.959 0-3.919 0-5.938 0zM5.931 2.879c-0.206 0.25-0.268 0.493-0.333 0.805-0.114 0.465-0.245 0.736-0.598 1.066-1.288 1.427-2.14 3.241-2.404 5.147-0.033 0.228-0.033 0.228-0.064 0.352-0.086 0.345-0.132 0.673 0.031 1.001 0.451 0.445 1.066 0.716 1.625 1 0.097 0.054 0.193 0.108 0.289 0.162 1.183 0.66 2.433 0.767 3.76 0.633 0.526-0.029 0.959 0.126 1.445 0.304 0.709 0.255 1.382 0.175 2.069-0.099 0.165 0.268 0.33 0.536 0.5 0.813-0.516 0.387-1.029 0.406-1.66 0.418-0.075 0.002-0.15 0.004-0.227 0.006-0.183 0.005-0.367 0.009-0.55 0.013 0.069 0.966 0.137 1.628 0.799 2.368 0.788 0.901 0.887 1.941 0.909 3.091 0.030 1.45 0.163 2.886 0.331 4.326 0.008 0.066 0.015 0.132 0.023 0.199 0.007 0.059 0.015 0.119 0.022 0.18 0.006 0.052 0.013 0.103 0.019 0.156 0.010 0.117 0.010 0.117 0.084 0.179 0.192 0.006 0.383 0.008 0.575 0.007 0.060 0 0.121 0 0.183 0 0.201-0 0.401-0.001 0.602-0.001 0.139-0 0.277-0 0.416-0 0.366-0 0.731-0.001 1.097-0.002 0.373-0.001 0.746-0.001 1.118-0.001 0.732-0.001 1.464-0.002 2.196-0.003-0.006-0.038-0.011-0.076-0.017-0.115-0.025-0.173-0.050-0.346-0.076-0.518-0.013-0.089-0.013-0.089-0.027-0.18-0.18-1.246 0.057-2.382 0.604-3.511 0.018-0.038 0.036-0.076 0.054-0.114 0.386-0.763 0.976-1.349 1.59-1.927 1.054-0.997 1.612-2.242 1.683-3.697 0.009-0.422 0.006-0.844 0.004-1.266-0-0.114-0.001-0.228-0.001-0.342-0.001-0.277-0.002-0.553-0.003-0.83 0.33 0 0.66 0 1 0 0 0.227 0 0.454 0 0.688 0.113 0.050 0.226 0.099 0.34 0.148 0.095 0.041 0.095 0.041 0.191 0.084 1.005 0.37 2.159 0.312 3.126-0.133 0.62-0.3 1.188-0.684 1.76-1.066 0.134-0.088 0.268-0.173 0.405-0.256 0.697-0.419 0.697-0.419 1.116-1.090 0.011-0.108 0.017-0.216 0.020-0.324 0.002-0.056 0.005-0.113 0.007-0.171-0.066-0.474-0.376-0.849-0.663-1.216-0.036-0.046-0.072-0.093-0.109-0.141-0.278-0.356-0.572-0.692-0.88-1.023-0.072-0.083-0.143-0.166-0.215-0.25-0.417-0.477-0.868-0.905-1.363-1.3-0.11-0.088-0.219-0.178-0.327-0.269-0.141-0.12-0.285-0.236-0.43-0.35-0.071-0.057-0.142-0.114-0.211-0.173-0.984-0.821-2.183-1.121-3.391-1.471-0.042 0.139-0.084 0.279-0.125 0.418-0.023 0.078-0.046 0.155-0.070 0.235-0.047 0.192-0.076 0.339-0.055 0.534 0.107 0.145 0.107 0.145 0.25 0.27 0.070 0.065 0.070 0.065 0.141 0.132 0.054 0.049 0.054 0.049 0.109 0.098 0.107-0.029 0.214-0.057 0.32-0.086 0.063-0.017 0.126-0.034 0.191-0.051 0.181-0.049 0.181-0.049 0.371-0.124 0.26-0.073 0.476-0.113 0.742-0.051 1.348 0.788 1.874 2.333 2.25 3.75 0.526 0.093 0.526 0.093 1.063 0.188-0.041 0.33-0.082 0.66-0.125 1-0.152-0.030-0.304-0.059-0.461-0.090-0.598-0.112-1.173-0.166-1.781-0.172-0.052-0.001-0.104-0.002-0.158-0.002-0.050-0-0.099-0-0.15-0-0.044-0-0.089-0.001-0.135-0.001-0.147 0.018-0.249 0.067-0.377 0.14 0.021 0.036 0.042 0.071 0.064 0.108 0.394 0.715 0.399 1.407 0.311 2.204-0.155-0.051-0.31-0.101-0.465-0.152-0.044-0.014-0.088-0.029-0.134-0.044-0.332-0.11-0.332-0.11-0.401-0.179 0.019-0.122 0.019-0.122 0.039-0.246 0.053-0.442-0.072-0.828-0.313-1.199-0.429-0.528-1.149-0.881-1.82-0.953-0.354 0.038-0.667 0.113-0.941 0.348-0.030 0.037-0.059 0.075-0.090 0.113 0.046 0.067 0.093 0.134 0.141 0.203 0.461 0.755 0.543 1.592 0.381 2.453-0.13 0.433-0.343 0.88-0.646 1.219-0.25 0-0.25 0-0.397-0.123-0.049-0.052-0.099-0.104-0.149-0.158-0.050-0.052-0.1-0.104-0.151-0.158-0.038-0.041-0.075-0.081-0.114-0.123 0.113-0.231 0.239-0.452 0.367-0.674 0.213-0.421 0.212-0.994 0.081-1.439-0.092-0.207-0.198-0.386-0.323-0.574-0.121-0.020-0.121-0.020-0.258-0.016-0.241-0.019-0.36-0.068-0.537-0.232-0.064-0.059-0.064-0.059-0.13-0.12-0.245-0.236-0.488-0.473-0.728-0.714-0.051-0.051-0.102-0.101-0.154-0.153-0.072-0.073-0.072-0.073-0.146-0.147-0.044-0.044-0.087-0.087-0.132-0.132-0.122-0.132-0.166-0.191-0.161-0.373 0.004-0.056 0.009-0.112 0.014-0.17 0.058-0.661 0.058-0.661-0.179-1.247-0.256-0.187-0.544-0.291-0.841-0.395-0.159-0.065-0.261-0.16-0.381-0.281-0.174-0.146-0.245-0.144-0.48-0.139-0.238 0.024-0.463 0.073-0.7 0.12 0-0.33 0-0.66 0-1 0.124-0.041 0.248-0.082 0.375-0.125 0.108-0.142 0.125-0.22 0.124-0.397-0.007-0.049-0.014-0.099-0.022-0.149s-0.014-0.1-0.021-0.151c-0.006-0.038-0.012-0.075-0.018-0.114-0.23 0.031-0.35 0.069-0.5 0.25-0.209-0.092-0.356-0.209-0.52-0.367-0.045-0.042-0.090-0.085-0.136-0.128-0.047-0.064-0.047-0.064-0.094-0.129 0.014-0.056 0.014-0.056 0.029-0.114 0.062-0.192 0.062-0.192-0.154-0.574-0.351 0-0.701 0-1.063 0-0.003 0.109-0.006 0.218-0.010 0.33-0.037 0.439-0.19 0.761-0.401 1.143-0.064 0.12-0.128 0.24-0.192 0.36-0.043 0.078-0.043 0.078-0.086 0.157-0.075 0.139-0.075 0.139-0.062 0.323 0.041 0.011 0.082 0.022 0.124 0.033 0.233 0.085 0.433 0.165 0.566 0.386 0.114 0.25 0.197 0.51 0.275 0.773 0.049 0.166 0.105 0.33 0.16 0.495 0.49 0.032 0.866-0.112 1.321-0.282 0.342-0.122 0.689-0.236 1.054-0.156 0.124 0.101 0.18 0.151 0.212 0.309-0 0.043-0.001 0.085-0.001 0.129 0 0.043 0.001 0.085 0.001 0.129-0.033 0.159-0.089 0.204-0.212 0.309-0.136 0.061-0.136 0.061-0.292 0.114-0.084 0.029-0.084 0.029-0.169 0.058-0.058 0.019-0.116 0.039-0.176 0.058-0.059 0.020-0.118 0.040-0.178 0.061-0.145 0.049-0.29 0.098-0.435 0.146 0 0.062 0 0.124 0 0.188 0.495-0.031 0.495-0.031 1-0.063 0 0.33 0 0.66 0 1-0.209 0.019-0.209 0.019-0.422 0.039-0.583 0.068-1.157 0.288-1.578 0.711-0.038 0.19-0.038 0.19-0.020 0.391 0.010 0.178 0.010 0.178 0.020 0.359-0.33 0-0.66 0-1 0-0.005-0.082-0.010-0.165-0.016-0.25-0.072-0.605-0.398-0.991-0.859-1.375-0.506-0.319-0.976-0.358-1.563-0.313-0.376 0.096-0.761 0.313-1 0.625-0.058 0.324 0.008 0.541 0.188 0.813 0.265 0.294 0.537 0.461 0.938 0.5 0.272 0.009 0.54 0.006 0.813 0 0 0.33 0 0.66 0 1-1.477-0.027-1.477-0.027-1.938-0.313-0.073-0.044-0.073-0.044-0.148-0.090-0.389-0.267-0.63-0.591-0.789-1.035-0.038-0.239-0.062-0.476-0.087-0.717-0.070-0.401-0.285-0.645-0.554-0.936-0.25-0.142-0.511-0.198-0.797-0.223-0.093 0.031-0.093 0.031-0.188 0.063-0.051 0.156-0.051 0.156-0.082 0.344-0.115 0.498-0.305 0.874-0.742 1.156-0.238 0.135-0.444 0.195-0.718 0.207-0.084 0.004-0.084 0.004-0.169 0.008-0.058 0.002-0.116 0.005-0.176 0.007-0.088 0.004-0.088 0.004-0.178 0.008-0.145 0.007-0.29 0.013-0.435 0.019 0-0.33 0-0.66 0-1 0.115 0.004 0.229 0.008 0.348 0.012 0.393 0 0.629-0.059 0.957-0.277 0.204-0.317 0.123-0.708 0.057-1.058-0.008-0.048-0.017-0.095-0.026-0.145-0.027-0.152-0.054-0.303-0.082-0.454-0.31-1.689-0.31-1.689-0.070-2.051 0.055-0.066 0.113-0.131 0.171-0.195 0.046-0.054 0.046-0.054 0.093-0.109 0.065-0.077 0.132-0.153 0.198-0.229 0.178-0.204 0.347-0.416 0.518-0.627 0.034-0.042 0.068-0.083 0.103-0.126 0.261-0.32 0.509-0.647 0.751-0.981 0.107-0.135 0.107-0.135 0.232-0.198 0.459-0.029 0.459-0.029 0.609 0.076 0.102 0.144 0.098 0.23 0.090 0.404-0.003 0.076-0.003 0.076-0.005 0.153-0.002 0.038-0.004 0.077-0.007 0.116 0.263-0.119 0.368-0.237 0.5-0.5 0.051-0.312 0.036-0.55-0.102-0.836-0.305-0.337-0.579-0.459-1.024-0.489-0.765-0.013-0.765-0.013-1.38 0.392z"></path>
<path d="M15.625 11c0.423 0.103 0.753 0.249 1.111 0.499 0.135 0.081 0.135 0.081 0.267 0.021 0.060-0.041 0.060-0.041 0.122-0.083 0.060-0.038 0.060-0.038 0.121-0.076 0.060-0.040 0.060-0.040 0.122-0.080 0.401-0.251 0.64-0.281 1.133-0.281 0 0.351 0 0.701 0 1.063-0.165 0.041-0.33 0.082-0.5 0.125-0.123 0.091-0.123 0.091-0.188 0.188 0.026 0.029 0.052 0.058 0.078 0.088 0.249 0.297 0.445 0.608 0.621 0.951 0.020 0.038 0.040 0.075 0.061 0.114 0.067 0.134 0.123 0.27 0.178 0.41 0.034 0.088 0.034 0.088 0.069 0.178 0.247 0.758 0.218 1.537 0.213 2.328-0.001 0.244 0 0.488 0.002 0.732 0.002 1.522 0.002 1.522-0.284 2.263-0.019 0.050-0.037 0.1-0.056 0.151-0.050 0.123-0.106 0.239-0.166 0.357-0.017 0.037-0.034 0.073-0.051 0.111-0.4 0.796-1.142 1.44-1.769 2.057-0.075 0.075-0.15 0.149-0.225 0.224-0.181 0.18-0.362 0.359-0.544 0.538-0.227-0.106-0.372-0.234-0.547-0.414-0.075-0.077-0.075-0.077-0.151-0.155-0.038-0.039-0.075-0.078-0.114-0.119 0.080-0.177 0.163-0.302 0.303-0.437 0.054-0.052 0.054-0.052 0.109-0.105 0.058-0.055 0.058-0.055 0.118-0.112 0.083-0.081 0.166-0.161 0.248-0.242 0.13-0.126 0.259-0.251 0.39-0.376 1.039-0.995 1.607-1.985 1.651-3.455 0.004-0.251 0.005-0.503 0.005-0.754-0-0.066-0-0.066-0-0.134-0.004-1.24-0.087-2.31-0.887-3.323-0.029-0.040-0.059-0.079-0.089-0.12-0.426-0.543-1.048-0.842-1.661-1.13 0.028-0.108 0.057-0.216 0.086-0.324 0.016-0.060 0.032-0.12 0.048-0.182 0.050-0.17 0.11-0.33 0.178-0.493z"></path>
<path d="M16.188 12.875c0.188 0.181 0.353 0.352 0.488 0.574 0.026 0.042 0.052 0.084 0.079 0.128 0.057 0.111 0.057 0.111 0.057 0.236-0.388 0.274-0.781 0.481-1.25 0.563 0.003 0.075 0.003 0.075 0.007 0.151 0.026 1.052-0.311 1.933-1.007 2.724-0.040 0.047-0.081 0.094-0.122 0.142-0.486 0.527-1.097 0.836-1.753 1.108-0.073-0.143-0.146-0.286-0.219-0.43-0.021-0.041-0.042-0.081-0.063-0.123-0.156-0.308-0.156-0.308-0.156-0.447 0.060-0.030 0.121-0.059 0.183-0.090 0.879-0.441 1.509-0.947 1.883-1.89 0.109-0.337 0.155-0.668 0.184-1.021-0.066 0.002-0.066 0.002-0.133 0.004-0.377 0.007-0.694-0.020-1.055-0.129 0.073-0.371 0.172-0.712 0.313-1.063 0.059 0.010 0.118 0.021 0.179 0.032 0.93 0.148 1.569-0.018 2.384-0.469z"></path>
<path d="M16.5 29c0.33 0 0.66 0 1 0 0 0.66 0 1.32 0 2-0.33 0-0.66 0-1 0 0-0.66 0-1.32 0-2z"></path>
</symbol>
<symbol id="icon-moneyBag" viewBox="0 0 32 32">
<path d="M14.29 1.154c1.558 0.622 2.829 0.251 4.339-0.309 0.982-0.362 2.14-0.589 3.147-0.174 0.053 0.026 0.107 0.052 0.161 0.078 0.056 0.026 0.113 0.052 0.171 0.078 0.672 0.335 1.237 0.838 1.704 1.422 0.041 0.048 0.083 0.096 0.126 0.145 0.041 0.049 0.082 0.098 0.124 0.148 0.037 0.044 0.075 0.088 0.113 0.134 0.101 0.185 0.070 0.245 0.012 0.449-0.080 0.181-0.171 0.356-0.262 0.532-0.040 0.078-0.040 0.078-0.081 0.157-0.087 0.169-0.175 0.338-0.262 0.506-0.060 0.116-0.12 0.233-0.18 0.349-0.148 0.287-0.297 0.574-0.446 0.861-0.115 0.223-0.23 0.445-0.345 0.668-0.365 0.707-0.733 1.413-1.111 2.113 0.057 0.027 0.057 0.027 0.116 0.054 0.416 0.218 0.721 0.696 0.894 1.123 0.164 0.611 0.095 1.264-0.197 1.823-0.29 0.457-0.29 0.457-0.5 0.563 0.054 0.041 0.107 0.082 0.163 0.124 3.245 2.495 5.162 6.317 5.837 10.313 0.014 0.079 0.028 0.158 0.043 0.239 0.343 2.303 0.106 4.826-1.294 6.748-1.027 1.322-2.497 1.974-4.123 2.201-0.434 0.039-0.869 0.034-1.304 0.032-0.125 0-0.25 0.001-0.375 0.001-0.335 0.001-0.671 0.001-1.006-0-0.354-0.001-0.707-0-1.061 0-0.593 0-1.187-0-1.78-0.001-0.683-0.001-1.366-0.001-2.049 0-0.59 0.001-1.179 0.001-1.769 0.001-0.351-0-0.701-0-1.052 0-0.33 0.001-0.66 0-0.99-0.001-0.12-0-0.24-0-0.36 0-1.784 0.008-3.452-0.434-4.78-1.686-1.423-1.415-1.862-3.424-1.868-5.367-0.011-4.163 1.778-8.458 4.707-11.418 0.449-0.439 0.929-0.82 1.438-1.188-0.048-0.047-0.096-0.093-0.146-0.141-0.132-0.136-0.235-0.254-0.335-0.414-0.025-0.039-0.049-0.077-0.075-0.117-0.261-0.53-0.291-1.165-0.136-1.73 0.195-0.493 0.44-0.853 0.878-1.161 0.041 0 0.082 0 0.125 0-0.384-0.849-0.777-1.694-1.177-2.537-0.049-0.103-0.098-0.206-0.147-0.31-0.236-0.499-0.473-0.997-0.716-1.492-0.033-0.067-0.066-0.134-0.099-0.203-0.059-0.12-0.119-0.24-0.179-0.36-0.025-0.052-0.051-0.104-0.077-0.157-0.022-0.044-0.044-0.088-0.067-0.133-0.047-0.151-0.030-0.226 0.024-0.373 0.152-0.22 0.328-0.421 0.5-0.625 0.039-0.048 0.078-0.096 0.118-0.146 1.582-1.891 3.551-1.657 5.61-0.825zM11.063 2.125c-0.057 0.020-0.057 0.020-0.115 0.040-0.451 0.187-0.789 0.563-1.135 0.897 0.332 0.754 0.68 1.499 1.040 2.239 0.391 0.804 0.768 1.615 1.142 2.427 0.042 0.091 0.085 0.181 0.13 0.271 2.557 0 5.115 0 7.75 0 0.407-0.774 0.813-1.549 1.212-2.327 0.239-0.467 0.479-0.932 0.727-1.394 0.038-0.072 0.076-0.144 0.116-0.218 0.071-0.134 0.143-0.268 0.216-0.401 0.031-0.059 0.063-0.118 0.095-0.179 0.028-0.051 0.055-0.102 0.084-0.155 0.059-0.162 0.052-0.231-0.012-0.389-0.394-0.462-0.933-0.804-1.53-0.916-0.808-0.049-1.535 0.267-2.282 0.541-2.078 0.741-3.732 0.519-5.746-0.301-0.559-0.217-1.117-0.351-1.691-0.137zM11.168 9.713c-0.169 0.26-0.194 0.41-0.168 0.724 0.112 0.172 0.191 0.283 0.375 0.375 0.121 0.007 0.243 0.009 0.364 0.010 0.078 0.001 0.155 0.001 0.235 0.002 0.086 0 0.173 0.001 0.259 0.001 0.091 0.001 0.181 0.001 0.272 0.002 0.298 0.002 0.596 0.003 0.894 0.004 0.103 0 0.205 0.001 0.308 0.001 0.427 0.001 0.853 0.003 1.28 0.003 0.612 0.001 1.223 0.003 1.835 0.007 0.43 0.002 0.86 0.004 1.29 0.004 0.257 0 0.514 0.001 0.771 0.003 0.242 0.002 0.483 0.002 0.725 0.002 0.089 0 0.177 0.001 0.266 0.002 0.518 0.032 0.518 0.032 0.959-0.189 0.157-0.242 0.19-0.371 0.168-0.662-0.104-0.218-0.171-0.302-0.375-0.438-0.173-0.019-0.173-0.019-0.372-0.017-0.078-0.001-0.155-0.001-0.235-0.002-0.086-0-0.172-0-0.259-0-0.091-0-0.181-0.001-0.272-0.002-0.246-0.001-0.493-0.002-0.739-0.002-0.154-0-0.308-0.001-0.462-0.001-0.537-0.002-1.074-0.002-1.611-0.003-0.501-0-1.001-0.002-1.502-0.005-0.43-0.002-0.859-0.003-1.289-0.003-0.257-0-0.513-0.001-0.77-0.002-0.241-0.002-0.483-0.002-0.724-0.001-0.089 0-0.177-0-0.266-0.001-0.518-0.031-0.518-0.031-0.958 0.19zM10.063 14c-0.033 0.031-0.067 0.061-0.101 0.093-1.222 1.134-2.149 2.583-2.836 4.095-0.023 0.049-0.045 0.099-0.068 0.149-0.554 1.222-0.979 2.472-1.244 3.788-0.015 0.076-0.015 0.076-0.031 0.154-0.364 1.877-0.332 4.037 0.656 5.721 0.702 1.024 1.687 1.645 2.902 1.891 0.783 0.116 1.574 0.119 2.364 0.118 0.105 0 0.209 0 0.314 0.001 0.281 0.001 0.563 0.001 0.844 0.001 0.177 0 0.353 0 0.53 0 0.618 0.001 1.236 0.001 1.855 0.001 0.573-0 1.145 0.001 1.718 0.002 0.495 0.001 0.989 0.001 1.484 0.001 0.294-0 0.588 0 0.882 0.001 3.091 0.067 3.091 0.067 5.725-1.378 1.193-1.263 1.376-3.054 1.341-4.707-0.020-0.697-0.127-1.374-0.272-2.055-0.011-0.054-0.023-0.109-0.034-0.165-0.582-2.712-1.886-5.307-3.778-7.335-0.047-0.051-0.093-0.102-0.142-0.154-0.949-0.995-2.207-1.786-3.611-1.852-0.135-0.002-0.269-0.003-0.403-0.003-0.051-0-0.101-0-0.153-0.001-0.166-0.001-0.332-0.001-0.498-0.001-0.116-0-0.233-0-0.349-0.001-0.244-0-0.487-0.001-0.731-0-0.31 0-0.621-0.001-0.931-0.002-0.241-0.001-0.481-0.001-0.721-0.001-0.114-0-0.229-0-0.343-0.001-1.739-0.007-3.089 0.455-4.367 1.64z"></path>
<path d="M15.188 15.688c0.516 0 1.031 0 1.563 0 0 0.454 0 0.907 0 1.375 0.206 0.062 0.413 0.124 0.625 0.188 0.705 0.343 1.223 0.891 1.5 1.625 0.081 0.296 0.125 0.568 0.125 0.875-0.516 0-1.031 0-1.563 0-0.082-0.206-0.165-0.413-0.25-0.625-0.363-0.37-0.649-0.518-1.176-0.523-0.43 0.007-0.728 0.066-1.044 0.363-0.199 0.221-0.346 0.431-0.34 0.734 0.022 0.254 0.054 0.455 0.185 0.677 0.485 0.302 1.036 0.391 1.586 0.517 0.874 0.207 1.778 0.501 2.289 1.296 0.364 0.788 0.404 1.557 0.125 2.375-0.342 0.752-0.918 1.272-1.688 1.563-0.124 0.021-0.247 0.041-0.375 0.063 0 0.454 0 0.907 0 1.375-0.516 0-1.031 0-1.563 0 0-0.454 0-0.907 0-1.375-0.206-0.062-0.412-0.124-0.625-0.188-0.698-0.347-1.152-0.91-1.438-1.625-0.086-0.278-0.125-0.521-0.125-0.813 0.516 0 1.031 0 1.563 0 0.082 0.186 0.165 0.371 0.25 0.563 0.244 0.296 0.552 0.506 0.938 0.563 0.464 0.031 0.849-0.048 1.242-0.305 0.264-0.264 0.357-0.498 0.387-0.865-0.007-0.236-0.073-0.376-0.192-0.58-0.399-0.355-1.021-0.429-1.528-0.551-0.925-0.223-1.804-0.452-2.331-1.306-0.378-0.695-0.416-1.447-0.209-2.203 0.235-0.656 0.706-1.208 1.317-1.543 0.226-0.105 0.452-0.194 0.689-0.273 0.021-0.454 0.041-0.907 0.063-1.375z"></path>
</symbol>

<symbol id="icon-dumbbell" viewBox="0 0 32 32">
<path d="M27.183 5.462c0.417 0.123 0.63 0.625 0.825 0.98 0.487 0.925 0.7 1.861 0.687 2.904-0.002 0.189-0.002 0.378-0.002 0.568 0 0.351-0.001 0.701-0.006 1.051-0.039 1.549-0.039 1.549 0.625 2.91 0.095 0.188 0.169 0.379 0.238 0.578 0.017 0.049 0.035 0.099 0.053 0.15 0.719 2.125 0.518 4.331-0.432 6.342-0.279 0.542-0.638 1.16-1.109 1.555-0.172 0.046-0.326 0.034-0.5 0-0.156-0.094-0.156-0.094-0.25-0.25-0.050-0.215-0.061-0.295 0-0.5 0.123-0.187 0.261-0.359 0.401-0.534 1.051-1.358 1.4-3.201 1.192-4.878-0.27-1.83-1.249-3.456-2.71-4.584-0.802-0.591-1.722-0.992-2.696-1.191-0.055-0.012-0.11-0.024-0.167-0.036-1.896-0.241-3.779 0.252-5.299 1.408-0.272 0.22-0.533 0.447-0.784 0.691-0.076 0.074-0.076 0.074-0.154 0.149-1.153 1.189-1.75 2.771-1.807 4.414 0.030 0.883 0.219 1.735 0.539 2.556 0.046 0.129 0.077 0.256 0.107 0.39 0.081 0.263 0.143 0.465 0.377 0.617 0.5 0.147 1.028 0.162 1.547 0.177 0.217 0.011 0.427 0.039 0.641 0.073 0.001-0.084 0.001-0.084 0.002-0.17 0.003-0.21 0.007-0.42 0.011-0.63 0.002-0.091 0.003-0.181 0.004-0.272 0.006-0.572 0.017-1.028 0.398-1.49 0.033-0.027 0.066-0.055 0.101-0.083 0.033-0.028 0.065-0.056 0.099-0.085 0.47-0.287 0.904-0.299 1.442-0.297 0.077-0 0.154-0.001 0.233-0.001 0.162-0 0.324-0 0.486 0 0.247 0.001 0.493-0.001 0.74-0.003 0.158-0 0.316-0 0.474 0 0.11-0.001 0.11-0.001 0.222-0.002 0.513 0.004 0.96 0.081 1.376 0.397 0.342 0.415 0.488 0.783 0.475 1.323 0.052-0.002 0.104-0.004 0.158-0.007 0.554-0.013 1.084 0.003 1.509 0.407 0.476 0.567 0.442 1.185 0.438 1.885 0 0.113 0 0.225 0.001 0.338 0 0.235-0 0.47-0.002 0.705-0.002 0.3-0.001 0.599 0.001 0.899 0.001 0.232 0.001 0.464-0 0.696-0 0.11 0 0.221 0.001 0.331 0.006 1.153 0.006 1.153-0.355 1.621-0.411 0.399-0.802 0.505-1.371 0.508-0.126-0.002-0.253-0.004-0.379-0.008-0.001 0.044-0.002 0.088-0.003 0.133-0.027 0.543-0.166 0.848-0.548 1.23-0.489 0.336-0.927 0.353-1.505 0.351-0.077 0-0.154 0.001-0.233 0.001-0.162 0-0.324 0-0.486-0-0.247-0.001-0.493 0.001-0.74 0.003-0.158 0-0.316 0-0.474-0-0.11 0.001-0.11 0.001-0.222 0.002-0.513-0.004-0.97-0.076-1.378-0.406-0.032-0.041-0.064-0.081-0.098-0.123-0.034-0.041-0.067-0.081-0.102-0.123-0.206-0.315-0.228-0.597-0.223-0.966 0-0.074 0-0.074 0.001-0.15 0.001-0.157 0.002-0.315 0.004-0.472 0.001-0.107 0.001-0.214 0.002-0.321 0.001-0.262 0.004-0.523 0.006-0.785-0.114 0.018-0.114 0.018-0.23 0.037-5.712 0.882-5.712 0.882-7.27 0.026-0.151-0.181-0.189-0.27-0.18-0.508 0.055-0.182 0.093-0.254 0.242-0.367 0.201-0.101 0.417-0.053 0.637-0.039 0.108 0.006 0.216 0.013 0.323 0.019 0.086 0.005 0.086 0.005 0.173 0.010 0.307 0.017 0.614 0.032 0.921 0.045 0.057 0.003 0.114 0.005 0.173 0.008 0.794 0.035 1.582 0.014 2.374-0.032 0.047-0.003 0.094-0.005 0.143-0.008 0.903-0.052 1.795-0.145 2.693-0.254 0-0.763 0-1.526 0-2.313-0.289-0.021-0.578-0.041-0.875-0.063-0.239-0.024-0.477-0.050-0.715-0.078-0.859-0.096-1.723-0.124-2.586-0.125-0.071-0-0.071-0-0.143-0-0.983-0.001-1.956 0.074-2.934 0.169-0.415 0.040-0.831 0.070-1.247 0.097 0.002 0.057 0.003 0.114 0.005 0.173 0.005 0.213 0.009 0.425 0.012 0.638 0.002 0.092 0.004 0.184 0.006 0.276 0.004 0.132 0.006 0.265 0.007 0.397 0.002 0.080 0.003 0.159 0.005 0.241-0.045 0.27-0.134 0.36-0.348 0.526-0.223 0.035-0.223 0.035-0.438 0-0.192-0.14-0.244-0.214-0.282-0.451-0-0.080-0-0.159-0.001-0.241-0.001-0.066-0.001-0.066-0.001-0.133-0.001-0.145-0.001-0.291-0-0.436-0.001-0.101-0.001-0.202-0.002-0.304-0.002-0.266-0.003-0.533-0.003-0.799-0.001-0.426-0.003-0.852-0.006-1.278-0.001-0.149-0.001-0.297-0.001-0.446-0-0.091-0.001-0.183-0.001-0.274-0-0.080-0-0.159-0-0.241-0.015-0.203-0.046-0.342-0.141-0.522-0.158-0.079-0.269-0.071-0.446-0.072-0.067-0-0.134-0.001-0.203-0.001-0.073-0-0.145-0-0.22-0s-0.149-0-0.225-0.001c-0.157-0-0.315-0-0.472-0-0.241-0-0.483-0.001-0.724-0.002-0.153-0-0.305-0-0.458-0-0.072-0-0.145-0.001-0.22-0.001-0.067 0-0.134 0-0.204 0.001-0.089-0-0.089-0-0.179-0-0.166 0.005-0.166 0.005-0.337 0.14-0.071 0.189-0.071 0.372-0.071 0.572-0 0.065-0.001 0.13-0.001 0.197 0 0.071 0 0.142 0 0.215-0 0.075-0 0.15-0.001 0.228-0 0.206-0.001 0.412-0.001 0.617-0 0.129-0 0.257-0 0.386-0.001 0.449-0.001 0.898-0.001 1.347 0 0.418-0.001 0.837-0.002 1.255-0.001 0.359-0.001 0.719-0.001 1.078 0 0.215-0 0.429-0.001 0.644-0.001 0.239-0 0.479-0 0.718-0 0.071-0.001 0.142-0.001 0.215 0 0.065 0.001 0.131 0.001 0.198-0 0.057-0 0.113-0 0.171 0.017 0.178 0.061 0.311 0.141 0.471 0.158 0.079 0.269 0.071 0.446 0.072 0.1 0.001 0.1 0.001 0.203 0.001 0.109 0 0.109 0 0.22 0 0.074 0 0.149 0 0.225 0.001 0.157 0 0.315 0 0.472 0 0.241 0 0.483 0.001 0.724 0.002 0.153 0 0.305 0 0.458 0 0.072 0 0.145 0.001 0.22 0.001 0.067-0 0.134-0 0.204-0.001 0.089 0 0.089 0 0.179 0 0.166-0.005 0.166-0.005 0.337-0.14 0.080-0.206 0.071-0.416 0.073-0.635 0.002-0.111 0.002-0.111 0.005-0.225 0.003-0.156 0.005-0.312 0.006-0.468 0.002-0.074 0.003-0.148 0.005-0.225 0.001-0.068 0.002-0.136 0.003-0.205 0.041-0.221 0.106-0.295 0.283-0.429 0.215-0.035 0.215-0.035 0.438 0 0.208 0.163 0.302 0.255 0.351 0.518-0 0.076-0.001 0.153-0.001 0.231 0 0.041 0 0.083 0 0.125-0 0.087-0.001 0.174-0.003 0.262-0.003 0.132-0.003 0.264-0.002 0.396-0.003 0.549-0.044 0.957-0.356 1.421-0.337 0.329-0.733 0.491-1.203 0.494-0.069 0.001-0.139 0.001-0.211 0.002-0.075 0-0.15 0.001-0.228 0.001-0.116 0.001-0.116 0.001-0.235 0.001-0.164 0.001-0.328 0.001-0.493 0.001-0.168 0-0.335 0.001-0.503 0.003-0.242 0.002-0.484 0.003-0.727 0.003-0.074 0.001-0.149 0.002-0.226 0.002-0.496-0.001-0.909-0.054-1.336-0.316-0.254-0.261-0.506-0.599-0.522-0.973 0.001-0.050 0.001-0.1 0.002-0.152 0.001-0.050 0.001-0.101 0.002-0.153 0.001-0.038 0.001-0.077 0.002-0.116-0.056 0.003-0.112 0.006-0.169 0.009-0.553 0.017-1.033 0.007-1.462-0.376-0.349-0.379-0.45-0.69-0.45-1.205-0-0.050-0.001-0.101-0.001-0.153-0.001-0.166-0.001-0.333-0.002-0.499-0-0.116-0.001-0.232-0.001-0.348-0.001-0.243-0.001-0.486-0.001-0.73 0-0.311-0.002-0.622-0.004-0.932-0.001-0.24-0.002-0.479-0.002-0.719-0-0.115-0.001-0.229-0.002-0.344-0.001-0.161-0.001-0.321-0-0.482-0.001-0.047-0.001-0.094-0.002-0.142 0.005-0.395 0.133-0.711 0.385-1.016 0.544-0.448 1.013-0.465 1.71-0.438-0.003-0.035-0.006-0.070-0.009-0.105-0.022-0.475 0.1-0.779 0.415-1.133 0.052-0.045 0.103-0.090 0.156-0.137 0.039-0.035 0.077-0.070 0.117-0.105 0.42-0.26 0.895-0.227 1.373-0.228 0.077-0 0.154-0.001 0.234-0.001 0.163-0.001 0.325-0.001 0.488-0.001 0.248-0 0.496-0.003 0.744-0.005 0.159-0 0.317-0.001 0.476-0.001 0.074-0.001 0.147-0.002 0.223-0.003 0.569 0.003 1.056 0.117 1.471 0.532 0.26 0.377 0.321 0.671 0.319 1.122-0 0.062-0 0.062-0 0.125-0 0.131-0.001 0.262-0.002 0.393-0 0.089-0.001 0.178-0.001 0.268-0.001 0.218-0.002 0.436-0.003 0.654 0.113-0.028 0.113-0.028 0.228-0.056 1.555-0.343 3.19-0.28 4.772-0.256-0.025-0.058-0.051-0.116-0.077-0.176-0.034-0.078-0.068-0.156-0.102-0.234-0.017-0.038-0.033-0.076-0.051-0.115-0.683-1.578-0.725-3.454-0.271-5.1 0.011-0.041 0.021-0.082 0.032-0.124 0.443-1.656 1.55-3.103 2.905-4.126 0.059-0.022 0.117-0.044 0.178-0.067 0.148-0.106 0.148-0.106 0.155-0.259 0.001-0.188-0.006-0.373-0.016-0.56-0.027-1.032 0.166-1.825 0.758-2.688 0.981-0.981 2.19-1.238 3.528-1.238 1.283 0.013 2.54 0.166 3.507 1.096 0.548 0.601 0.917 1.427 0.885 2.253-0.004 0.059-0.008 0.118-0.012 0.178-0.070 0.679-0.070 0.679 0.156 1.29 0.178 0.124 0.356 0.212 0.55 0.308 0.078 0.063 0.155 0.127 0.231 0.193 0.058 0.051 0.058 0.051 0.118 0.103 0.029 0.026 0.059 0.052 0.089 0.079 0.005-0.366 0.008-0.731 0.010-1.097 0.001-0.124 0.002-0.248 0.004-0.372 0.012-0.918-0.020-1.774-0.37-2.637-0.015-0.038-0.031-0.076-0.047-0.116-0.116-0.271-0.263-0.504-0.434-0.744-0.261-0.372-0.261-0.372-0.273-0.629 0.047-0.219 0.047-0.219 0.141-0.375 0.177-0.106 0.32-0.145 0.527-0.132zM19.383 7.988c-0.308 0.378-0.518 0.838-0.514 1.331 0 0.047 0 0.094 0.001 0.143s0.001 0.097 0.002 0.147c0 0.050 0.001 0.099 0.001 0.15 0.001 0.122 0.002 0.244 0.003 0.365 0.064-0.024 0.127-0.048 0.193-0.073 0.889-0.33 1.792-0.583 2.745-0.614 0.087-0.004 0.087-0.004 0.175-0.008 1.018-0.023 2.13 0.131 3.067 0.549 0.189 0.096 0.189 0.096 0.383 0.084 0.132-0.639-0.012-1.266-0.324-1.832-0.39-0.577-0.971-0.896-1.641-1.050-0.419-0.079-0.837-0.080-1.262-0.079-0.041 0-0.083 0-0.126 0-1.011 0.004-1.972 0.113-2.703 0.887zM19.668 19.173c-0.165 0.314-0.141 0.617-0.138 0.966-0 0.078-0.001 0.155-0.001 0.235-0.001 0.212-0.001 0.425 0 0.637 0.001 0.222 0 0.445-0 0.667-0 0.373 0 0.747 0.001 1.12 0.001 0.431 0.001 0.863-0 1.294-0.001 0.371-0.001 0.742-0.001 1.112 0 0.221 0 0.443-0 0.664-0.001 0.247 0 0.493 0.002 0.74-0 0.073-0.001 0.146-0.002 0.222 0.004 0.388 0.004 0.388 0.14 0.745 0.176 0.135 0.264 0.15 0.484 0.15 0.068 0.001 0.136 0.002 0.206 0.002 0.073-0.001 0.146-0.002 0.222-0.003 0.075 0 0.151 0 0.228 0 0.159-0 0.319-0.001 0.478-0.002 0.244-0.002 0.488-0.001 0.732-0 0.155-0 0.309-0.001 0.464-0.002 0.073 0 0.146 0.001 0.222 0.001 0.102-0.002 0.102-0.002 0.206-0.003 0.060-0 0.119-0.001 0.181-0.001 0.209-0.042 0.283-0.112 0.409-0.282 0.036-0.151 0.036-0.151 0.030-0.317 0-0.063 0.001-0.126 0.001-0.191-0.001-0.068-0.001-0.135-0.002-0.205 0-0.070 0.001-0.14 0.001-0.212 0.001-0.223 0.001-0.446 0.001-0.669-0.001-0.294 0-0.587 0.002-0.881-0.001-0.068-0.001-0.135-0.002-0.205 0-0.063 0.001-0.126 0.001-0.191-0-0.055-0-0.111-0.001-0.168 0.041-0.199 0.123-0.274 0.281-0.399 0.216-0.031 0.329-0.026 0.52 0.082 0.194 0.194 0.179 0.407 0.188 0.667 0.003 0.073 0.005 0.145 0.008 0.22 0.002 0.076 0.005 0.152 0.007 0.23 0.003 0.077 0.005 0.153 0.008 0.232 0.007 0.189 0.013 0.379 0.019 0.568 0.12 0.005 0.24 0.009 0.359 0.012 0.067 0.002 0.133 0.004 0.202 0.007 0.21-0.020 0.291-0.058 0.438-0.206 0.072-0.217 0.071-0.388 0.073-0.617 0-0.043 0.001-0.087 0.001-0.132 0.001-0.144 0.001-0.287 0.002-0.431 0-0.1 0.001-0.2 0.001-0.3 0.001-0.209 0.001-0.419 0.001-0.628 0-0.268 0.002-0.536 0.004-0.804 0.001-0.206 0.002-0.413 0.002-0.619 0-0.099 0.001-0.198 0.002-0.296 0.001-0.138 0.001-0.277 0.001-0.415 0-0.079 0-0.157 0.001-0.238-0.027-0.242-0.1-0.409-0.273-0.582-0.137-0.005-0.273-0.005-0.41-0.004-0.075 0.001-0.15 0.001-0.227 0.002-0.087 0.001-0.087 0.001-0.176 0.002-0.001 0.051-0.002 0.103-0.004 0.156-0.006 0.233-0.013 0.467-0.020 0.7-0.002 0.081-0.004 0.162-0.006 0.245-0.002 0.078-0.005 0.156-0.007 0.236-0.003 0.108-0.003 0.108-0.006 0.217-0.020 0.195-0.056 0.335-0.145 0.509-0.194 0.097-0.414 0.108-0.625 0.063-0.179-0.19-0.211-0.321-0.211-0.579-0-0.066-0.001-0.131-0.001-0.198 0-0.070 0.001-0.141 0.001-0.213-0.001-0.149-0.002-0.298-0.003-0.447-0.001-0.235-0.001-0.47-0.001-0.705-0-0.227-0.002-0.453-0.004-0.68 0-0.070 0.001-0.141 0.002-0.213-0.001-0.098-0.001-0.098-0.002-0.198 0-0.058 0-0.115 0-0.174-0.042-0.207-0.112-0.28-0.281-0.404-0.161-0.038-0.161-0.038-0.34-0.033-0.068-0.001-0.136-0.002-0.206-0.003-0.073 0-0.146 0.001-0.222 0.001s-0.151-0.001-0.228-0.001c-0.159-0-0.319-0-0.478 0.001-0.244 0.001-0.488-0.001-0.732-0.004-0.155-0-0.309 0-0.464 0-0.073-0.001-0.146-0.002-0.222-0.003-0.102 0.001-0.102 0.001-0.206 0.002-0.090 0-0.090 0-0.181 0-0.167 0.030-0.167 0.030-0.303 0.15zM3.25 20.75c-0.262 0.254-0.262 0.254-0.284 0.58 0.001 0.043 0.001 0.086 0.002 0.131-0 0.046-0.001 0.092-0.001 0.139-0.001 0.152-0 0.303 0 0.455-0 0.106-0 0.211-0.001 0.317-0 0.221 0 0.442 0.001 0.663 0.001 0.283 0.001 0.567-0.001 0.85-0.001 0.218-0.001 0.436 0 0.654 0 0.104-0 0.209-0.001 0.313-0.001 0.146 0 0.292 0.002 0.438-0.001 0.043-0.001 0.086-0.002 0.131 0.006 0.316 0.039 0.335 0.284 0.58 0.268 0 0.536 0 0.813 0 0-1.732 0-3.465 0-5.25-0.268 0-0.536 0-0.813 0z"></path>
<path d="M25.688 4.063c0.167 0.148 0.24 0.22 0.309 0.434 0.005 0.232-0.039 0.324-0.184 0.504-0.157 0.119-0.227 0.127-0.425 0.107-0.209-0.047-0.358-0.117-0.544-0.22-0.809-0.419-1.629-0.524-2.528-0.527-0.126-0.001-0.252-0.003-0.378-0.005-1.497-0.006-2.772 0.497-3.875 1.52-1.112 1.204-1.408 2.626-1.398 4.209 0.001 0.135-0.001 0.27-0.002 0.405 0 0.079 0 0.158 0.001 0.239-0.048 0.266-0.141 0.358-0.351 0.522-0.233 0.044-0.335 0.023-0.54-0.095-0.201-0.212-0.191-0.396-0.186-0.673-0-0.051-0-0.102-0-0.155 0-0.109 0.001-0.217 0.002-0.326 0.002-0.162 0.001-0.324 0-0.486 0.002-1.87 0.676-3.339 1.99-4.657 1.963-1.844 5.815-2.289 8.109-0.797z"></path>
<path d="M21.527 11.605c0.13 0.192 0.135 0.292 0.098 0.52-0.185 0.299-0.383 0.379-0.711 0.461-0.774 0.22-1.438 0.559-2.039 1.102-0.043 0.037-0.086 0.074-0.13 0.112-0.925 0.852-1.379 2.086-1.456 3.318-0.018 0.22-0.038 0.318-0.148 0.516-0.161 0.134-0.244 0.175-0.453 0.18-0.238-0.067-0.297-0.102-0.438-0.313-0.141-1.429 0.369-2.826 1.242-3.949 0.68-0.814 2.845-2.77 4.035-1.945z"></path>
</symbol>
</defs>
</svg>