<svg aria-hidden="true" style="position: absolute; width: 0; height: 0; overflow: hidden;" version="1.1" xmlns="http://www.w3.org/2000/svg" xmlns:xlink="http://www.w3.org/1999/xlink">
<defs>
<symbol id="icon-map" viewBox="0 0 32 32">
<path d="M12.011 8.22c0.088 0.035 0.088 0.035 0.178 0.071 0.191 0.077 0.382 0.155 0.573 0.234 0.134 0.054 0.268 0.108 0.402 0.162 0.28 0.113 0.559 0.227 0.838 0.341 0.357 0.146 0.715 0.291 1.073 0.436 0.342 0.138 0.685 0.277 1.027 0.416 0.065 0.026 0.13 0.053 0.197 0.080 0.184 0.075 0.368 0.15 0.552 0.226 0.054 0.022 0.108 0.044 0.164 0.066 0.801 0.331 0.801 0.331 0.986 0.748 0.099 0.369 0.054 0.667-0.125 1-0.184 0.208-0.361 0.349-0.625 0.438-1.839 0-3.48-1.192-5.188-1.875-0.031 7.796-0.031 7.796-0.063 15.75 0.103 0.021 0.206 0.041 0.313 0.063 0.097 0.033 0.193 0.069 0.288 0.107 0.084 0.033 0.084 0.033 0.169 0.067 0.061 0.024 0.121 0.049 0.183 0.074 0.097 0.038 0.097 0.038 0.195 0.078 0.213 0.085 0.426 0.17 0.639 0.255 0.149 0.059 0.297 0.119 0.446 0.178 0.352 0.14 0.704 0.281 1.056 0.422 0.397 0.159 0.794 0.317 1.191 0.475 1.174 0.468 2.348 0.937 3.521 1.407-0-0.055-0-0.111-0.001-0.168-0.006-1.347-0.010-2.695-0.012-4.042-0.001-0.652-0.003-1.303-0.006-1.955-0.003-0.568-0.004-1.136-0.005-1.704-0-0.301-0.001-0.601-0.003-0.902-0.002-0.283-0.002-0.566-0.002-0.849-0-0.104-0.001-0.208-0.002-0.312-0.001-0.142-0.001-0.284-0-0.426-0-0.079-0-0.159-0.001-0.241 0.048-0.334 0.2-0.524 0.457-0.735 0.323-0.171 0.576-0.199 0.926-0.102 0.324 0.12 0.494 0.311 0.648 0.621 0.006 0.142 0.008 0.284 0.008 0.426 0 0.066 0 0.066 0 0.134 0 0.149-0 0.298-0.001 0.447-0 0.107 0 0.213 0 0.32 0 0.29-0 0.58-0.001 0.87-0 0.303-0 0.605-0 0.908-0 0.573-0.001 1.147-0.001 1.721-0.001 0.653-0.001 1.306-0.001 1.958-0.001 1.343-0.002 2.686-0.003 4.029 1.082-0.417 2.163-0.836 3.238-1.269 0.191-0.077 0.382-0.154 0.573-0.23 0.541-0.217 1.083-0.435 1.624-0.652 0.335-0.135 0.671-0.269 1.006-0.404 0.127-0.051 0.253-0.102 0.38-0.153 0.175-0.070 0.35-0.141 0.525-0.211 0.052-0.021 0.104-0.042 0.158-0.064 0.357-0.142 0.357-0.142 0.496-0.142-0-0.060-0-0.12-0.001-0.181-0.006-1.457-0.010-2.914-0.012-4.371-0.001-0.705-0.003-1.409-0.006-2.114-0.003-0.614-0.004-1.228-0.005-1.842-0-0.325-0.001-0.65-0.003-0.975-0.002-0.306-0.002-0.612-0.002-0.918-0-0.112-0.001-0.225-0.002-0.337-0.001-0.153-0.001-0.307-0-0.46-0.001-0.044-0.001-0.089-0.002-0.134 0.004-0.313 0.089-0.487 0.282-0.729 0.239-0.227 0.43-0.269 0.75-0.281 0.32 0.012 0.511 0.054 0.75 0.281 0.24 0.296 0.286 0.53 0.282 0.902 0 0.052 0.001 0.104 0.001 0.158 0.001 0.174 0 0.348-0.001 0.522 0 0.125 0.001 0.25 0.001 0.375 0.001 0.339 0.001 0.679-0 1.018-0.001 0.355-0 0.71 0 1.066 0 0.596-0 1.193-0.001 1.789-0.001 0.69-0.001 1.379 0 2.069 0.001 0.592 0.001 1.184 0.001 1.776-0 0.354-0 0.707 0 1.061 0.001 0.332 0 0.665-0.001 0.997-0 0.122-0 0.244 0 0.366 0.001 0.167-0 0.333-0.001 0.5 0.001 0.048 0.001 0.097 0.002 0.146-0.005 0.323-0.079 0.506-0.283 0.755-0.297 0.239-0.634 0.367-0.986 0.504-0.061 0.024-0.121 0.048-0.184 0.073-0.201 0.080-0.403 0.159-0.604 0.239-0.143 0.057-0.286 0.113-0.429 0.17-0.379 0.15-0.758 0.3-1.137 0.45-0.52 0.206-1.041 0.412-1.561 0.618-0.296 0.117-0.591 0.234-0.887 0.351-0.755 0.298-1.508 0.601-2.258 0.913-0.222 0.092-0.444 0.183-0.666 0.275-0.208 0.086-0.415 0.174-0.622 0.262-0.127 0.053-0.254 0.105-0.381 0.157-0.056 0.024-0.112 0.048-0.169 0.073-0.667 0.271-1.241 0.21-1.894-0.065-0.061-0.024-0.122-0.049-0.184-0.074-0.2-0.081-0.399-0.163-0.599-0.246-0.142-0.058-0.284-0.115-0.426-0.173-0.375-0.152-0.75-0.305-1.124-0.459-0.37-0.152-0.741-0.302-1.112-0.453-0.581-0.236-1.162-0.472-1.742-0.709-0.105-0.043-0.105-0.043-0.213-0.087-0.42-0.171-0.84-0.343-1.26-0.516-0.262-0.108-0.525-0.215-0.787-0.321-0.122-0.050-0.244-0.1-0.366-0.151-0.167-0.069-0.334-0.137-0.502-0.205-0.049-0.020-0.097-0.041-0.147-0.062-0.518-0.206-0.883-0.028-1.378 0.171-0.062 0.024-0.123 0.049-0.187 0.074-0.205 0.081-0.409 0.163-0.613 0.245-0.145 0.058-0.289 0.115-0.434 0.173-0.305 0.121-0.609 0.243-0.914 0.365-0.382 0.153-0.764 0.305-1.146 0.458-0.298 0.119-0.596 0.238-0.894 0.357-0.148 0.059-0.296 0.118-0.444 0.177-0.761 0.303-1.521 0.609-2.277 0.926-0.179 0.075-0.358 0.149-0.538 0.224-0.163 0.068-0.326 0.138-0.488 0.208-0.521 0.219-0.992 0.408-1.57 0.306-0.291-0.135-0.5-0.327-0.625-0.625-0.037-0.251-0.034-0.501-0.032-0.754-0-0.077-0.001-0.153-0.001-0.232-0.001-0.212-0.001-0.424 0-0.637 0.001-0.229-0-0.458-0.001-0.687-0.001-0.448-0.001-0.897-0-1.346 0.001-0.364 0.001-0.729 0-1.094-0-0.052-0-0.104-0-0.157-0-0.105-0-0.211-0-0.316-0.001-0.988 0-1.977 0.001-2.965 0.001-0.848 0.001-1.696-0-2.544-0.001-0.985-0.002-1.969-0.001-2.954 0-0.105 0-0.21 0-0.315 0-0.052 0-0.103 0-0.157 0-0.364-0-0.728-0.001-1.092-0.001-0.444-0.001-0.887 0.001-1.331 0.001-0.226 0.001-0.453 0-0.679-0.001-0.245 0-0.491 0.001-0.736-0.001-0.072-0.001-0.143-0.002-0.217 0.004-0.386 0.022-0.621 0.283-0.912 0.297-0.239 0.634-0.367 0.986-0.504 0.061-0.024 0.121-0.048 0.184-0.073 0.201-0.080 0.403-0.159 0.604-0.239 0.143-0.057 0.286-0.113 0.429-0.17 0.379-0.15 0.758-0.3 1.137-0.45 0.52-0.206 1.041-0.412 1.561-0.618 0.296-0.117 0.591-0.234 0.887-0.351 0.755-0.298 1.508-0.601 2.258-0.913 0.222-0.092 0.444-0.183 0.666-0.275 0.208-0.086 0.415-0.174 0.622-0.262 0.127-0.053 0.254-0.105 0.381-0.157 0.056-0.024 0.112-0.048 0.169-0.073 0.657-0.267 1.231-0.215 1.875 0.056zM9.684 10.599c-0.055 0.022-0.109 0.044-0.165 0.066-0.060 0.024-0.121 0.049-0.183 0.074-0.063 0.025-0.126 0.051-0.192 0.077-0.211 0.085-0.422 0.17-0.632 0.255-0.147 0.059-0.294 0.118-0.441 0.177-0.349 0.14-0.698 0.281-1.047 0.421-0.507 0.204-1.014 0.408-1.521 0.612-0.365 0.147-0.73 0.294-1.095 0.44-0.068 0.027-0.137 0.055-0.207 0.083-0.125 0.050-0.249 0.1-0.373 0.15-0.609 0.245-1.219 0.489-1.829 0.733 0 5.198 0 10.395 0 15.75 0.224-0.045 0.393-0.087 0.6-0.17 0.056-0.022 0.112-0.044 0.169-0.067 0.091-0.036 0.091-0.036 0.183-0.074 0.064-0.026 0.129-0.051 0.195-0.078 0.213-0.085 0.426-0.17 0.639-0.255 0.149-0.059 0.297-0.119 0.446-0.178 0.352-0.14 0.704-0.281 1.056-0.422 0.397-0.159 0.794-0.317 1.191-0.475 1.174-0.468 2.348-0.938 3.521-1.407 0-5.218 0-10.436 0-15.813-0.112 0-0.213 0.057-0.316 0.099z"></path>
<path d="M29.67 1.697c0.447 0.381 0.798 0.83 1.142 1.303 0.041 0.057 0.083 0.113 0.125 0.172 0.926 1.361 1.31 3.221 1.012 4.836-0.491 2.166-1.86 4.158-3.137 5.93-0.036 0.050-0.072 0.101-0.11 0.153-0.491 0.682-1.005 1.34-1.546 1.984-0.128 0.154-0.254 0.309-0.38 0.465-0.23 0.281-0.464 0.559-0.699 0.836-0.034 0.041-0.068 0.081-0.103 0.123-0.229 0.267-0.419 0.475-0.782 0.529-0.391 0-0.646 0-0.944-0.277-0.342-0.354-0.655-0.732-0.964-1.115-0.12-0.149-0.242-0.296-0.364-0.442-0.493-0.592-0.966-1.196-1.421-1.818-0.033-0.045-0.066-0.090-0.1-0.136-0.493-0.668-0.959-1.348-1.4-2.052-0.036-0.057-0.036-0.057-0.072-0.114-0.709-1.128-1.317-2.308-1.74-3.573-0.024-0.068-0.048-0.136-0.072-0.205-0.394-1.349-0.111-2.91 0.447-4.17 0.027-0.061 0.054-0.123 0.081-0.186 0.761-1.626 2.184-2.922 3.865-3.544 2.541-0.894 5.088-0.337 7.161 1.302zM21.75 3.25c-0.061 0.048-0.121 0.097-0.184 0.147-0.803 0.671-1.388 1.82-1.504 2.853-0.054 0.726-0.032 1.382 0.25 2.063 0.023 0.057 0.023 0.057 0.047 0.116 0.612 1.51 1.497 2.884 2.453 4.196 0.035 0.048 0.069 0.096 0.105 0.145 0.479 0.663 0.976 1.306 1.496 1.937 0.179 0.219 0.352 0.443 0.524 0.668 0.248-0.083 0.344-0.244 0.496-0.445 0.062-0.081 0.124-0.161 0.186-0.242 0.032-0.042 0.064-0.083 0.097-0.126 0.121-0.157 0.246-0.31 0.371-0.464 0.689-0.848 1.322-1.741 1.913-2.66 0.031-0.049 0.063-0.097 0.095-0.147 1.585-2.457 1.585-2.457 1.804-5.296-0.2-0.827-0.59-1.603-1.149-2.244-0.048-0.061-0.097-0.121-0.147-0.184-0.667-0.799-1.823-1.396-2.853-1.504-1.502-0.097-2.842 0.178-4 1.188z"></path>
<path d="M26.438 4.313c0.076 0.041 0.076 0.041 0.155 0.082 0.626 0.377 1.033 0.926 1.283 1.605 0.023 0.056 0.045 0.113 0.069 0.171 0.205 0.747 0.105 1.591-0.256 2.267-0.027 0.051-0.054 0.102-0.082 0.155-0.377 0.626-0.927 1.033-1.605 1.283-0.056 0.023-0.113 0.045-0.171 0.069-0.747 0.205-1.591 0.105-2.267-0.256-0.051-0.027-0.102-0.054-0.155-0.082-0.626-0.377-1.033-0.927-1.283-1.605-0.023-0.056-0.045-0.113-0.069-0.171-0.205-0.747-0.105-1.591 0.256-2.267 0.027-0.051 0.054-0.102 0.082-0.155 0.402-0.668 1.016-1.102 1.743-1.352 0.774-0.183 1.598-0.119 2.3 0.256zM24.164 6.477c-0.138 0.286-0.151 0.524-0.102 0.836 0.146 0.302 0.323 0.479 0.625 0.625 0.312 0.050 0.55 0.036 0.836-0.102 0.224-0.203 0.389-0.365 0.438-0.673 0.016-0.355-0.028-0.578-0.274-0.85-0.272-0.246-0.495-0.29-0.85-0.274-0.308 0.049-0.471 0.214-0.673 0.438z"></path>
</symbol>
<symbol id="icon-message" viewBox="0 0 32 32">
<path d="M6.126 7.21c0.188-0.001 0.375-0.002 0.568-0.004 0.619-0.004 1.238-0.005 1.858-0.007 0.432-0.001 0.863-0.003 1.295-0.004 0.905-0.003 1.809-0.004 2.714-0.005 1.157-0.001 2.313-0.007 3.47-0.014 0.892-0.005 1.783-0.006 2.675-0.006 0.426-0.001 0.853-0.003 1.279-0.006 0.598-0.004 1.195-0.004 1.793-0.002 0.174-0.002 0.349-0.005 0.529-0.007 1.597 0.013 2.715 0.419 3.913 1.487 0.74 0.849 0.814 1.257 0.826 2.359 0.005 0.391 0.005 0.391 0.010 0.789 0.002 0.283 0.004 0.565 0.006 0.856 0.002 0.29 0.004 0.58 0.006 0.878 0.003 0.614 0.006 1.229 0.008 1.844 0.004 0.939 0.015 1.877 0.026 2.816 0.003 0.597 0.005 1.193 0.006 1.79 0.004 0.281 0.009 0.561 0.013 0.85-0.004 1.511-0.035 2.525-1.12 3.677-1.088 0.848-1.764 1.122-3.14 1.089-0.322-0.005-0.643-0.009-0.974-0.014-0.17-0.005-0.341-0.009-0.516-0.014-0.54-0.014-1.080-0.019-1.62-0.023-1.535-0.010-3.070-0.027-4.605-0.066-5.611-0.288-5.611-0.288-10.415 2.246-0.142 0.135-0.283 0.27-0.429 0.409-0.671 0.613-0.748 0.622-1.734 0.637-1.098-0.355-1.098-0.355-1.566-1.014-0.097-0.763-0.097-0.763-0.101-1.714-0.002-0.173-0.003-0.347-0.005-0.525-0.005-0.573-0.004-1.146-0.002-1.719-0.001-0.399-0.002-0.798-0.004-1.197-0.002-0.837-0.002-1.673 0.001-2.51 0.003-1.070-0.002-2.14-0.009-3.21-0.005-0.824-0.005-1.648-0.003-2.473 0-0.394-0.001-0.789-0.005-1.183-0.004-0.553-0.001-1.106 0.003-1.658 0-0.314 0-0.628 0-0.952 0.149-1.021 0.486-1.559 1.125-2.359 1.334-0.967 2.517-1.038 4.126-1.040zM3.25 10.5c-0.338 0.791-0.28 1.615-0.278 2.468 0 0.295 0 0.59 0 0.895 0.001 0.317 0.003 0.635 0.004 0.962 0 0.326 0.001 0.652 0.001 0.988 0.001 0.865 0.003 1.729 0.006 2.594 0.003 0.883 0.004 1.766 0.005 2.649 0.003 1.731 0.007 3.463 0.012 5.194 0.36-0.238 0.72-0.476 1.080-0.714 0.2-0.133 0.401-0.265 0.608-0.402 0.601-0.4 0.601-0.4 1.281-0.963 0.925-0.735 1.723-0.704 2.865-0.707 0.491-0.003 0.491-0.003 0.991-0.005 0.175-0 0.349-0.001 0.529-0.001 0.547-0.002 1.095-0.006 1.642-0.010 1.556-0.013 3.113-0.025 4.669-0.029 0.952-0.003 1.905-0.010 2.857-0.020 0.363-0.003 0.725-0.004 1.088-0.004 0.507 0.001 1.015-0.006 1.522-0.012 0.289-0.001 0.577-0.003 0.875-0.004 0.901-0.156 1.19-0.412 1.742-1.128 0.329-0.988 0.291-1.936 0.292-2.967 0.001-0.218 0.002-0.436 0.003-0.66 0.001-0.461 0.002-0.922 0.002-1.383 0.001-0.704 0.005-1.408 0.010-2.112 0.001-0.448 0.001-0.896 0.001-1.345 0.003-0.315 0.003-0.315 0.005-0.636-0.005-1.276-0.011-2.348-0.968-3.299-0.804-0.47-1.528-0.455-2.433-0.449-0.183-0.002-0.367-0.003-0.556-0.005-0.605-0.005-1.211-0.004-1.816-0.002-0.422-0.001-0.843-0.002-1.265-0.004-0.883-0.002-1.767-0.002-2.65 0.001-1.131 0.003-2.262-0.002-3.393-0.009-0.871-0.005-1.741-0.005-2.612-0.003-0.417 0-0.834-0.001-1.251-0.005-0.583-0.004-1.167-0.001-1.75 0.003-0.172-0.002-0.343-0.005-0.52-0.007-1.175 0.018-1.793 0.278-2.6 1.133z"></path>
<path d="M7.891 3.179c0.194 0.001 0.388 0.001 0.588 0.002 0.205-0.001 0.409-0.003 0.62-0.004 0.679-0.003 1.357-0.003 2.036-0.003 0.472-0.001 0.943-0.002 1.415-0.003 0.99-0.002 1.98-0.002 2.97-0 1.267 0.001 2.533-0.003 3.8-0.009 0.975-0.004 1.95-0.004 2.924-0.003 0.467-0 0.934-0.001 1.4-0.004 0.655-0.003 1.309-0.001 1.964 0.002 0.192-0.002 0.383-0.004 0.581-0.006 1.628 0.016 2.786 0.381 4.029 1.49 0.729 0.836 0.813 1.226 0.814 2.31 0.001 0.249 0.002 0.499 0.002 0.756-0.001 0.405-0.001 0.405-0.002 0.818 0 0.276 0 0.552 0.001 0.837 0 0.584-0 1.169-0.001 1.753-0.001 0.898 0 1.796 0.002 2.695-0 0.567-0 1.133-0.001 1.7 0 0.271 0.001 0.541 0.002 0.82-0.001 0.373-0.001 0.373-0.002 0.753-0 0.22-0 0.44-0.001 0.667-0.032 0.501-0.032 0.501-0.282 0.751-0.75 0.031-0.75 0.031-1.5 0-0.544-0.544-0.303-1.824-0.312-2.582-0.008-0.483-0.017-0.967-0.025-1.45-0.012-0.765-0.023-1.53-0.033-2.294-0.010-0.736-0.023-1.472-0.036-2.209-0.002-0.228-0.004-0.456-0.006-0.691-0.023-1.573-0.023-1.573-0.588-3.024-0.942-0.628-1.69-0.575-2.782-0.576-0.31-0.003-0.31-0.003-0.627-0.006-0.685-0.006-1.369-0.009-2.054-0.013-0.475-0.004-0.95-0.008-1.424-0.013-1.25-0.011-2.5-0.020-3.75-0.028-2.003-0.013-4.006-0.029-6.009-0.047-0.701-0.006-1.403-0.010-2.104-0.014-0.427-0.003-0.855-0.007-1.282-0.010-0.197-0.001-0.393-0.001-0.596-0.002-1.343-0.013-1.343-0.013-1.621-0.291-0.047-0.734-0.047-0.734 0-1.5 0.632-0.632 1.029-0.562 1.891-0.571z"></path>
<path d="M18 15.469c0.75 0.031 0.75 0.031 1 0.281 0.063 0.734 0.063 0.734 0 1.5-0.75 0.5-0.75 0.5-1.266 0.438-0.484-0.188-0.484-0.188-0.984-0.688 0.181-1.487 0.181-1.487 1.25-1.531z"></path>
<path d="M13.984 15.453c0.766 0.047 0.766 0.047 1.266 0.547-0.082 0.824-0.156 1.156-0.75 1.75-1.139-0.139-1.139-0.139-1.5-0.5-0.031-0.75-0.031-0.75 0-1.5 0.25-0.25 0.25-0.25 0.984-0.297z"></path>
<path d="M9.984 15.453c0.766 0.047 0.766 0.047 1.266 0.547-0.082 0.824-0.156 1.156-0.75 1.75-1.139-0.139-1.139-0.139-1.5-0.5-0.031-0.75-0.031-0.75 0-1.5 0.25-0.25 0.25-0.25 0.984-0.297z"></path>
</symbol>
<symbol id="icon-calendar" viewBox="0 0 32 32">
<path d="M2.356 2.628c0.199 0.004 0.398 0.008 0.603 0.012 0.204 0.010 0.408 0.021 0.619 0.032 0.313 0.008 0.313 0.008 0.633 0.017 0.513 0.015 1.026 0.037 1.539 0.061 0.015 0.316 0.030 0.632 0.046 0.958 0.021 0.415 0.042 0.83 0.063 1.245 0.010 0.208 0.020 0.417 0.030 0.631 0.010 0.201 0.021 0.401 0.032 0.608 0.009 0.185 0.018 0.369 0.028 0.559 0.038 0.55 0.038 0.55 0.301 1.248 0.395 0.056 0.791 0.107 1.188 0.156 0.22 0.029 0.441 0.058 0.668 0.088 0.731 0.007 1.059-0.059 1.645-0.494 0.718-1.608 0.718-1.608 0.75-5 3.713 0 7.425 0 11.25 0 0.124 1.856 0.124 1.856 0.25 3.75 0.353 1.206 0.353 1.206 0.959 1.582 0.623 0.194 1.052 0.188 1.697 0.105 0.194-0.022 0.388-0.044 0.588-0.066 0.559-0.087 0.559-0.087 1.006-0.621 0.092-0.508 0.092-0.508 0.104-1.088 0.010-0.213 0.019-0.425 0.029-0.645 0.008-0.222 0.015-0.445 0.023-0.674 0.010-0.224 0.019-0.449 0.029-0.68 0.024-0.555 0.045-1.109 0.064-1.664 0.683-0.034 1.364-0.059 2.047-0.078 0.192-0.010 0.384-0.021 0.583-0.032 0.188-0.004 0.375-0.008 0.569-0.012 0.172-0.007 0.343-0.013 0.52-0.020 0.888 0.237 1.223 0.669 1.782 1.392 0.185 0.86 0.168 1.705 0.158 2.582 0.003 0.389 0.003 0.389 0.005 0.786 0.004 0.857-0.001 1.714-0.006 2.571 0 0.596 0.001 1.191 0.002 1.787 0.001 1.248-0.003 2.495-0.010 3.743-0.009 1.6-0.007 3.201-0.002 4.801 0.003 1.23 0 2.459-0.003 3.689-0.001 0.59-0.001 1.18 0 1.771 0.001 0.824-0.004 1.648-0.011 2.472 0.002 0.367 0.002 0.367 0.005 0.741-0.005 0.337-0.005 0.337-0.010 0.681-0.001 0.195-0.001 0.389-0.002 0.59-0.18 0.765-0.509 1.064-1.127 1.537-0.589 0.126-0.589 0.126-1.252 0.127-0.252 0.003-0.505 0.006-0.765 0.009-0.275-0.002-0.551-0.004-0.834-0.006-0.291 0.002-0.582 0.003-0.882 0.005-0.964 0.004-1.927 0.002-2.891-0.002-0.669 0.001-1.338 0.002-2.006 0.003-1.402 0.002-2.804-0.001-4.207-0.005-1.621-0.005-3.241-0.004-4.862 0.002-1.392 0.005-2.784 0.005-4.176 0.003-0.831-0.002-1.662-0.001-2.493 0.002-0.927 0.003-1.853-0.001-2.779-0.007-0.275 0.002-0.551 0.004-0.834 0.006-0.379-0.004-0.379-0.004-0.765-0.009-0.219-0-0.438-0.001-0.664-0.001-0.8-0.171-1.097-0.482-1.589-1.126-0.127-0.537-0.127-0.537-0.129-1.127-0.003-0.225-0.006-0.449-0.010-0.681 0.002-0.245 0.003-0.489 0.005-0.741-0.002-0.259-0.004-0.518-0.007-0.785-0.006-0.857-0.004-1.714-0.002-2.571-0.001-0.595-0.003-1.191-0.005-1.786-0.003-1.248-0.001-2.496 0.002-3.744 0.004-1.6-0.002-3.2-0.010-4.8-0.006-1.23-0.005-2.459-0.003-3.689 0-0.59-0.002-1.18-0.005-1.77-0.004-0.825-0.001-1.649 0.005-2.474-0.003-0.244-0.006-0.488-0.009-0.74 0.016-1.162 0.038-1.675 0.767-2.619 0.674-0.49 0.94-0.624 1.756-0.595zM2.25 11c0 6.105 0 12.21 0 18.5 9.075 0 18.15 0 27.5 0 0-6.105 0-12.21 0-18.5-9.075 0-18.15 0-27.5 0z"></path>
<path d="M8.507 0.135c0.493 0.115 0.493 0.115 0.893 0.547 0.404 0.657 0.443 1.014 0.441 1.779-0 0.229-0 0.458-0.001 0.694-0.004 0.237-0.008 0.475-0.012 0.72 0.001 0.237 0.002 0.475 0.002 0.72-0.016 2.006-0.016 2.006-0.581 2.905-0.7 0.35-1.226 0.313-2 0.25-0.417-0.29-0.417-0.29-0.75-0.75-0.093-0.651-0.093-0.651-0.091-1.423 0-0.416 0-0.416 0-0.84 0.004-0.29 0.008-0.579 0.012-0.877-0.001-0.291-0.002-0.581-0.002-0.88 0.018-2.759 0.018-2.759 2.087-2.844z"></path>
<path d="M23.743 0.135c1.451 0.060 1.451 0.060 2.007 0.615 0.115 1.032 0.081 2.072 0.078 3.109 0.004 0.29 0.008 0.579 0.012 0.877 0 0.277 0 0.555 0 0.84 0.001 0.255 0.002 0.509 0.002 0.772-0.093 0.651-0.093 0.651-0.427 1.11-0.641 0.448-1.156 0.37-1.916 0.291-0.75-0.5-0.75-0.5-1-1.25-0.064-0.869-0.058-1.739-0.063-2.609-0.008-0.358-0.008-0.358-0.016-0.723-0.001-0.23-0.003-0.461-0.004-0.698-0.002-0.21-0.005-0.42-0.007-0.636 0.13-0.848 0.463-1.496 1.332-1.699z"></path>
<path d="M22.75 23.75c1.402 0 2.805 0 4.25 0 0 1.32 0 2.64 0 4-1.402 0-2.805 0-4.25 0 0-1.32 0-2.64 0-4z"></path>
<path d="M16.75 23.75c1.402 0 2.805 0 4.25 0 0 1.32 0 2.64 0 4-1.402 0-2.805 0-4.25 0 0-1.32 0-2.64 0-4z"></path>
<path d="M10.75 23.75c1.402 0 2.805 0 4.25 0 0 1.32 0 2.64 0 4-1.402 0-2.805 0-4.25 0 0-1.32 0-2.64 0-4z"></path>
<path d="M4.75 23.75c1.402 0 2.805 0 4.25 0 0 1.32 0 2.64 0 4-1.402 0-2.805 0-4.25 0 0-1.32 0-2.64 0-4z"></path>
<path d="M22.75 18.75c1.402 0 2.805 0 4.25 0 0 1.238 0 2.475 0 3.75-1.402 0-2.805 0-4.25 0 0-1.238 0-2.475 0-3.75z"></path>
<path d="M16.75 18.75c1.402 0 2.805 0 4.25 0 0 1.238 0 2.475 0 3.75-1.402 0-2.805 0-4.25 0 0-1.238 0-2.475 0-3.75z"></path>
<path d="M10.75 18.75c1.402 0 2.805 0 4.25 0 0 1.238 0 2.475 0 3.75-1.402 0-2.805 0-4.25 0 0-1.238 0-2.475 0-3.75z"></path>
<path d="M4.75 18.75c1.402 0 2.805 0 4.25 0 0 1.238 0 2.475 0 3.75-1.402 0-2.805 0-4.25 0 0-1.238 0-2.475 0-3.75z"></path>
<path d="M22.75 13.5c1.402 0 2.805 0 4.25 0 0 1.238 0 2.475 0 3.75-1.402 0-2.805 0-4.25 0 0-1.238 0-2.475 0-3.75z"></path>
<path d="M16.75 13.5c1.402 0 2.805 0 4.25 0 0 1.238 0 2.475 0 3.75-1.402 0-2.805 0-4.25 0 0-1.238 0-2.475 0-3.75z"></path>
</symbol>
<symbol id="icon-phone-call" viewBox="0 0 32 32">
<path d="M7.821 2.147c1.052 0.631 1.874 1.447 2.726 2.321 0.226 0.225 0.226 0.225 0.457 0.454 2.084 2.109 2.084 2.109 2.379 3.413-0.027 1.878-0.774 2.818-2.070 4.133-0.27 0.262-0.54 0.523-0.813 0.781 1.019 3.658 4.673 6.322 7.75 8.25 0.789-0.347 1.3-0.751 1.891-1.375 0.863-0.907 1.497-1.453 2.781-1.516 1.615 0.049 2.251 0.767 3.328 1.891 0.294 0.273 0.589 0.545 0.885 0.816 0.32 0.3 0.64 0.601 0.959 0.902 0.155 0.141 0.31 0.282 0.469 0.427 1.095 1.064 1.66 2.049 1.687 3.604-0.401 1.491-1.247 2.395-2.328 3.438-0.209 0.211-0.209 0.211-0.421 0.427-1.565 1.541-2.886 2.038-5.102 2.023-4.932-0.181-9.217-3.395-12.898-6.387-0.131-0.106-0.262-0.212-0.398-0.322-1.088-0.89-1.961-1.848-2.852-2.928-0.104-0.124-0.207-0.248-0.314-0.376-3.396-4.093-6.146-8.542-6.062-14.002 0.342-2.365 2.223-4.131 3.97-5.638 1.277-0.943 2.549-1.028 3.978-0.337zM6 3.75c-1.624 0.916-3.402 2.455-4 4.25-0.604 3.684 1.73 7.591 3.75 10.5 3.806 5.267 9.313 9.942 15.75 11.5 0.661 0.086 0.661 0.086 1.281 0.078 0.303 0.006 0.303 0.006 0.611 0.013 1.399-0.209 2.34-1.226 3.311-2.185 0.126-0.117 0.251-0.235 0.38-0.355 0.536-0.528 0.892-0.893 1.010-1.65-0.187-1.298-1.366-2.111-2.265-2.995-0.204-0.211-0.408-0.422-0.619-0.64-0.199-0.198-0.398-0.396-0.603-0.601-0.182-0.182-0.364-0.364-0.551-0.551-0.536-0.43-0.536-0.43-1.211-0.332-1.068 0.391-1.683 1.321-2.42 2.155-0.84 0.701-1.336 0.808-2.424 0.813-4.149-1.505-7.843-5.935-9.75-9.75-0.101-0.694-0.101-0.694 0-1.5 0.444-0.528 0.846-0.944 1.359-1.391 0.99-0.873 0.99-0.873 1.675-1.992-0.052-0.932-0.513-1.234-1.19-1.852-1.455-1.362-1.455-1.362-2.031-2.125-0.625-0.712-1.195-1.027-2.063-1.391z"></path>
<path d="M17.688-0.078c3.332 0.075 6.987 2.097 9.365 4.358 1.463 1.536 2.584 3.112 3.541 5.001 0.083 0.164 0.167 0.328 0.253 0.498 0.819 1.687 1.27 3.323 1.153 5.221-0.25 0.25-0.25 0.25-0.859 0.297-0.641-0.047-0.641-0.047-1.141-0.547-0.195-0.613-0.374-1.224-0.547-1.844-1.222-4.139-3.622-7.19-7.413-9.302-1.374-0.652-2.757-1.090-4.236-1.436-0.554-0.169-0.554-0.169-1.054-0.669-0.047-0.641-0.047-0.641 0-1.25 0.25-0.25 0.25-0.25 0.938-0.328z"></path>
<path d="M17.453 5.656c2.354 0.053 4.366 1.414 5.999 2.995 1.534 1.677 2.714 3.53 2.86 5.833-0.063 0.766-0.063 0.766-0.313 1.016-0.594 0.094-0.594 0.094-1.25 0-0.466-0.559-0.707-1.127-0.947-1.811-0.846-2.361-2.212-4.052-4.473-5.19-0.924-0.397-1.865-0.718-2.83-0.999-0.011-0.5-0.010-1 0-1.5 0.25-0.25 0.25-0.25 0.953-0.344z"></path>
</symbol>
<symbol id="icon-member" viewBox="0 0 32 32">
<path d="M8.406 1.234c0.306 0.003 0.306 0.003 0.619 0.007 0.157 0.003 0.313 0.006 0.475 0.009 0 0.33 0 0.66 0 1-0.239 0.077-0.239 0.077-0.483 0.155-0.207 0.067-0.413 0.135-0.626 0.204-0.206 0.067-0.412 0.133-0.624 0.202-0.507 0.144-0.507 0.144-0.767 0.438-0.083 0.865-0.083 0.865 0 1.75 0.869 0.579 1.229 0.565 2.256 0.577 0.296 0.006 0.593 0.013 0.898 0.019 0.624 0.009 1.249 0.017 1.873 0.023 0.297 0.007 0.594 0.013 0.9 0.020 0.271 0.003 0.543 0.007 0.823 0.010 0.849 0.114 1.315 0.341 2 0.85 0.5 0.75 0.5 0.75 0.5 1.5 0.165 0 0.33 0 0.5 0-0.265-2.438-0.265-2.438-1.5-4.5-0.999-0.724-1.862-0.899-3.078-1.047-0.314-0.040-0.627-0.079-0.95-0.12-0.238-0.027-0.476-0.055-0.722-0.083 0.082-0.33 0.165-0.66 0.25-1 3.689-0.202 3.689-0.202 5.25 1 1.389 1.3 1.794 2.606 1.875 4.469 0.075 1.419 0.075 1.419 0.438 2.781 0.188 0.75 0.188 0.75-0.063 1.594-0.5 0.656-0.5 0.656-1.297 0.875-0.232 0.010-0.464 0.021-0.703 0.031-0.023 0.333-0.023 0.333-0.047 0.672-0.249 1.017-0.702 1.375-1.453 2.078 0.16 0.006 0.32 0.013 0.484 0.019 0.74 0.029 1.479 0.060 2.219 0.090 0.251 0.010 0.502 0.020 0.761 0.030 4.541 0.19 4.541 0.19 5.895 0.658 0.623 0.276 0.623 0.276 1.125-0.016 0.255-0.139 0.255-0.139 0.516-0.281 0.583-0.019 1.167-0.022 1.75 0 0-0.412 0-0.825 0-1.25 0.33-0.082 0.66-0.165 1-0.25 0.316 1.073 0.157 1.72-0.25 2.75-0.218 0.014-0.218 0.014-0.439 0.028-1.014 0.085-1.701 0.161-2.607 0.659-0.232 0.103-0.464 0.206-0.703 0.313-0.719-0.313-0.719-0.313-1.5-0.75-0.66-0.082-1.32-0.165-2-0.25 0 1.402 0 2.805 0 4.25 1.228-0.013 2.456-0.029 3.683-0.052 0.418-0.007 0.835-0.012 1.253-0.016 0.601-0.005 1.201-0.017 1.802-0.030 0.279-0 0.279-0 0.564-0.001 0.816-0.023 1.368-0.102 2.067-0.535 0.533-0.863 0.505-1.646 0.478-2.628-0.002-0.289-0.002-0.289-0.004-0.584-0.006-0.614-0.018-1.228-0.031-1.842-0.005-0.417-0.010-0.834-0.014-1.251-0.011-1.021-0.028-2.041-0.049-3.062-0.247 0.248-0.247 0.248-0.5 0.5-0.33 0-0.66 0-1 0-0.247 0.742-0.247 0.742-0.5 1.5-0.495-0.124-0.495-0.124-1-0.25 0.124-1.238 0.124-1.238 0.25-2.5-0.33-0.165-0.66-0.33-1-0.5 0-0.165 0-0.33 0-0.5-0.139-0.052-0.278-0.103-0.422-0.156-0.829-0.493-1.291-1.046-1.828-1.844-0.071-0.851 0.060-1.261 0.591-1.928 0.796-0.78 1.188-1.050 2.337-1.165 1.459 0.029 2.233 0.735 3.236 1.72 1.809 2.090 1.504 4.852 1.414 7.46-0.031 0.918-0.036 1.833-0.037 2.751-0.008 0.585-0.018 1.17-0.030 1.755-0.002 0.273-0.005 0.546-0.007 0.828-0.086 2.101-0.086 2.101-0.881 2.877-1.097 0.567-1.883 0.612-3.097 0.573-0.313-0.003-0.313-0.003-0.633-0.005-0.662-0.007-1.324-0.023-1.987-0.039-0.451-0.006-0.902-0.012-1.353-0.017-1.101-0.014-2.203-0.035-3.304-0.061-0.014 0.155-0.027 0.311-0.041 0.471-0.030 0.305-0.030 0.305-0.060 0.616-0.019 0.202-0.038 0.404-0.057 0.611-0.092 0.551-0.092 0.551-0.475 1.158-0.669 1.172-0.486 2.561-0.499 3.883-0.008 0.328-0.008 0.328-0.017 0.662-0.002 0.199-0.004 0.398-0.005 0.603-0.032 0.164-0.064 0.327-0.096 0.496-0.917 0.612-1.363 0.563-2.457 0.565-0.259 0.001-0.259 0.001-0.523 0.003-0.57 0.002-1.14 0.001-1.709-0.001-0.396 0-0.791 0.001-1.187 0.001-0.829 0.001-1.658-0-2.487-0.003-1.064-0.003-2.128-0.001-3.192 0.002-0.817 0.002-1.634 0.001-2.451-0-0.392-0-0.785 0-1.177 0.001-0.548 0.001-1.095-0.001-1.643-0.003-0.312-0-0.624-0.001-0.945-0.001-0.729-0.064-0.729-0.064-1.229-0.564-0.064-0.626-0.105-1.232-0.125-1.859-0.030-1.391-0.030-1.391-0.625-2.641-0.058-0.631-0.058-0.631-0.047-1.344 0.002-0.234 0.003-0.468 0.005-0.709 0.042-0.697 0.042-0.697 0.186-1.363 0.161-0.62 0.161-0.62-0.144-1.334-0.183-1.714-0.051-2.866 1-4.25 0.766-0.563 0.766-0.563 1.5-1 0.111-0.13 0.223-0.26 0.338-0.394 0.576-0.497 0.99-0.463 1.743-0.484 0.257-0.009 0.514-0.018 0.779-0.027 0.268-0.006 0.536-0.011 0.812-0.017 0.271-0.009 0.542-0.017 0.821-0.026 0.669-0.021 1.338-0.038 2.007-0.052-0.199-0.154-0.399-0.309-0.604-0.468-0.617-0.509-0.883-0.792-1.146-1.532 0-0.248 0-0.495 0-0.75-0.191-0.026-0.382-0.052-0.578-0.078-1.016-0.26-1.016-0.26-1.422-0.922-0.098-0.866-0.148-1.704 0.25-2.5 0.006-0.4-0.003-0.8-0.020-1.199-0.006-0.24-0.013-0.48-0.020-0.727-0.016-0.504-0.035-1.008-0.059-1.512-0.044-2.064-0.044-2.064 0.695-2.973 0.847-0.766 1.199-0.871 2.309-0.855zM27.5 5c-0.809 0.56-0.809 0.56-1.5 1.25 0 0.165 0 0.33 0 0.5 0.33 0 0.66 0 1 0 0 0.33 0 0.66 0 1 0.33 0.082 0.66 0.165 1 0.25 0.082 0.33 0.165 0.66 0.25 1 0.33 0 0.66 0 1 0 0 0.33 0 0.66 0 1 0.721-0.323 1.218-0.665 1.75-1.25-0.345-1.052-0.821-1.666-1.609-2.438-0.196-0.195-0.391-0.389-0.593-0.59-0.533-0.521-0.533-0.521-1.298-0.723zM7 6.75c0 0.412 0 0.825 0 1.25 0.165-0.165 0.33-0.33 0.5-0.5 0-0.247 0-0.495 0-0.75-0.165 0-0.33 0-0.5 0zM8.5 7.75c-0.162 0.773-0.127 1.555-0.125 2.344-0.007 0.213-0.014 0.425-0.021 0.645-0.004 1.12 0.029 1.61 0.732 2.521 1.223 0.903 2.447 0.87 3.914 0.74 1.028-0.386 1.389-0.584 2-1.5 0.107-0.835 0.081-1.674 0.078-2.516 0.004-0.231 0.008-0.462 0.012-0.7 0-0.221 0-0.441 0.001-0.668 0.001-0.202 0.002-0.404 0.002-0.612-0.031-0.166-0.061-0.333-0.093-0.504-1.068-0.712-1.995-0.583-3.25-0.578-0.229-0.004-0.458-0.008-0.693-0.012-0.22-0-0.44-0-0.666-0-0.201-0.001-0.402-0.002-0.608-0.002-0.672 0.118-0.888 0.29-1.282 0.843zM6.609 9.375c-0.119 0.124-0.237 0.248-0.359 0.375 0.165 0.33 0.33 0.66 0.5 1 0.165 0 0.33 0 0.5 0 0-0.578 0-1.155 0-1.75-0.31-0.029-0.31-0.029-0.641 0.375zM16.25 9c0 0.578 0 1.155 0 1.75 0.33-0.165 0.66-0.33 1-0.5-0.067-0.496-0.067-0.496-0.25-1-0.247-0.082-0.495-0.165-0.75-0.25zM10.5 15c-0.107 1.162-0.107 1.162 0.281 1.719 0.699 0.419 1.203 0.218 1.969 0.031 0.082-0.578 0.165-1.155 0.25-1.75-0.825 0-1.65 0-2.5 0zM3.75 16.25c-0.083 1.073-0.165 2.145-0.25 3.25-0.248 0.082-0.495 0.165-0.75 0.25-0.083-0.742-0.165-1.485-0.25-2.25-0.762 0.168-0.762 0.168-1.044 0.698-0.22 0.588-0.265 1.005-0.253 1.63 0.004 0.196 0.007 0.393 0.011 0.595 0.030 0.64 0.030 0.64 0.192 1.515 0.103 0.897-0.072 1.248-0.406 2.063 0.078 0.97 0.205 1.432 0.75 2.25 0.074 0.597 0.123 1.197 0.156 1.797 0.019 0.318 0.037 0.636 0.057 0.964 0.012 0.244 0.024 0.488 0.037 0.739 0.578 0 1.155 0 1.75 0 0.027-0.755 0.047-1.51 0.063-2.266 0.008-0.212 0.017-0.424 0.025-0.642 0.024-1.531-0.27-2.309-1.088-3.592-0.152-0.663-0.152-0.663-0.188-1.234-0.014-0.193-0.028-0.386-0.043-0.585-0.010-0.213-0.010-0.213-0.020-0.431 0.33 0.082 0.66 0.165 1 0.25 0.030 0.154 0.061 0.307 0.092 0.466 0.042 0.202 0.084 0.404 0.127 0.612 0.041 0.2 0.081 0.4 0.123 0.606 0.144 0.629 0.144 0.629 0.658 1.315 0.080 0.59 0.080 0.59 0.104 1.276 0.010 0.246 0.019 0.491 0.029 0.745 0.008 0.256 0.015 0.512 0.023 0.776 0.010 0.259 0.019 0.518 0.029 0.785 0.024 0.639 0.045 1.279 0.064 1.918 1.913 0.013 3.827 0.021 5.74 0.027 0.651 0.003 1.303 0.006 1.954 0.010 0.935 0.006 1.869 0.009 2.804 0.011 0.439 0.004 0.439 0.004 0.887 0.008 0.405 0 0.405 0 0.819 0 0.239 0.001 0.477 0.002 0.723 0.003 0.622-0.005 0.622-0.005 1.073-0.56 0.080-0.516 0.080-0.516 0.077-1.107 0.006-0.219 0.013-0.439 0.019-0.665 0.009-0.462 0.017-0.924 0.023-1.387 0.010-0.33 0.010-0.33 0.020-0.667 0.003-0.201 0.007-0.402 0.010-0.609 0.1-0.565 0.1-0.565 0.477-1.036 0.519-0.735 0.458-1.265 0.446-2.157-0.002-0.313-0.005-0.625-0.007-0.947-0.006-0.326-0.013-0.651-0.019-0.986-0.003-0.329-0.007-0.659-0.010-0.998-0.009-0.813-0.021-1.626-0.037-2.439-0.901-0.036-1.802-0.058-2.703-0.078-0.384-0.016-0.384-0.016-0.776-0.032-0.695-0.011-1.336-0.011-2.021 0.11-0.55 0.57-0.55 0.57-0.75 1.25-0.804 0.582-1.527 0.581-2.5 0.5-0.547-0.172-0.547-0.172-1-0.5-0.075-0.211-0.151-0.423-0.229-0.641-0.453-0.66-0.453-0.66-1.097-0.711-0.744-0.021-1.478-0.007-2.221 0.024-0.259 0.006-0.518 0.011-0.785 0.017-0.64 0.015-1.279 0.037-1.918 0.061z"></path>
<path d="M11.25 22.5c0.641 0.016 0.641 0.016 1.25 0.25 0.102 0.125 0.204 0.25 0.309 0.379 0.662 0.557 1.263 0.501 2.113 0.543 0.442 0.025 0.442 0.025 0.894 0.050 0.226 0.009 0.452 0.019 0.685 0.028 0.141 0.484 0.141 0.484 0.25 1-0.458 0.458-1.166 0.293-1.781 0.297-0.961-0.003-1.808-0.014-2.719-0.328-0.729-0.297-0.729-0.297-1.323 0.016-0.797 0.313-1.403 0.316-2.255 0.297-0.267-0.005-0.534-0.009-0.81-0.014-0.202-0.006-0.404-0.012-0.612-0.018-0.082-0.413-0.165-0.825-0.25-1.25 0.335-0.010 0.335-0.010 0.676-0.020 0.293-0.014 0.585-0.028 0.887-0.043 0.435-0.017 0.435-0.017 0.879-0.035 0.937-0.177 1.189-0.458 1.809-1.152z"></path>
<path d="M10.25 11.25c0.464 0.070 0.464 0.070 0.938 0.141 0.753 0.096 1.338 0.131 2.063-0.141 0.082 0.33 0.165 0.66 0.25 1-0.796 0.603-1.155 0.755-2.172 0.703-0.828-0.203-0.828-0.203-1.328-0.703 0.094-0.531 0.094-0.531 0.25-1z"></path>
<path d="M11.5 19c0.495 0.124 0.495 0.124 1 0.25 0 0.742 0 1.485 0 2.25-0.412-0.082-0.825-0.165-1.25-0.25-0.024-1.538-0.024-1.538 0-2 0.082-0.082 0.165-0.165 0.25-0.25z"></path>
<path d="M24 12.5c0.33 0 0.66 0 1 0 0.031 0.594 0.031 0.594 0 1.25-0.165 0.165-0.33 0.33-0.5 0.5-0.531-0.094-0.531-0.094-1-0.25 0.165-0.495 0.33-0.99 0.5-1.5z"></path>
<path d="M19 12.5c0.33 0 0.66 0 1 0 0.165 0.495 0.33 0.99 0.5 1.5-0.469 0.156-0.469 0.156-1 0.25-0.5-0.5-0.5-0.5-0.531-1.156 0.010-0.196 0.021-0.392 0.031-0.594z"></path>
<path d="M13 8.5c0.248 0.165 0.495 0.33 0.75 0.5-0.082 0.412-0.165 0.825-0.25 1.25-0.33 0-0.66 0-1 0 0-0.495 0-0.99 0-1.5 0.165-0.082 0.33-0.165 0.5-0.25z"></path>
<path d="M21.75 11.75c0.247 0.082 0.495 0.165 0.75 0.25 0 0.495 0 0.99 0 1.5-0.33 0-0.66 0-1 0-0.011-0.5-0.010-1 0-1.5 0.082-0.082 0.165-0.165 0.25-0.25z"></path>
<path d="M10.25 8.5c0.248 0.082 0.495 0.165 0.75 0.25 0 0.495 0 0.99 0 1.5-0.33 0-0.66 0-1 0-0.011-0.5-0.010-1 0-1.5 0.082-0.082 0.165-0.165 0.25-0.25z"></path>
</symbol>
<symbol id="icon-medal" viewBox="0 0 32 32">
<path d="M13.75 0.25c0.124 0.619 0.124 0.619 0.25 1.25-0.398 0.186-0.398 0.186-0.805 0.376-2.949 1.406-5.408 2.784-6.679 5.957-1.090 3.145-0.97 5.906 0.421 8.964 1.137 2.089 2.702 3.399 4.813 4.453 0.253 0.128 0.253 0.128 0.511 0.259 2.34 0.973 5.362 0.815 7.724 0.007 2.432-1.075 4.45-2.993 5.562-5.409 1.073-2.78 1.087-5.661 0.018-8.445-1.373-2.897-3.74-4.652-6.657-5.83-0.656-0.331-0.656-0.331-0.906-1.081 0.082-0.165 0.165-0.33 0.25-0.5 2.933 0.163 5.013 1.663 7 3.75 2.267 2.605 2.989 5.576 2.845 8.962-0.218 2.969-1.444 5.486-3.595 7.538 0.338 0.895 0.738 1.71 1.214 2.54 0.202 0.359 0.202 0.359 0.409 0.726 0.284 0.502 0.57 1.002 0.857 1.502 0.134 0.239 0.268 0.479 0.406 0.725 0.124 0.217 0.248 0.434 0.375 0.658 0.267 0.669 0.245 0.938-0.011 1.599-1.624 0.074-3.156-0.207-4.75-0.5-0.094 0.286-0.188 0.572-0.284 0.866-0.129 0.373-0.258 0.746-0.388 1.118-0.061 0.189-0.122 0.377-0.185 0.572-0.183 0.515-0.356 0.978-0.643 1.444-0.677 0.251-0.677 0.251-1.25 0.25-1.199-1.667-2.182-3.443-3.165-5.242-0.104-0.191-0.209-0.382-0.317-0.579-0.094-0.173-0.188-0.346-0.285-0.524-0.208-0.402-0.208-0.402-0.484-0.656-0.112 0.203-0.225 0.406-0.34 0.616-0.416 0.752-0.832 1.503-1.248 2.255-0.18 0.326-0.361 0.651-0.541 0.977-0.258 0.468-0.517 0.935-0.776 1.402-0.156 0.281-0.312 0.563-0.472 0.853-0.373 0.648-0.373 0.648-0.623 0.898-0.417 0.010-0.833 0.011-1.25 0-0.251-0.656-0.501-1.312-0.75-1.969-0.072-0.187-0.143-0.373-0.217-0.565-0.533-1.409-0.533-1.409-0.533-1.966-0.193 0.054-0.387 0.108-0.586 0.164-1.518 0.406-2.843 0.677-4.414 0.586 0.083-2.006 1.191-3.462 2.218-5.131 0.135-0.226 0.27-0.451 0.409-0.684 0.188-0.305 0.188-0.305 0.38-0.617 0.291-0.55 0.291-0.55 0.177-1.113-0.221-0.548-0.513-0.935-0.887-1.393-1.957-2.547-2.877-5.593-2.547-8.813 0.573-3.414 2.034-6.393 4.89-8.464 0.609-0.375 1.221-0.715 1.86-1.036 0.249-0.127 0.249-0.127 0.503-0.257 0.857-0.403 1.552-0.579 2.497-0.493zM9 21.75c-1.237 2.227-1.237 2.227-2.5 4.5 0.691 0.306 0.691 0.306 1.172 0.141 0.863-0.21 1.691-0.155 2.578-0.141 0.412 0.99 0.825 1.98 1.25 3 0.627-0.627 0.956-1.046 1.37-1.799 0.11-0.199 0.221-0.399 0.334-0.605 0.113-0.207 0.226-0.414 0.342-0.628 0.174-0.314 0.174-0.314 0.351-0.634 0.572-0.872 0.572-0.872 0.852-1.835-0.185-0.040-0.369-0.079-0.56-0.12-1.861-0.428-3.474-1.044-5.19-1.88zM22.75 21.75c-0.223 0.122-0.223 0.122-0.45 0.247-1.561 0.823-3.083 1.352-4.8 1.753 0.383 1.379 1.047 2.505 1.781 3.719 0.117 0.196 0.234 0.392 0.355 0.594 0.287 0.48 0.575 0.959 0.864 1.438 0.502-0.754 0.682-1.304 0.906-2.172 0.113-0.438 0.227-0.877 0.344-1.328 1.32 0.165 2.64 0.33 4 0.5-0.31-0.605-0.623-1.209-0.938-1.813-0.087-0.17-0.174-0.341-0.264-0.517-0.499-0.952-0.977-1.703-1.799-2.421z"></path>
<path d="M20.225 3.185c2.583 1.551 4.244 3.378 5.172 6.272 0.507 2.659 0.166 5.285-1.235 7.604-1.452 2.063-3.415 3.642-5.911 4.189-3.574 0.214-6.113-0.038-8.935-2.435-1.85-1.85-2.798-4.34-2.909-6.94 0.115-2.691 1.159-5.357 3.156-7.203 2.912-2.288 7.237-3.164 10.662-1.487zM9.75 6.75c-1.273 2.091-2.12 4.111-1.635 6.589 0.72 2.732 2.161 4.506 4.575 5.919 1.861 0.872 4.22 0.827 6.148 0.234 2.192-1 3.763-2.491 4.786-4.68 0.735-2.113 0.684-4.425-0.264-6.459-1.275-2.129-2.916-3.738-5.361-4.354-3.205-0.377-6.119 0.185-8.25 2.75z"></path>
<path d="M15.5 5.75c0.578 0.032 0.578 0.032 1.25 0.25 0.391 0.663 0.391 0.663 0.75 1.484 0.634 1.208 0.634 1.208 1.817 1.79 0.878 0.112 0.878 0.112 1.734 0.124 0.346 0.050 0.346 0.050 0.698 0.102 0.347 0.508 0.347 0.508 0.5 1-0.118 0.133-0.235 0.266-0.356 0.402-0.156 0.177-0.311 0.353-0.472 0.535-0.154 0.174-0.307 0.348-0.466 0.527-0.636 0.743-0.636 0.743-1.206 1.535 0.072 0.701 0.072 0.701 0.25 1.5 0.025 0.751 0.015 1.499 0 2.25-1.085-0.090-1.829-0.259-2.781-0.797-0.765-0.422-0.765-0.422-1.625-0.313-0.196 0.119-0.392 0.237-0.594 0.359-0.97 0.525-1.634 0.878-2.75 0.75-0.082-0.082-0.165-0.165-0.25-0.25 0.059-0.444 0.119-0.887 0.181-1.33 0.251-1.786 0.251-1.786-0.423-3.391-0.618-0.581-0.618-0.581-1.281-1.055-0.157-0.156-0.315-0.313-0.477-0.474 0.082-0.412 0.165-0.825 0.25-1.25 1.238-0.165 2.475-0.33 3.75-0.5 0.165-0.495 0.33-0.99 0.5-1.5 0.306-0.604 0.651-1.168 1-1.75zM16 8.25c-0.165 0.278-0.33 0.557-0.5 0.844-0.093 0.157-0.186 0.313-0.281 0.475-0.256 0.425-0.256 0.425-0.219 0.932-0.825 0.082-1.65 0.165-2.5 0.25 0.206 0.186 0.412 0.371 0.625 0.563 0.973 1.135 0.728 2.529 0.625 3.938 0.217-0.124 0.433-0.248 0.656-0.375 1.421-0.632 2.421-0.417 3.844 0.125-0.017-0.16-0.035-0.32-0.053-0.485-0.080-1.279-0.064-2.055 0.803-3.046 0.244-0.245 0.492-0.487 0.75-0.719-0.169-0.013-0.338-0.026-0.512-0.039-1.8-0.229-1.8-0.229-2.377-0.939-0.243-0.501-0.446-0.99-0.611-1.521-0.082 0-0.165 0-0.25 0z"></path>
<path d="M16.141-0.016c0.302 0.008 0.302 0.008 0.609 0.016 0 0.412 0 0.825 0 1.25-0.413 0-0.825 0-1.25 0-0.141-0.484-0.141-0.484-0.25-1 0.25-0.25 0.25-0.25 0.891-0.266z"></path>
</symbol>
<symbol id="icon-gym" viewBox="0 0 32 32">
<path d="M20.25 0c0.33 0 0.66 0 1 0 0 1.32 0 2.64 0 4 0.66 0.082 1.32 0.165 2 0.25 0.021-0.232 0.041-0.464 0.063-0.703 0.188-0.797 0.188-0.797 0.601-1.217 0.758-0.427 1.284-0.42 2.152-0.412 0.3 0.001 0.6 0.003 0.91 0.004 0.469 0.008 0.469 0.008 0.947 0.016 0.473 0.002 0.473 0.002 0.956 0.004 2.334 0.020 2.334 0.020 2.623 0.309 0.025 0.458 0.032 0.917 0.031 1.375 0.001 0.375 0.001 0.375 0.002 0.758-0.033 0.617-0.033 0.617-0.283 0.867-0.716 0.018-1.425 0.023-2.141 0.016-0.202-0.001-0.403-0.002-0.611-0.003-0.5-0.003-0.999-0.007-1.499-0.012 0.017 1.482 0.039 2.963 0.066 4.445 0.008 0.504 0.015 1.008 0.021 1.512 0.008 0.724 0.021 1.448 0.035 2.173 0.002 0.226 0.003 0.452 0.005 0.684 0.005 0.21 0.010 0.42 0.015 0.637 0.003 0.185 0.006 0.37 0.008 0.56 0.126 0.617 0.396 0.819 0.85 1.239 0.088 0.589 0.088 0.589 0.084 1.278 0.005 0.375 0.005 0.375 0.010 0.758 0 0.525-0.002 1.049-0.006 1.574 0.026 1.693 0.193 2.452 1.412 3.639 0.466 1.4 0.465 2.918-0.125 4.281-0.124 0.237-0.247 0.474-0.375 0.719 0.124 0.082 0.247 0.165 0.375 0.25 0.609 0.812 0.454 1.503 0.375 2.5-0.5 0.5-0.5 0.5-1.007 0.562-0.21-0-0.419-0.001-0.635-0.001-0.241 0.001-0.481 0.001-0.729 0.002-0.265-0.002-0.529-0.004-0.802-0.005-0.278 0-0.556 0-0.843 0-0.923-0-1.845-0.004-2.768-0.008-0.638-0.001-1.277-0.002-1.915-0.002-1.511-0.002-3.021-0.006-4.531-0.011-1.719-0.006-3.439-0.008-5.158-0.011-3.537-0.005-7.075-0.014-10.612-0.025-0.293-0.585-0.3-0.973-0.313-1.625-0.006-0.198-0.013-0.397-0.020-0.602 0.027-0.173 0.054-0.345 0.082-0.523 0.725-0.483 0.974-0.575 1.797-0.656 0.315-0.031 0.629-0.062 0.953-0.094-0.115-0.115-0.229-0.231-0.348-0.35-1.638-1.741-2.44-3.365-2.527-5.775 0.085-2.321 0.842-4.009 2.405-5.711 0.467-0.412 0.873-0.632 1.438-0.883 0.832-0.435 0.832-0.435 0.911-1.129 0.051-0.679 0.051-0.679 0.029-1.342 0.030-0.185 0.060-0.37 0.091-0.561 0.505-0.326 0.505-0.326 1-0.5 0-0.495 0-0.99 0-1.5 0.484-0.141 0.484-0.141 1-0.25 0.25 0.25 0.25 0.25 0.266 0.891-0.005 0.201-0.010 0.402-0.016 0.609 0.412 0 0.825 0 1.25 0 0-1.155 0-2.31 0-3.5-0.412 0-0.825 0-1.25 0-0.082 0.33-0.165 0.66-0.25 1-0.33-0.082-0.66-0.165-1-0.25 0-0.248 0-0.495 0-0.75-0.315 0.021-0.629 0.041-0.953 0.063-0.973-0.007-0.973-0.007-1.547-0.438-0.353-0.882-0.387-1.697-0.25-2.625 0.421-0.968 0.789-1.351 1.75-1.75 1.649-0.29 3.351 0.118 4.969 0.438 0.208 0.039 0.416 0.078 0.631 0.119 1.146 0.243 1.943 0.438 2.65 1.444 0.137 0.96 0.136 1.51-0.344 2.359-1.038 0.618-1.963 0.453-3.156 0.391 0 1.238 0 2.475 0 3.75 0.33 0.165 0.66 0.33 1 0.5 0 0.66 0 1.32 0 2 0.242-0.012 0.483-0.023 0.732-0.035 0.488-0.014 0.488-0.014 0.986-0.027 0.319-0.012 0.638-0.023 0.967-0.035 2.232 0.090 4.23 1.421 6.096 2.535 0.215 0.127 0.431 0.253 0.652 0.384 0.523 0.308 1.045 0.618 1.566 0.929 0.045-0.266 0.045-0.266 0.092-0.538 0.042-0.23 0.084-0.46 0.127-0.696 0.041-0.229 0.081-0.458 0.123-0.694 0.052-0.189 0.104-0.377 0.158-0.571 0.165-0.082 0.33-0.165 0.5-0.25 0.082-1.815 0.165-3.63 0.25-5.5 0.33-0.082 0.66-0.165 1-0.25 0.25 0.25 0.25 0.25 0.278 0.783-0.002 0.344-0.002 0.344-0.004 0.694-0.001 0.371-0.001 0.371-0.002 0.749-0.003 0.39-0.003 0.39-0.006 0.789-0.001 0.261-0.002 0.522-0.003 0.791-0.003 0.648-0.007 1.295-0.012 1.943 0.413 0 0.825 0 1.25 0 0-3.465 0-6.93 0-10.5-0.413 0-0.825 0-1.25 0 0 1.155 0 2.31 0 3.5-0.33 0.082-0.66 0.165-1 0.25-0.25-0.25-0.25-0.25-0.274-1.040 0.003-0.322 0.006-0.644 0.009-0.976 0.002-0.323 0.005-0.645 0.007-0.978 0.003-0.25 0.006-0.5 0.009-0.757-0.172 0.014-0.344 0.029-0.52 0.044-0.338 0.017-0.338 0.017-0.683 0.034-0.223 0.014-0.447 0.029-0.677 0.044-0.62-0.122-0.62-0.122-1.072-0.631-0.366-0.91-0.39-1.716-0.36-2.679 0.001-0.171 0.003-0.342 0.004-0.519 0.020-1.255 0.020-1.255 0.309-1.544zM24.75 3.25c-0.082 0.33-0.165 0.66-0.25 1 1.898 0 3.795 0 5.75 0 0-0.33 0-0.66 0-1-1.815 0-3.63 0-5.5 0zM5.203 5.156c-0.57 0.723-0.57 0.723-0.703 1.594 0.273 0.431 0.273 0.431 0.75 0.75 0.693 0.108 0.693 0.108 1.478 0.082 0.289-0.001 0.577-0.003 0.875-0.004 0.301-0.005 0.603-0.010 0.914-0.016 0.454-0.002 0.454-0.002 0.916-0.004 1.453 0.059 1.453 0.059 2.818-0.309-0.082-0.412-0.165-0.825-0.25-1.25-0.997-0.265-1.996-0.512-3-0.75-0.408-0.097-0.408-0.097-0.823-0.196-1.528-0.35-1.528-0.35-2.974 0.103zM6.5 13.25c0 0.495 0 0.99 0 1.5 1.072 0 2.145 0 3.25 0 0-0.495 0-0.99 0-1.5-1.072 0-2.145 0-3.25 0zM3.25 18c-1.452 1.907-1.736 3.62-1.5 6 0.512 1.686 1.465 3.099 3 4 1.376 0.589 2.515 0.86 4.020 0.847 0.191 0.001 0.382 0.003 0.579 0.004 0.624 0.003 1.249 0.001 1.873-0.001 0.437 0 0.874 0.001 1.311 0.002 0.913 0.001 1.825-0 2.738-0.004 1.169-0.004 2.337-0.002 3.505 0.003 0.901 0.003 1.802 0.002 2.703-0 0.431-0 0.862 0 1.293 0.002 0.602 0.002 1.204-0.001 1.805-0.005 0.266 0.002 0.266 0.002 0.537 0.005 1.089-0.014 1.766-0.193 2.637-0.852 0.715-0.863 0.84-1.596 0.874-2.71-0.255-1.11-0.762-1.781-1.672-2.432-0.704-0.43-1.418-0.834-2.14-1.233-0.541-0.306-1.081-0.612-1.622-0.918-0.278-0.156-0.557-0.313-0.843-0.474-0.84-0.479-1.67-0.972-2.498-1.471-0.265-0.159-0.531-0.318-0.804-0.482-0.507-0.304-1.013-0.61-1.517-0.919-2.347-1.395-4.308-1.698-7.011-1.689-0.231-0.004-0.462-0.008-0.701-0.012-2.502-0.002-4.75 0.533-6.565 2.34zM23.5 17c0 0.907 0 1.815 0 2.75 1.073 0.578 2.145 1.155 3.25 1.75 0-1.485 0-2.97 0-4.5-1.073 0-2.145 0-3.25 0zM1.75 30c0 0.33 0 0.66 0 1 8.828 0 17.655 0 26.75 0 0-0.33 0-0.66 0-1-8.828 0-17.655 0-26.75 0z"></path>
<path d="M11.48 17.796c1.304 0.984 1.783 2.175 2.27 3.704 0.104-0.122 0.207-0.243 0.314-0.369 0.732-0.64 1.637-0.489 2.561-0.475 0.29-0.004 0.29-0.004 0.585-0.009 1.417 0.007 1.417 0.007 1.971 0.437 0.487 0.635 0.4 1.14 0.319 1.916-0.247 0.371-0.247 0.371-0.5 0.75-0.485 0.093-0.485 0.093-1.070 0.091-0.21-0-0.421-0-0.638-0-0.22-0.004-0.44-0.008-0.667-0.012-0.33 0.001-0.33 0.001-0.667 0.002-1.641-0.014-1.641-0.014-2.208-0.581-0.098 0.299-0.196 0.598-0.297 0.906-0.605 1.585-1.538 2.719-3.094 3.42-1.598 0.456-3.429 0.461-4.969-0.201-1.183-0.71-2.157-1.802-2.538-3.144-0.071-0.481-0.071-0.481-0.103-1.231 0.33 0 0.66 0 1 0 0.382 0.52 0.382 0.52 0.734 1.203 0.535 1.032 0.957 1.542 2.016 2.047 1.141 0.318 2.053 0.309 3.188-0.031 1.301-0.75 2.107-1.521 2.563-2.969-0.578-0.082-1.155-0.165-1.75-0.25-0.046 0.191-0.093 0.382-0.141 0.578-0.359 0.672-0.359 0.672-1.156 1.156-1.142 0.318-1.635 0.269-2.703-0.234-0.614-0.645-0.969-1.102-1.039-2.008 0.063-0.842 0.221-1.387 0.68-2.102 0.846-0.542 1.607-0.696 2.609-0.641 0.743 0.339 1.176 0.676 1.75 1.25 0 0.247 0 0.495 0 0.75 0.578-0.082 1.155-0.165 1.75-0.25-0.582-1.432-1.091-2.287-2.465-3.038-1.085-0.43-1.969-0.397-3.070-0.037-1.574 0.691-2.257 1.791-2.965 3.325-0.33 0-0.66 0-1 0 0.029-1.616 0.406-2.409 1.523-3.576 2.131-1.895 4.868-1.818 7.207-0.378zM7.031 21.281c-0.351 0.487-0.351 0.487-0.25 1.234 0.155 0.808 0.155 0.808 0.969 1.234 0.655-0.039 0.655-0.039 1.25-0.25 0.082-0.165 0.165-0.33 0.25-0.5-0.742-0.124-0.742-0.124-1.5-0.25 0-0.247 0-0.495 0-0.75 0.495-0.082 0.99-0.165 1.5-0.25-0.165-0.247-0.33-0.495-0.5-0.75-0.714-0.11-1.096-0.092-1.719 0.281zM15 22c0 0.247 0 0.495 0 0.75 1.073 0 2.145 0 3.25 0 0-0.247 0-0.495 0-0.75-1.073 0-2.145 0-3.25 0z"></path>
<path d="M26 23.25c0.701 0.503 1.162 0.87 1.362 1.733 0.049 0.902-0.073 1.439-0.487 2.251-0.84 0.693-1.545 0.843-2.625 0.766-0.905-0.394-1.198-0.672-1.75-1.5-0.197-1.749-0.197-1.749 0.578-2.734 1.040-0.798 1.676-0.864 2.922-0.516zM23.75 24.75c-0.125 0.75-0.125 0.75 0 1.5 0.692 0.579 0.692 0.579 1.406 0.422 0.578-0.115 0.578-0.115 0.844-0.422 0.083-0.739 0.083-0.739 0-1.5-1.003-0.668-1.247-0.668-2.25 0z"></path>
</symbol>
<symbol id="icon-muscle" viewBox="0 0 32 32">
<path d="M11.063 0.968c0.063-0.001 0.126-0.001 0.191-0.002 0.069 0 0.138 0.001 0.209 0.002 0.073-0 0.146-0.001 0.221-0.001 0.241-0.001 0.482-0 0.723 0 0.167-0 0.334-0 0.502-0.001 0.351-0 0.701 0 1.052 0.001 0.405 0.001 0.81 0.001 1.215-0 0.348-0.001 0.696-0.001 1.044-0.001 0.208 0 0.416 0 0.623-0 0.232-0.001 0.463 0 0.695 0.002 0.069-0 0.138-0.001 0.209-0.002 0.095 0.001 0.095 0.001 0.191 0.002 0.055 0 0.11 0 0.166 0 0.201 0.043 0.275 0.119 0.397 0.281 0.029 0.145 0.029 0.145 0.026 0.308-0 0.062-0.001 0.124-0.001 0.188-0.003 0.102-0.003 0.102-0.005 0.205-0.001 0.072-0.002 0.143-0.003 0.217-0.002 0.156-0.004 0.312-0.007 0.468-0.004 0.247-0.006 0.495-0.008 0.742-0.004 0.703-0.010 1.407-0.023 2.11-0.007 0.389-0.011 0.777-0.011 1.166-0 0.205-0.003 0.41-0.008 0.615-0.046 1.045-0.046 1.045 0.433 1.932 0.37 0.374 0.37 0.374 0.858 0.486 0-0.041 0-0.082 0-0.125 0.774-0.476 1.493-0.83 2.428-0.654 0.275 0.069 0.512 0.15 0.755 0.294 0.325 0.175 0.651 0.096 1.004 0.047 0.481-0.052 0.954-0.070 1.438-0.063-0.298-0.992-0.703-1.763-1.438-2.5-0.289 0.058-0.567 0.123-0.844 0.227-0.285 0.095-0.546 0.158-0.844 0.086-0.196-0.118-0.342-0.273-0.5-0.438-0.060-0.059-0.121-0.119-0.182-0.178-0.561-0.549-0.561-0.549-0.587-0.862 0.005-0.409 0.115-0.799 0.218-1.192 0.035-0.132 0.068-0.265 0.1-0.398 0.022-0.085 0.044-0.17 0.066-0.255 0.020-0.076 0.039-0.153 0.059-0.231 0.083-0.22 0.127-0.32 0.324-0.447 0.422-0.077 0.813 0.055 1.209 0.19 0.060 0.020 0.12 0.040 0.182 0.060 0.126 0.042 0.252 0.084 0.378 0.127 0.191 0.064 0.382 0.127 0.573 0.189 0.623 0.206 1.192 0.409 1.72 0.809 0.098 0.069 0.196 0.137 0.294 0.206 1.405 1.022 2.796 2.208 3.817 3.626 0.085 0.118 0.173 0.234 0.261 0.35 0.062 0.083 0.124 0.165 0.187 0.248 0.028 0.037 0.056 0.074 0.085 0.113 0.5 0.68 0.617 1.31 0.544 2.145-0.154 0.691-0.616 1.178-1.188 1.563-0.224 0.142-0.451 0.28-0.678 0.416-0.29 0.174-0.575 0.354-0.857 0.542-1.335 0.888-2.784 1.371-4.401 1.049-0.298-0.069-0.586-0.162-0.876-0.258 0.001 0.038 0.003 0.076 0.004 0.115 0.055 1.835-0.397 3.299-1.659 4.665-0.148 0.149-0.301 0.29-0.458 0.43-1.012 0.908-1.714 2.103-1.825 3.478-0.003 0.040-0.007 0.080-0.010 0.121-0.038 0.884 0.215 1.767 0.764 2.458 1.177 1.516 1.75 3.457 1.684 5.359-0.351 0-0.701 0-1.063 0-0.008-0.128-0.008-0.128-0.016-0.259-0.11-1.534-0.5-3.249-1.532-4.45-0.139-0.166-0.139-0.166-0.139-0.291-2.227 0-4.455 0-6.75 0 0 0.433 0 0.866 0 1.313-0.057 0.328-0.118 0.63-0.205 0.948-0.021 0.082-0.042 0.164-0.063 0.247-0.054 0.212-0.11 0.422-0.166 0.633-0.058 0.217-0.114 0.435-0.17 0.653-0.109 0.423-0.221 0.846-0.333 1.269-0.269 0.063-0.439 0.046-0.707-0.027-0.067-0.018-0.134-0.036-0.202-0.054-0.076-0.021-0.076-0.021-0.153-0.043 0.041-0.436 0.146-0.844 0.26-1.266 0.040-0.152 0.079-0.303 0.119-0.455 0.062-0.236 0.124-0.472 0.188-0.707 0.384-1.421 0.439-2.629 0.244-4.079-0.038-0.285-0.073-0.571-0.108-0.857-0.007-0.056-0.014-0.112-0.021-0.169-0.109-0.877-0.174-1.753-0.198-2.636-0.001-0.047-0.003-0.095-0.004-0.144-0.006-0.233-0.011-0.466-0.015-0.698-0.017-0.922-0.077-1.719-0.738-2.411-0.881-0.94-0.942-2.172-1.039-3.391-0.066 0.001-0.132 0.003-0.2 0.004-0.251 0.005-0.502 0.007-0.753 0.010-0.107 0.001-0.215 0.003-0.322 0.005-1.504 0.030-2.822-0.349-4.1-1.144-0.048-0.030-0.095-0.059-0.145-0.090-0.349-0.217-0.697-0.437-1.043-0.66-0.052-0.034-0.105-0.067-0.159-0.102-0.051-0.033-0.102-0.066-0.154-0.101-0.069-0.045-0.069-0.045-0.14-0.091-0.109-0.081-0.109-0.081-0.171-0.206-0.126-1.874 0.234-3.632 1.063-5.313 0.020-0.041 0.040-0.083 0.061-0.125 0.395-0.804 0.887-1.522 1.501-2.176 0.273-0.296 0.406-0.499 0.493-0.898 0.164-0.68 0.458-1.187 1.058-1.558 0.449-0.229 0.888-0.218 1.383-0.212 0.082-0.001 0.163-0.002 0.247-0.003 0.642 0.003 1.18 0.104 1.661 0.553 0.462 0.514 0.57 1.059 0.553 1.732-0.030 0.524-0.255 0.962-0.645 1.312-0.455 0.342-0.867 0.458-1.43 0.445-0.049-0.001-0.098-0.001-0.148-0.002-0.12-0.001-0.24-0.004-0.359-0.006-0.020 0.050-0.020 0.050-0.040 0.102-0.085 0.148-0.085 0.148-0.254 0.318-0.377 0.376-0.377 0.376-0.532 0.87 0.020 0.345 0.088 0.678 0.173 1.012 0.028 0.135 0.028 0.135 0.028 0.385 0.055-0.010 0.055-0.010 0.11-0.020 0.6-0.088 1.157 0.029 1.66 0.374 0.152 0.12 0.285 0.255 0.417 0.396 0.093 0.062 0.093 0.062 0.188 0.125 0.028-0.020 0.056-0.039 0.085-0.060 0.746-0.497 1.471-0.593 2.352-0.503 0.251 0.053 0.462 0.13 0.688 0.25 0.043 0.022 0.086 0.044 0.13 0.066 0.325 0.185 0.591 0.436 0.864 0.69 0.122 0.121 0.122 0.121 0.256 0.181 0.105-0.061 0.21-0.123 0.313-0.188 0.041 0 0.082 0 0.125 0 0-0.165 0-0.33 0-0.5-0.051 0.003-0.102 0.006-0.155 0.009-0.067 0.002-0.135 0.005-0.204 0.007-0.067 0.003-0.133 0.006-0.202 0.009-0.188-0.024-0.188-0.024-0.325-0.108-0.142-0.208-0.196-0.411-0.266-0.652-0.198-0.693-0.198-0.693-0.715-1.158-0.187-0.086-0.378-0.158-0.571-0.231-0.1-0.201-0.086-0.407-0.063-0.625 0.061-0.16 0.122-0.295 0.203-0.444 0.021-0.040 0.041-0.080 0.063-0.121 0.066-0.126 0.132-0.252 0.199-0.377s0.133-0.251 0.199-0.378c0.041-0.078 0.082-0.156 0.124-0.233 0.132-0.252 0.186-0.477 0.213-0.76-0.050-0.003-0.101-0.005-0.152-0.008-0.466-0.115-0.799-0.405-1.080-0.785-0.24-0.433-0.299-0.798-0.295-1.286-0.001-0.055-0.002-0.111-0.004-0.167 0-0.080 0-0.080 0-0.162-0-0.048-0-0.096-0-0.145 0.073-0.314 0.293-0.416 0.594-0.417zM11.563 2c0.068 0.482 0.068 0.482 0.375 0.813 0.589 0.273 1.232 0.217 1.868 0.219 0.151 0.001 0.303 0.003 0.454 0.005 0.070-0 0.070-0 0.141-0.001 0.319 0.005 0.319 0.005 0.47 0.11 0.101 0.154 0.15 0.315 0.204 0.49 0.021 0.068 0.043 0.136 0.065 0.206 0.024 0.078 0.024 0.078 0.048 0.157 0.045 0.005 0.091 0.011 0.137 0.016 0.405 0.059 0.647 0.115 0.925 0.421 0.18 0.281 0.2 0.483 0.191 0.805-0.017 0.506-0.017 0.506 0.204 0.942 0.273 0.198 0.541 0.315 0.855 0.441 0-1.526 0-3.053 0-4.625-1.959 0-3.919 0-5.938 0zM5.931 2.879c-0.206 0.25-0.268 0.493-0.333 0.805-0.114 0.465-0.245 0.736-0.598 1.066-1.288 1.427-2.14 3.241-2.404 5.147-0.033 0.228-0.033 0.228-0.064 0.352-0.086 0.345-0.132 0.673 0.031 1.001 0.451 0.445 1.066 0.716 1.625 1 0.097 0.054 0.193 0.108 0.289 0.162 1.183 0.66 2.433 0.767 3.76 0.633 0.526-0.029 0.959 0.126 1.445 0.304 0.709 0.255 1.382 0.175 2.069-0.099 0.165 0.268 0.33 0.536 0.5 0.813-0.516 0.387-1.029 0.406-1.66 0.418-0.075 0.002-0.15 0.004-0.227 0.006-0.183 0.005-0.367 0.009-0.55 0.013 0.069 0.966 0.137 1.628 0.799 2.368 0.788 0.901 0.887 1.941 0.909 3.091 0.030 1.45 0.163 2.886 0.331 4.326 0.008 0.066 0.015 0.132 0.023 0.199 0.007 0.059 0.015 0.119 0.022 0.18 0.006 0.052 0.013 0.103 0.019 0.156 0.010 0.117 0.010 0.117 0.084 0.179 0.192 0.006 0.383 0.008 0.575 0.007 0.060 0 0.121 0 0.183 0 0.201-0 0.401-0.001 0.602-0.001 0.139-0 0.277-0 0.416-0 0.366-0 0.731-0.001 1.097-0.002 0.373-0.001 0.746-0.001 1.118-0.001 0.732-0.001 1.464-0.002 2.196-0.003-0.006-0.038-0.011-0.076-0.017-0.115-0.025-0.173-0.050-0.346-0.076-0.518-0.013-0.089-0.013-0.089-0.027-0.18-0.18-1.246 0.057-2.382 0.604-3.511 0.018-0.038 0.036-0.076 0.054-0.114 0.386-0.763 0.976-1.349 1.59-1.927 1.054-0.997 1.612-2.242 1.683-3.697 0.009-0.422 0.006-0.844 0.004-1.266-0-0.114-0.001-0.228-0.001-0.342-0.001-0.277-0.002-0.553-0.003-0.83 0.33 0 0.66 0 1 0 0 0.227 0 0.454 0 0.688 0.113 0.050 0.226 0.099 0.34 0.148 0.095 0.041 0.095 0.041 0.191 0.084 1.005 0.37 2.159 0.312 3.126-0.133 0.62-0.3 1.188-0.684 1.76-1.066 0.134-0.088 0.268-0.173 0.405-0.256 0.697-0.419 0.697-0.419 1.116-1.090 0.011-0.108 0.017-0.216 0.020-0.324 0.002-0.056 0.005-0.113 0.007-0.171-0.066-0.474-0.376-0.849-0.663-1.216-0.036-0.046-0.072-0.093-0.109-0.141-0.278-0.356-0.572-0.692-0.88-1.023-0.072-0.083-0.143-0.166-0.215-0.25-0.417-0.477-0.868-0.905-1.363-1.3-0.11-0.088-0.219-0.178-0.327-0.269-0.141-0.12-0.285-0.236-0.43-0.35-0.071-0.057-0.142-0.114-0.211-0.173-0.984-0.821-2.183-1.121-3.391-1.471-0.042 0.139-0.084 0.279-0.125 0.418-0.023 0.078-0.046 0.155-0.070 0.235-0.047 0.192-0.076 0.339-0.055 0.534 0.107 0.145 0.107 0.145 0.25 0.27 0.070 0.065 0.070 0.065 0.141 0.132 0.054 0.049 0.054 0.049 0.109 0.098 0.107-0.029 0.214-0.057 0.32-0.086 0.063-0.017 0.126-0.034 0.191-0.051 0.181-0.049 0.181-0.049 0.371-0.124 0.26-0.073 0.476-0.113 0.742-0.051 1.348 0.788 1.874 2.333 2.25 3.75 0.526 0.093 0.526 0.093 1.063 0.188-0.041 0.33-0.082 0.66-0.125 1-0.152-0.030-0.304-0.059-0.461-0.090-0.598-0.112-1.173-0.166-1.781-0.172-0.052-0.001-0.104-0.002-0.158-0.002-0.050-0-0.099-0-0.15-0-0.044-0-0.089-0.001-0.135-0.001-0.147 0.018-0.249 0.067-0.377 0.14 0.021 0.036 0.042 0.071 0.064 0.108 0.394 0.715 0.399 1.407 0.311 2.204-0.155-0.051-0.31-0.101-0.465-0.152-0.044-0.014-0.088-0.029-0.134-0.044-0.332-0.11-0.332-0.11-0.401-0.179 0.019-0.122 0.019-0.122 0.039-0.246 0.053-0.442-0.072-0.828-0.313-1.199-0.429-0.528-1.149-0.881-1.82-0.953-0.354 0.038-0.667 0.113-0.941 0.348-0.030 0.037-0.059 0.075-0.090 0.113 0.046 0.067 0.093 0.134 0.141 0.203 0.461 0.755 0.543 1.592 0.381 2.453-0.13 0.433-0.343 0.88-0.646 1.219-0.25 0-0.25 0-0.397-0.123-0.049-0.052-0.099-0.104-0.149-0.158-0.050-0.052-0.1-0.104-0.151-0.158-0.038-0.041-0.075-0.081-0.114-0.123 0.113-0.231 0.239-0.452 0.367-0.674 0.213-0.421 0.212-0.994 0.081-1.439-0.092-0.207-0.198-0.386-0.323-0.574-0.121-0.020-0.121-0.020-0.258-0.016-0.241-0.019-0.36-0.068-0.537-0.232-0.064-0.059-0.064-0.059-0.13-0.12-0.245-0.236-0.488-0.473-0.728-0.714-0.051-0.051-0.102-0.101-0.154-0.153-0.072-0.073-0.072-0.073-0.146-0.147-0.044-0.044-0.087-0.087-0.132-0.132-0.122-0.132-0.166-0.191-0.161-0.373 0.004-0.056 0.009-0.112 0.014-0.17 0.058-0.661 0.058-0.661-0.179-1.247-0.256-0.187-0.544-0.291-0.841-0.395-0.159-0.065-0.261-0.16-0.381-0.281-0.174-0.146-0.245-0.144-0.48-0.139-0.238 0.024-0.463 0.073-0.7 0.12 0-0.33 0-0.66 0-1 0.124-0.041 0.248-0.082 0.375-0.125 0.108-0.142 0.125-0.22 0.124-0.397-0.007-0.049-0.014-0.099-0.022-0.149s-0.014-0.1-0.021-0.151c-0.006-0.038-0.012-0.075-0.018-0.114-0.23 0.031-0.35 0.069-0.5 0.25-0.209-0.092-0.356-0.209-0.52-0.367-0.045-0.042-0.090-0.085-0.136-0.128-0.047-0.064-0.047-0.064-0.094-0.129 0.014-0.056 0.014-0.056 0.029-0.114 0.062-0.192 0.062-0.192-0.154-0.574-0.351 0-0.701 0-1.063 0-0.003 0.109-0.006 0.218-0.010 0.33-0.037 0.439-0.19 0.761-0.401 1.143-0.064 0.12-0.128 0.24-0.192 0.36-0.043 0.078-0.043 0.078-0.086 0.157-0.075 0.139-0.075 0.139-0.062 0.323 0.041 0.011 0.082 0.022 0.124 0.033 0.233 0.085 0.433 0.165 0.566 0.386 0.114 0.25 0.197 0.51 0.275 0.773 0.049 0.166 0.105 0.33 0.16 0.495 0.49 0.032 0.866-0.112 1.321-0.282 0.342-0.122 0.689-0.236 1.054-0.156 0.124 0.101 0.18 0.151 0.212 0.309-0 0.043-0.001 0.085-0.001 0.129 0 0.043 0.001 0.085 0.001 0.129-0.033 0.159-0.089 0.204-0.212 0.309-0.136 0.061-0.136 0.061-0.292 0.114-0.084 0.029-0.084 0.029-0.169 0.058-0.058 0.019-0.116 0.039-0.176 0.058-0.059 0.020-0.118 0.040-0.178 0.061-0.145 0.049-0.29 0.098-0.435 0.146 0 0.062 0 0.124 0 0.188 0.495-0.031 0.495-0.031 1-0.063 0 0.33 0 0.66 0 1-0.209 0.019-0.209 0.019-0.422 0.039-0.583 0.068-1.157 0.288-1.578 0.711-0.038 0.19-0.038 0.19-0.020 0.391 0.010 0.178 0.010 0.178 0.020 0.359-0.33 0-0.66 0-1 0-0.005-0.082-0.010-0.165-0.016-0.25-0.072-0.605-0.398-0.991-0.859-1.375-0.506-0.319-0.976-0.358-1.563-0.313-0.376 0.096-0.761 0.313-1 0.625-0.058 0.324 0.008 0.541 0.188 0.813 0.265 0.294 0.537 0.461 0.938 0.5 0.272 0.009 0.54 0.006 0.813 0 0 0.33 0 0.66 0 1-1.477-0.027-1.477-0.027-1.938-0.313-0.073-0.044-0.073-0.044-0.148-0.090-0.389-0.267-0.63-0.591-0.789-1.035-0.038-0.239-0.062-0.476-0.087-0.717-0.070-0.401-0.285-0.645-0.554-0.936-0.25-0.142-0.511-0.198-0.797-0.223-0.093 0.031-0.093 0.031-0.188 0.063-0.051 0.156-0.051 0.156-0.082 0.344-0.115 0.498-0.305 0.874-0.742 1.156-0.238 0.135-0.444 0.195-0.718 0.207-0.084 0.004-0.084 0.004-0.169 0.008-0.058 0.002-0.116 0.005-0.176 0.007-0.088 0.004-0.088 0.004-0.178 0.008-0.145 0.007-0.29 0.013-0.435 0.019 0-0.33 0-0.66 0-1 0.115 0.004 0.229 0.008 0.348 0.012 0.393 0 0.629-0.059 0.957-0.277 0.204-0.317 0.123-0.708 0.057-1.058-0.008-0.048-0.017-0.095-0.026-0.145-0.027-0.152-0.054-0.303-0.082-0.454-0.31-1.689-0.31-1.689-0.070-2.051 0.055-0.066 0.113-0.131 0.171-0.195 0.046-0.054 0.046-0.054 0.093-0.109 0.065-0.077 0.132-0.153 0.198-0.229 0.178-0.204 0.347-0.416 0.518-0.627 0.034-0.042 0.068-0.083 0.103-0.126 0.261-0.32 0.509-0.647 0.751-0.981 0.107-0.135 0.107-0.135 0.232-0.198 0.459-0.029 0.459-0.029 0.609 0.076 0.102 0.144 0.098 0.23 0.090 0.404-0.003 0.076-0.003 0.076-0.005 0.153-0.002 0.038-0.004 0.077-0.007 0.116 0.263-0.119 0.368-0.237 0.5-0.5 0.051-0.312 0.036-0.55-0.102-0.836-0.305-0.337-0.579-0.459-1.024-0.489-0.765-0.013-0.765-0.013-1.38 0.392z"></path>
<path d="M15.625 11c0.423 0.103 0.753 0.249 1.111 0.499 0.135 0.081 0.135 0.081 0.267 0.021 0.060-0.041 0.060-0.041 0.122-0.083 0.060-0.038 0.060-0.038 0.121-0.076 0.060-0.040 0.060-0.040 0.122-0.080 0.401-0.251 0.64-0.281 1.133-0.281 0 0.351 0 0.701 0 1.063-0.165 0.041-0.33 0.082-0.5 0.125-0.123 0.091-0.123 0.091-0.188 0.188 0.026 0.029 0.052 0.058 0.078 0.088 0.249 0.297 0.445 0.608 0.621 0.951 0.020 0.038 0.040 0.075 0.061 0.114 0.067 0.134 0.123 0.27 0.178 0.41 0.034 0.088 0.034 0.088 0.069 0.178 0.247 0.758 0.218 1.537 0.213 2.328-0.001 0.244 0 0.488 0.002 0.732 0.002 1.522 0.002 1.522-0.284 2.263-0.019 0.050-0.037 0.1-0.056 0.151-0.050 0.123-0.106 0.239-0.166 0.357-0.017 0.037-0.034 0.073-0.051 0.111-0.4 0.796-1.142 1.44-1.769 2.057-0.075 0.075-0.15 0.149-0.225 0.224-0.181 0.18-0.362 0.359-0.544 0.538-0.227-0.106-0.372-0.234-0.547-0.414-0.075-0.077-0.075-0.077-0.151-0.155-0.038-0.039-0.075-0.078-0.114-0.119 0.080-0.177 0.163-0.302 0.303-0.437 0.054-0.052 0.054-0.052 0.109-0.105 0.058-0.055 0.058-0.055 0.118-0.112 0.083-0.081 0.166-0.161 0.248-0.242 0.13-0.126 0.259-0.251 0.39-0.376 1.039-0.995 1.607-1.985 1.651-3.455 0.004-0.251 0.005-0.503 0.005-0.754-0-0.066-0-0.066-0-0.134-0.004-1.24-0.087-2.31-0.887-3.323-0.029-0.040-0.059-0.079-0.089-0.12-0.426-0.543-1.048-0.842-1.661-1.13 0.028-0.108 0.057-0.216 0.086-0.324 0.016-0.060 0.032-0.12 0.048-0.182 0.050-0.17 0.11-0.33 0.178-0.493z"></path>
<path d="M16.188 12.875c0.188 0.181 0.353 0.352 0.488 0.574 0.026 0.042 0.052 0.084 0.079 0.128 0.057 0.111 0.057 0.111 0.057 0.236-0.388 0.274-0.781 0.481-1.25 0.563 0.003 0.075 0.003 0.075 0.007 0.151 0.026 1.052-0.311 1.933-1.007 2.724-0.040 0.047-0.081 0.094-0.122 0.142-0.486 0.527-1.097 0.836-1.753 1.108-0.073-0.143-0.146-0.286-0.219-0.43-0.021-0.041-0.042-0.081-0.063-0.123-0.156-0.308-0.156-0.308-0.156-0.447 0.060-0.030 0.121-0.059 0.183-0.090 0.879-0.441 1.509-0.947 1.883-1.89 0.109-0.337 0.155-0.668 0.184-1.021-0.066 0.002-0.066 0.002-0.133 0.004-0.377 0.007-0.694-0.020-1.055-0.129 0.073-0.371 0.172-0.712 0.313-1.063 0.059 0.010 0.118 0.021 0.179 0.032 0.93 0.148 1.569-0.018 2.384-0.469z"></path>
<path d="M16.5 29c0.33 0 0.66 0 1 0 0 0.66 0 1.32 0 2-0.33 0-0.66 0-1 0 0-0.66 0-1.32 0-2z"></path>
</symbol>
<symbol id="icon-moneyBag" viewBox="0 0 32 32">
<path d="M14.29 1.154c1.558 0.622 2.829 0.251 4.339-0.309 0.982-0.362 2.14-0.589 3.147-0.174 0.053 0.026 0.107 0.052 0.161 0.078 0.056 0.026 0.113 0.052 0.171 0.078 0.672 0.335 1.237 0.838 1.704 1.422 0.041 0.048 0.083 0.096 0.126 0.145 0.041 0.049 0.082 0.098 0.124 0.148 0.037 0.044 0.075 0.088 0.113 0.134 0.101 0.185 0.070 0.245 0.012 0.449-0.080 0.181-0.171 0.356-0.262 0.532-0.040 0.078-0.040 0.078-0.081 0.157-0.087 0.169-0.175 0.338-0.262 0.506-0.060 0.116-0.12 0.233-0.18 0.349-0.148 0.287-0.297 0.574-0.446 0.861-0.115 0.223-0.23 0.445-0.345 0.668-0.365 0.707-0.733 1.413-1.111 2.113 0.057 0.027 0.057 0.027 0.116 0.054 0.416 0.218 0.721 0.696 0.894 1.123 0.164 0.611 0.095 1.264-0.197 1.823-0.29 0.457-0.29 0.457-0.5 0.563 0.054 0.041 0.107 0.082 0.163 0.124 3.245 2.495 5.162 6.317 5.837 10.313 0.014 0.079 0.028 0.158 0.043 0.239 0.343 2.303 0.106 4.826-1.294 6.748-1.027 1.322-2.497 1.974-4.123 2.201-0.434 0.039-0.869 0.034-1.304 0.032-0.125 0-0.25 0.001-0.375 0.001-0.335 0.001-0.671 0.001-1.006-0-0.354-0.001-0.707-0-1.061 0-0.593 0-1.187-0-1.78-0.001-0.683-0.001-1.366-0.001-2.049 0-0.59 0.001-1.179 0.001-1.769 0.001-0.351-0-0.701-0-1.052 0-0.33 0.001-0.66 0-0.99-0.001-0.12-0-0.24-0-0.36 0-1.784 0.008-3.452-0.434-4.78-1.686-1.423-1.415-1.862-3.424-1.868-5.367-0.011-4.163 1.778-8.458 4.707-11.418 0.449-0.439 0.929-0.82 1.438-1.188-0.048-0.047-0.096-0.093-0.146-0.141-0.132-0.136-0.235-0.254-0.335-0.414-0.025-0.039-0.049-0.077-0.075-0.117-0.261-0.53-0.291-1.165-0.136-1.73 0.195-0.493 0.44-0.853 0.878-1.161 0.041 0 0.082 0 0.125 0-0.384-0.849-0.777-1.694-1.177-2.537-0.049-0.103-0.098-0.206-0.147-0.31-0.236-0.499-0.473-0.997-0.716-1.492-0.033-0.067-0.066-0.134-0.099-0.203-0.059-0.12-0.119-0.24-0.179-0.36-0.025-0.052-0.051-0.104-0.077-0.157-0.022-0.044-0.044-0.088-0.067-0.133-0.047-0.151-0.030-0.226 0.024-0.373 0.152-0.22 0.328-0.421 0.5-0.625 0.039-0.048 0.078-0.096 0.118-0.146 1.582-1.891 3.551-1.657 5.61-0.825zM11.063 2.125c-0.057 0.020-0.057 0.020-0.115 0.040-0.451 0.187-0.789 0.563-1.135 0.897 0.332 0.754 0.68 1.499 1.040 2.239 0.391 0.804 0.768 1.615 1.142 2.427 0.042 0.091 0.085 0.181 0.13 0.271 2.557 0 5.115 0 7.75 0 0.407-0.774 0.813-1.549 1.212-2.327 0.239-0.467 0.479-0.932 0.727-1.394 0.038-0.072 0.076-0.144 0.116-0.218 0.071-0.134 0.143-0.268 0.216-0.401 0.031-0.059 0.063-0.118 0.095-0.179 0.028-0.051 0.055-0.102 0.084-0.155 0.059-0.162 0.052-0.231-0.012-0.389-0.394-0.462-0.933-0.804-1.53-0.916-0.808-0.049-1.535 0.267-2.282 0.541-2.078 0.741-3.732 0.519-5.746-0.301-0.559-0.217-1.117-0.351-1.691-0.137zM11.168 9.713c-0.169 0.26-0.194 0.41-0.168 0.724 0.112 0.172 0.191 0.283 0.375 0.375 0.121 0.007 0.243 0.009 0.364 0.010 0.078 0.001 0.155 0.001 0.235 0.002 0.086 0 0.173 0.001 0.259 0.001 0.091 0.001 0.181 0.001 0.272 0.002 0.298 0.002 0.596 0.003 0.894 0.004 0.103 0 0.205 0.001 0.308 0.001 0.427 0.001 0.853 0.003 1.28 0.003 0.612 0.001 1.223 0.003 1.835 0.007 0.43 0.002 0.86 0.004 1.29 0.004 0.257 0 0.514 0.001 0.771 0.003 0.242 0.002 0.483 0.002 0.725 0.002 0.089 0 0.177 0.001 0.266 0.002 0.518 0.032 0.518 0.032 0.959-0.189 0.157-0.242 0.19-0.371 0.168-0.662-0.104-0.218-0.171-0.302-0.375-0.438-0.173-0.019-0.173-0.019-0.372-0.017-0.078-0.001-0.155-0.001-0.235-0.002-0.086-0-0.172-0-0.259-0-0.091-0-0.181-0.001-0.272-0.002-0.246-0.001-0.493-0.002-0.739-0.002-0.154-0-0.308-0.001-0.462-0.001-0.537-0.002-1.074-0.002-1.611-0.003-0.501-0-1.001-0.002-1.502-0.005-0.43-0.002-0.859-0.003-1.289-0.003-0.257-0-0.513-0.001-0.77-0.002-0.241-0.002-0.483-0.002-0.724-0.001-0.089 0-0.177-0-0.266-0.001-0.518-0.031-0.518-0.031-0.958 0.19zM10.063 14c-0.033 0.031-0.067 0.061-0.101 0.093-1.222 1.134-2.149 2.583-2.836 4.095-0.023 0.049-0.045 0.099-0.068 0.149-0.554 1.222-0.979 2.472-1.244 3.788-0.015 0.076-0.015 0.076-0.031 0.154-0.364 1.877-0.332 4.037 0.656 5.721 0.702 1.024 1.687 1.645 2.902 1.891 0.783 0.116 1.574 0.119 2.364 0.118 0.105 0 0.209 0 0.314 0.001 0.281 0.001 0.563 0.001 0.844 0.001 0.177 0 0.353 0 0.53 0 0.618 0.001 1.236 0.001 1.855 0.001 0.573-0 1.145 0.001 1.718 0.002 0.495 0.001 0.989 0.001 1.484 0.001 0.294-0 0.588 0 0.882 0.001 3.091 0.067 3.091 0.067 5.725-1.378 1.193-1.263 1.376-3.054 1.341-4.707-0.020-0.697-0.127-1.374-0.272-2.055-0.011-0.054-0.023-0.109-0.034-0.165-0.582-2.712-1.886-5.307-3.778-7.335-0.047-0.051-0.093-0.102-0.142-0.154-0.949-0.995-2.207-1.786-3.611-1.852-0.135-0.002-0.269-0.003-0.403-0.003-0.051-0-0.101-0-0.153-0.001-0.166-0.001-0.332-0.001-0.498-0.001-0.116-0-0.233-0-0.349-0.001-0.244-0-0.487-0.001-0.731-0-0.31 0-0.621-0.001-0.931-0.002-0.241-0.001-0.481-0.001-0.721-0.001-0.114-0-0.229-0-0.343-0.001-1.739-0.007-3.089 0.455-4.367 1.64z"></path>
<path d="M15.188 15.688c0.516 0 1.031 0 1.563 0 0 0.454 0 0.907 0 1.375 0.206 0.062 0.413 0.124 0.625 0.188 0.705 0.343 1.223 0.891 1.5 1.625 0.081 0.296 0.125 0.568 0.125 0.875-0.516 0-1.031 0-1.563 0-0.082-0.206-0.165-0.413-0.25-0.625-0.363-0.37-0.649-0.518-1.176-0.523-0.43 0.007-0.728 0.066-1.044 0.363-0.199 0.221-0.346 0.431-0.34 0.734 0.022 0.254 0.054 0.455 0.185 0.677 0.485 0.302 1.036 0.391 1.586 0.517 0.874 0.207 1.778 0.501 2.289 1.296 0.364 0.788 0.404 1.557 0.125 2.375-0.342 0.752-0.918 1.272-1.688 1.563-0.124 0.021-0.247 0.041-0.375 0.063 0 0.454 0 0.907 0 1.375-0.516 0-1.031 0-1.563 0 0-0.454 0-0.907 0-1.375-0.206-0.062-0.412-0.124-0.625-0.188-0.698-0.347-1.152-0.91-1.438-1.625-0.086-0.278-0.125-0.521-0.125-0.813 0.516 0 1.031 0 1.563 0 0.082 0.186 0.165 0.371 0.25 0.563 0.244 0.296 0.552 0.506 0.938 0.563 0.464 0.031 0.849-0.048 1.242-0.305 0.264-0.264 0.357-0.498 0.387-0.865-0.007-0.236-0.073-0.376-0.192-0.58-0.399-0.355-1.021-0.429-1.528-0.551-0.925-0.223-1.804-0.452-2.331-1.306-0.378-0.695-0.416-1.447-0.209-2.203 0.235-0.656 0.706-1.208 1.317-1.543 0.226-0.105 0.452-0.194 0.689-0.273 0.021-0.454 0.041-0.907 0.063-1.375z"></path>
</symbol>
<symbol id="icon-dumbbell" viewBox="0 0 32 32">
<path d="M27.183 5.462c0.417 0.123 0.63 0.625 0.825 0.98 0.487 0.925 0.7 1.861 0.687 2.904-0.002 0.189-0.002 0.378-0.002 0.568 0 0.351-0.001 0.701-0.006 1.051-0.039 1.549-0.039 1.549 0.625 2.91 0.095 0.188 0.169 0.379 0.238 0.578 0.017 0.049 0.035 0.099 0.053 0.15 0.719 2.125 0.518 4.331-0.432 6.342-0.279 0.542-0.638 1.16-1.109 1.555-0.172 0.046-0.326 0.034-0.5 0-0.156-0.094-0.156-0.094-0.25-0.25-0.050-0.215-0.061-0.295 0-0.5 0.123-0.187 0.261-0.359 0.401-0.534 1.051-1.358 1.4-3.201 1.192-4.878-0.27-1.83-1.249-3.456-2.71-4.584-0.802-0.591-1.722-0.992-2.696-1.191-0.055-0.012-0.11-0.024-0.167-0.036-1.896-0.241-3.779 0.252-5.299 1.408-0.272 0.22-0.533 0.447-0.784 0.691-0.076 0.074-0.076 0.074-0.154 0.149-1.153 1.189-1.75 2.771-1.807 4.414 0.030 0.883 0.219 1.735 0.539 2.556 0.046 0.129 0.077 0.256 0.107 0.39 0.081 0.263 0.143 0.465 0.377 0.617 0.5 0.147 1.028 0.162 1.547 0.177 0.217 0.011 0.427 0.039 0.641 0.073 0.001-0.084 0.001-0.084 0.002-0.17 0.003-0.21 0.007-0.42 0.011-0.63 0.002-0.091 0.003-0.181 0.004-0.272 0.006-0.572 0.017-1.028 0.398-1.49 0.033-0.027 0.066-0.055 0.101-0.083 0.033-0.028 0.065-0.056 0.099-0.085 0.47-0.287 0.904-0.299 1.442-0.297 0.077-0 0.154-0.001 0.233-0.001 0.162-0 0.324-0 0.486 0 0.247 0.001 0.493-0.001 0.74-0.003 0.158-0 0.316-0 0.474 0 0.11-0.001 0.11-0.001 0.222-0.002 0.513 0.004 0.96 0.081 1.376 0.397 0.342 0.415 0.488 0.783 0.475 1.323 0.052-0.002 0.104-0.004 0.158-0.007 0.554-0.013 1.084 0.003 1.509 0.407 0.476 0.567 0.442 1.185 0.438 1.885 0 0.113 0 0.225 0.001 0.338 0 0.235-0 0.47-0.002 0.705-0.002 0.3-0.001 0.599 0.001 0.899 0.001 0.232 0.001 0.464-0 0.696-0 0.11 0 0.221 0.001 0.331 0.006 1.153 0.006 1.153-0.355 1.621-0.411 0.399-0.802 0.505-1.371 0.508-0.126-0.002-0.253-0.004-0.379-0.008-0.001 0.044-0.002 0.088-0.003 0.133-0.027 0.543-0.166 0.848-0.548 1.23-0.489 0.336-0.927 0.353-1.505 0.351-0.077 0-0.154 0.001-0.233 0.001-0.162 0-0.324 0-0.486-0-0.247-0.001-0.493 0.001-0.74 0.003-0.158 0-0.316 0-0.474-0-0.11 0.001-0.11 0.001-0.222 0.002-0.513-0.004-0.97-0.076-1.378-0.406-0.032-0.041-0.064-0.081-0.098-0.123-0.034-0.041-0.067-0.081-0.102-0.123-0.206-0.315-0.228-0.597-0.223-0.966 0-0.074 0-0.074 0.001-0.15 0.001-0.157 0.002-0.315 0.004-0.472 0.001-0.107 0.001-0.214 0.002-0.321 0.001-0.262 0.004-0.523 0.006-0.785-0.114 0.018-0.114 0.018-0.23 0.037-5.712 0.882-5.712 0.882-7.27 0.026-0.151-0.181-0.189-0.27-0.18-0.508 0.055-0.182 0.093-0.254 0.242-0.367 0.201-0.101 0.417-0.053 0.637-0.039 0.108 0.006 0.216 0.013 0.323 0.019 0.086 0.005 0.086 0.005 0.173 0.010 0.307 0.017 0.614 0.032 0.921 0.045 0.057 0.003 0.114 0.005 0.173 0.008 0.794 0.035 1.582 0.014 2.374-0.032 0.047-0.003 0.094-0.005 0.143-0.008 0.903-0.052 1.795-0.145 2.693-0.254 0-0.763 0-1.526 0-2.313-0.289-0.021-0.578-0.041-0.875-0.063-0.239-0.024-0.477-0.050-0.715-0.078-0.859-0.096-1.723-0.124-2.586-0.125-0.071-0-0.071-0-0.143-0-0.983-0.001-1.956 0.074-2.934 0.169-0.415 0.040-0.831 0.070-1.247 0.097 0.002 0.057 0.003 0.114 0.005 0.173 0.005 0.213 0.009 0.425 0.012 0.638 0.002 0.092 0.004 0.184 0.006 0.276 0.004 0.132 0.006 0.265 0.007 0.397 0.002 0.080 0.003 0.159 0.005 0.241-0.045 0.27-0.134 0.36-0.348 0.526-0.223 0.035-0.223 0.035-0.438 0-0.192-0.14-0.244-0.214-0.282-0.451-0-0.080-0-0.159-0.001-0.241-0.001-0.066-0.001-0.066-0.001-0.133-0.001-0.145-0.001-0.291-0-0.436-0.001-0.101-0.001-0.202-0.002-0.304-0.002-0.266-0.003-0.533-0.003-0.799-0.001-0.426-0.003-0.852-0.006-1.278-0.001-0.149-0.001-0.297-0.001-0.446-0-0.091-0.001-0.183-0.001-0.274-0-0.080-0-0.159-0-0.241-0.015-0.203-0.046-0.342-0.141-0.522-0.158-0.079-0.269-0.071-0.446-0.072-0.067-0-0.134-0.001-0.203-0.001-0.073-0-0.145-0-0.22-0s-0.149-0-0.225-0.001c-0.157-0-0.315-0-0.472-0-0.241-0-0.483-0.001-0.724-0.002-0.153-0-0.305-0-0.458-0-0.072-0-0.145-0.001-0.22-0.001-0.067 0-0.134 0-0.204 0.001-0.089-0-0.089-0-0.179-0-0.166 0.005-0.166 0.005-0.337 0.14-0.071 0.189-0.071 0.372-0.071 0.572-0 0.065-0.001 0.13-0.001 0.197 0 0.071 0 0.142 0 0.215-0 0.075-0 0.15-0.001 0.228-0 0.206-0.001 0.412-0.001 0.617-0 0.129-0 0.257-0 0.386-0.001 0.449-0.001 0.898-0.001 1.347 0 0.418-0.001 0.837-0.002 1.255-0.001 0.359-0.001 0.719-0.001 1.078 0 0.215-0 0.429-0.001 0.644-0.001 0.239-0 0.479-0 0.718-0 0.071-0.001 0.142-0.001 0.215 0 0.065 0.001 0.131 0.001 0.198-0 0.057-0 0.113-0 0.171 0.017 0.178 0.061 0.311 0.141 0.471 0.158 0.079 0.269 0.071 0.446 0.072 0.1 0.001 0.1 0.001 0.203 0.001 0.109 0 0.109 0 0.22 0 0.074 0 0.149 0 0.225 0.001 0.157 0 0.315 0 0.472 0 0.241 0 0.483 0.001 0.724 0.002 0.153 0 0.305 0 0.458 0 0.072 0 0.145 0.001 0.22 0.001 0.067-0 0.134-0 0.204-0.001 0.089 0 0.089 0 0.179 0 0.166-0.005 0.166-0.005 0.337-0.14 0.080-0.206 0.071-0.416 0.073-0.635 0.002-0.111 0.002-0.111 0.005-0.225 0.003-0.156 0.005-0.312 0.006-0.468 0.002-0.074 0.003-0.148 0.005-0.225 0.001-0.068 0.002-0.136 0.003-0.205 0.041-0.221 0.106-0.295 0.283-0.429 0.215-0.035 0.215-0.035 0.438 0 0.208 0.163 0.302 0.255 0.351 0.518-0 0.076-0.001 0.153-0.001 0.231 0 0.041 0 0.083 0 0.125-0 0.087-0.001 0.174-0.003 0.262-0.003 0.132-0.003 0.264-0.002 0.396-0.003 0.549-0.044 0.957-0.356 1.421-0.337 0.329-0.733 0.491-1.203 0.494-0.069 0.001-0.139 0.001-0.211 0.002-0.075 0-0.15 0.001-0.228 0.001-0.116 0.001-0.116 0.001-0.235 0.001-0.164 0.001-0.328 0.001-0.493 0.001-0.168 0-0.335 0.001-0.503 0.003-0.242 0.002-0.484 0.003-0.727 0.003-0.074 0.001-0.149 0.002-0.226 0.002-0.496-0.001-0.909-0.054-1.336-0.316-0.254-0.261-0.506-0.599-0.522-0.973 0.001-0.050 0.001-0.1 0.002-0.152 0.001-0.050 0.001-0.101 0.002-0.153 0.001-0.038 0.001-0.077 0.002-0.116-0.056 0.003-0.112 0.006-0.169 0.009-0.553 0.017-1.033 0.007-1.462-0.376-0.349-0.379-0.45-0.69-0.45-1.205-0-0.050-0.001-0.101-0.001-0.153-0.001-0.166-0.001-0.333-0.002-0.499-0-0.116-0.001-0.232-0.001-0.348-0.001-0.243-0.001-0.486-0.001-0.73 0-0.311-0.002-0.622-0.004-0.932-0.001-0.24-0.002-0.479-0.002-0.719-0-0.115-0.001-0.229-0.002-0.344-0.001-0.161-0.001-0.321-0-0.482-0.001-0.047-0.001-0.094-0.002-0.142 0.005-0.395 0.133-0.711 0.385-1.016 0.544-0.448 1.013-0.465 1.71-0.438-0.003-0.035-0.006-0.070-0.009-0.105-0.022-0.475 0.1-0.779 0.415-1.133 0.052-0.045 0.103-0.090 0.156-0.137 0.039-0.035 0.077-0.070 0.117-0.105 0.42-0.26 0.895-0.227 1.373-0.228 0.077-0 0.154-0.001 0.234-0.001 0.163-0.001 0.325-0.001 0.488-0.001 0.248-0 0.496-0.003 0.744-0.005 0.159-0 0.317-0.001 0.476-0.001 0.074-0.001 0.147-0.002 0.223-0.003 0.569 0.003 1.056 0.117 1.471 0.532 0.26 0.377 0.321 0.671 0.319 1.122-0 0.062-0 0.062-0 0.125-0 0.131-0.001 0.262-0.002 0.393-0 0.089-0.001 0.178-0.001 0.268-0.001 0.218-0.002 0.436-0.003 0.654 0.113-0.028 0.113-0.028 0.228-0.056 1.555-0.343 3.19-0.28 4.772-0.256-0.025-0.058-0.051-0.116-0.077-0.176-0.034-0.078-0.068-0.156-0.102-0.234-0.017-0.038-0.033-0.076-0.051-0.115-0.683-1.578-0.725-3.454-0.271-5.1 0.011-0.041 0.021-0.082 0.032-0.124 0.443-1.656 1.55-3.103 2.905-4.126 0.059-0.022 0.117-0.044 0.178-0.067 0.148-0.106 0.148-0.106 0.155-0.259 0.001-0.188-0.006-0.373-0.016-0.56-0.027-1.032 0.166-1.825 0.758-2.688 0.981-0.981 2.19-1.238 3.528-1.238 1.283 0.013 2.54 0.166 3.507 1.096 0.548 0.601 0.917 1.427 0.885 2.253-0.004 0.059-0.008 0.118-0.012 0.178-0.070 0.679-0.070 0.679 0.156 1.29 0.178 0.124 0.356 0.212 0.55 0.308 0.078 0.063 0.155 0.127 0.231 0.193 0.058 0.051 0.058 0.051 0.118 0.103 0.029 0.026 0.059 0.052 0.089 0.079 0.005-0.366 0.008-0.731 0.010-1.097 0.001-0.124 0.002-0.248 0.004-0.372 0.012-0.918-0.020-1.774-0.37-2.637-0.015-0.038-0.031-0.076-0.047-0.116-0.116-0.271-0.263-0.504-0.434-0.744-0.261-0.372-0.261-0.372-0.273-0.629 0.047-0.219 0.047-0.219 0.141-0.375 0.177-0.106 0.32-0.145 0.527-0.132zM19.383 7.988c-0.308 0.378-0.518 0.838-0.514 1.331 0 0.047 0 0.094 0.001 0.143s0.001 0.097 0.002 0.147c0 0.050 0.001 0.099 0.001 0.15 0.001 0.122 0.002 0.244 0.003 0.365 0.064-0.024 0.127-0.048 0.193-0.073 0.889-0.33 1.792-0.583 2.745-0.614 0.087-0.004 0.087-0.004 0.175-0.008 1.018-0.023 2.13 0.131 3.067 0.549 0.189 0.096 0.189 0.096 0.383 0.084 0.132-0.639-0.012-1.266-0.324-1.832-0.39-0.577-0.971-0.896-1.641-1.050-0.419-0.079-0.837-0.080-1.262-0.079-0.041 0-0.083 0-0.126 0-1.011 0.004-1.972 0.113-2.703 0.887zM19.668 19.173c-0.165 0.314-0.141 0.617-0.138 0.966-0 0.078-0.001 0.155-0.001 0.235-0.001 0.212-0.001 0.425 0 0.637 0.001 0.222 0 0.445-0 0.667-0 0.373 0 0.747 0.001 1.12 0.001 0.431 0.001 0.863-0 1.294-0.001 0.371-0.001 0.742-0.001 1.112 0 0.221 0 0.443-0 0.664-0.001 0.247 0 0.493 0.002 0.74-0 0.073-0.001 0.146-0.002 0.222 0.004 0.388 0.004 0.388 0.14 0.745 0.176 0.135 0.264 0.15 0.484 0.15 0.068 0.001 0.136 0.002 0.206 0.002 0.073-0.001 0.146-0.002 0.222-0.003 0.075 0 0.151 0 0.228 0 0.159-0 0.319-0.001 0.478-0.002 0.244-0.002 0.488-0.001 0.732-0 0.155-0 0.309-0.001 0.464-0.002 0.073 0 0.146 0.001 0.222 0.001 0.102-0.002 0.102-0.002 0.206-0.003 0.060-0 0.119-0.001 0.181-0.001 0.209-0.042 0.283-0.112 0.409-0.282 0.036-0.151 0.036-0.151 0.030-0.317 0-0.063 0.001-0.126 0.001-0.191-0.001-0.068-0.001-0.135-0.002-0.205 0-0.070 0.001-0.14 0.001-0.212 0.001-0.223 0.001-0.446 0.001-0.669-0.001-0.294 0-0.587 0.002-0.881-0.001-0.068-0.001-0.135-0.002-0.205 0-0.063 0.001-0.126 0.001-0.191-0-0.055-0-0.111-0.001-0.168 0.041-0.199 0.123-0.274 0.281-0.399 0.216-0.031 0.329-0.026 0.52 0.082 0.194 0.194 0.179 0.407 0.188 0.667 0.003 0.073 0.005 0.145 0.008 0.22 0.002 0.076 0.005 0.152 0.007 0.23 0.003 0.077 0.005 0.153 0.008 0.232 0.007 0.189 0.013 0.379 0.019 0.568 0.12 0.005 0.24 0.009 0.359 0.012 0.067 0.002 0.133 0.004 0.202 0.007 0.21-0.020 0.291-0.058 0.438-0.206 0.072-0.217 0.071-0.388 0.073-0.617 0-0.043 0.001-0.087 0.001-0.132 0.001-0.144 0.001-0.287 0.002-0.431 0-0.1 0.001-0.2 0.001-0.3 0.001-0.209 0.001-0.419 0.001-0.628 0-0.268 0.002-0.536 0.004-0.804 0.001-0.206 0.002-0.413 0.002-0.619 0-0.099 0.001-0.198 0.002-0.296 0.001-0.138 0.001-0.277 0.001-0.415 0-0.079 0-0.157 0.001-0.238-0.027-0.242-0.1-0.409-0.273-0.582-0.137-0.005-0.273-0.005-0.41-0.004-0.075 0.001-0.15 0.001-0.227 0.002-0.087 0.001-0.087 0.001-0.176 0.002-0.001 0.051-0.002 0.103-0.004 0.156-0.006 0.233-0.013 0.467-0.020 0.7-0.002 0.081-0.004 0.162-0.006 0.245-0.002 0.078-0.005 0.156-0.007 0.236-0.003 0.108-0.003 0.108-0.006 0.217-0.020 0.195-0.056 0.335-0.145 0.509-0.194 0.097-0.414 0.108-0.625 0.063-0.179-0.19-0.211-0.321-0.211-0.579-0-0.066-0.001-0.131-0.001-0.198 0-0.070 0.001-0.141 0.001-0.213-0.001-0.149-0.002-0.298-0.003-0.447-0.001-0.235-0.001-0.47-0.001-0.705-0-0.227-0.002-0.453-0.004-0.68 0-0.070 0.001-0.141 0.002-0.213-0.001-0.098-0.001-0.098-0.002-0.198 0-0.058 0-0.115 0-0.174-0.042-0.207-0.112-0.28-0.281-0.404-0.161-0.038-0.161-0.038-0.34-0.033-0.068-0.001-0.136-0.002-0.206-0.003-0.073 0-0.146 0.001-0.222 0.001s-0.151-0.001-0.228-0.001c-0.159-0-0.319-0-0.478 0.001-0.244 0.001-0.488-0.001-0.732-0.004-0.155-0-0.309 0-0.464 0-0.073-0.001-0.146-0.002-0.222-0.003-0.102 0.001-0.102 0.001-0.206 0.002-0.090 0-0.090 0-0.181 0-0.167 0.030-0.167 0.030-0.303 0.15zM3.25 20.75c-0.262 0.254-0.262 0.254-0.284 0.58 0.001 0.043 0.001 0.086 0.002 0.131-0 0.046-0.001 0.092-0.001 0.139-0.001 0.152-0 0.303 0 0.455-0 0.106-0 0.211-0.001 0.317-0 0.221 0 0.442 0.001 0.663 0.001 0.283 0.001 0.567-0.001 0.85-0.001 0.218-0.001 0.436 0 0.654 0 0.104-0 0.209-0.001 0.313-0.001 0.146 0 0.292 0.002 0.438-0.001 0.043-0.001 0.086-0.002 0.131 0.006 0.316 0.039 0.335 0.284 0.58 0.268 0 0.536 0 0.813 0 0-1.732 0-3.465 0-5.25-0.268 0-0.536 0-0.813 0z"></path>
<path d="M25.688 4.063c0.167 0.148 0.24 0.22 0.309 0.434 0.005 0.232-0.039 0.324-0.184 0.504-0.157 0.119-0.227 0.127-0.425 0.107-0.209-0.047-0.358-0.117-0.544-0.22-0.809-0.419-1.629-0.524-2.528-0.527-0.126-0.001-0.252-0.003-0.378-0.005-1.497-0.006-2.772 0.497-3.875 1.52-1.112 1.204-1.408 2.626-1.398 4.209 0.001 0.135-0.001 0.27-0.002 0.405 0 0.079 0 0.158 0.001 0.239-0.048 0.266-0.141 0.358-0.351 0.522-0.233 0.044-0.335 0.023-0.54-0.095-0.201-0.212-0.191-0.396-0.186-0.673-0-0.051-0-0.102-0-0.155 0-0.109 0.001-0.217 0.002-0.326 0.002-0.162 0.001-0.324 0-0.486 0.002-1.87 0.676-3.339 1.99-4.657 1.963-1.844 5.815-2.289 8.109-0.797z"></path>
<path d="M21.527 11.605c0.13 0.192 0.135 0.292 0.098 0.52-0.185 0.299-0.383 0.379-0.711 0.461-0.774 0.22-1.438 0.559-2.039 1.102-0.043 0.037-0.086 0.074-0.13 0.112-0.925 0.852-1.379 2.086-1.456 3.318-0.018 0.22-0.038 0.318-0.148 0.516-0.161 0.134-0.244 0.175-0.453 0.18-0.238-0.067-0.297-0.102-0.438-0.313-0.141-1.429 0.369-2.826 1.242-3.949 0.68-0.814 2.845-2.77 4.035-1.945z"></path>
</symbol>
</defs>
</svg>
