<?xml version="1.0" standalone="no"?>
<!DOCTYPE svg PUBLIC "-//W3C//DTD SVG 20010904//EN"
 "http://www.w3.org/TR/2001/REC-SVG-20010904/DTD/svg10.dtd">
<svg version="1.0" xmlns="http://www.w3.org/2000/svg"
 width="1080.000000pt" height="1080.000000pt" viewBox="0 0 1080.000000 1080.000000"
 preserveAspectRatio="xMidYMid meet">

<g transform="translate(0.000000,1080.000000) scale(0.100000,-0.100000)"
fill="#000000" stroke="none">
<path d="M2698 10793 c1486 -2 3918 -2 5405 0 1486 1 270 2 -2703 2 -2973 0
-4189 -1 -2702 -2z"/>
<path d="M1557 6583 c-9 -15 -177 -464 -177 -474 0 -5 288 -9 746 -9 748 0
774 -1 796 -34 17 -24 5 -65 -69 -238 -56 -130 -84 -185 -102 -197 -23 -14
-103 -17 -774 -21 l-749 -5 -63 -150 c-35 -82 -124 -296 -199 -474 -75 -178
-136 -330 -136 -338 0 -12 39 -14 268 -11 251 3 269 4 307 25 22 11 50 32 61
45 12 12 57 106 100 208 42 102 82 190 88 197 8 8 165 13 556 18 611 7 625 8
796 82 208 90 378 243 455 408 82 178 221 524 230 573 27 143 -42 277 -179
346 -109 55 -125 56 -1076 56 -481 0 -877 -3 -879 -7z"/>
<path d="M3887 6273 c-4 -3 -7 -81 -7 -173 l0 -166 -104 -245 c-56 -134 -126
-298 -154 -364 -29 -66 -105 -246 -170 -400 l-119 -280 789 -3 c766 -2 790 -2
827 18 46 23 80 61 103 115 89 207 148 347 148 350 0 3 -228 5 -506 5 -478 0
-506 1 -501 18 3 9 59 143 125 297 200 469 352 828 352 831 0 7 -777 4 -783
-3z"/>
<path d="M5727 6273 c-4 -3 -7 -82 -7 -174 l0 -168 -79 -183 c-212 -493 -291
-688 -302 -737 -34 -162 50 -298 221 -357 52 -18 91 -19 650 -19 l595 0 75 23
c198 62 383 195 465 337 25 42 545 1260 545 1276 0 5 -112 9 -248 9 -196 0
-260 -3 -301 -16 -98 -29 -100 -34 -343 -604 -120 -283 -226 -521 -235 -527
-13 -10 -107 -13 -390 -13 -205 0 -373 2 -373 5 0 3 11 27 24 53 23 45 120
272 320 744 60 143 96 241 96 263 0 38 -24 69 -66 85 -28 11 -637 14 -647 3z"/>
<path d="M8500 6265 c-161 -32 -322 -120 -443 -241 -73 -73 -132 -178 -177
-314 -70 -208 34 -378 259 -426 51 -10 166 -14 503 -14 l437 0 -33 -74 c-17
-41 -38 -81 -45 -90 -11 -13 -83 -16 -629 -18 -610 -3 -617 -3 -657 -25 -22
-11 -50 -32 -62 -45 -12 -13 -56 -102 -96 -198 l-75 -175 767 -3 766 -2 87 25
c193 55 361 168 459 311 38 55 104 199 125 272 52 176 -48 336 -241 386 -49
13 -135 16 -512 16 -249 0 -453 3 -453 7 0 4 16 47 36 95 l37 88 611 0 612 0
46 29 c26 16 52 40 59 53 18 34 149 341 149 350 0 5 -330 8 -732 7 -557 -1
-749 -4 -798 -14z"/>
<path d="M760 3660 l0 -220 85 0 85 0 0 80 0 80 156 0 155 0 -3 43 -3 42 -152
3 -153 3 0 54 0 55 288 2 287 3 0 35 0 35 -372 3 -373 2 0 -220z"/>
<path d="M1986 3849 c-3 -17 -6 -116 -6 -220 l0 -189 90 0 90 0 -2 218 -3 217
-81 3 -81 3 -7 -32z"/>
<path d="M2630 3830 l0 -40 170 0 170 0 0 -180 0 -180 85 0 85 0 0 180 0 180
170 0 170 0 0 40 0 40 -425 0 -425 0 0 -40z"/>
<path d="M5045 3863 c-40 -8 -64 -27 -75 -56 -13 -38 -13 -260 0 -308 17 -62
28 -64 375 -67 400 -4 425 2 425 109 l0 47 -67 7 c-38 4 -76 9 -85 11 -15 5
-18 -2 -18 -40 0 -39 -3 -46 -22 -51 -13 -3 -115 -4 -228 -3 l-205 3 -3 138
-3 137 231 0 230 0 0 -41 0 -42 46 7 c26 3 64 6 85 6 l39 0 0 44 c0 55 -23 84
-75 96 -39 9 -610 12 -650 3z"/>
<path d="M6310 3650 l0 -220 363 2 362 3 0 40 0 40 -277 3 -278 2 0 175 0 175
-85 0 -85 0 0 -220z"/>
<path d="M7580 3700 c0 -124 4 -180 14 -204 24 -57 50 -61 401 -61 327 0 374
4 406 36 17 17 19 34 19 209 l0 190 -85 0 -85 0 0 -175 0 -175 -245 0 -245 0
0 175 0 175 -90 0 -90 0 0 -170z"/>
<path d="M8978 3863 c-1 -4 -2 -104 0 -221 l3 -213 352 3 c312 3 357 5 392 21
50 23 55 30 55 99 0 50 -3 59 -27 76 -16 11 -37 22 -48 24 -17 4 -16 6 10 17
52 21 65 40 65 92 0 36 -6 55 -24 76 l-24 28 -375 3 c-207 2 -377 -1 -379 -5z
m630 -75 c18 -18 15 -75 -4 -82 -9 -3 -114 -6 -235 -6 l-219 0 0 50 0 50 223
0 c160 0 226 -3 235 -12z m1 -177 c18 -11 19 -67 2 -84 -8 -8 -77 -13 -236
-15 l-225 -3 0 55 0 56 223 0 c122 0 228 -4 236 -9z"/>
</g>
</svg>
