<?xml version="1.0" encoding="UTF-8"?>
<svg version="1.1" xmlns="http://www.w3.org/2000/svg" width="256" height="256">
<path d="M0 0 C3.031875 0.020625 6.06375 0.04125 9.1875 0.0625 C9.1875 7.3225 9.1875 14.5825 9.1875 22.0625 C5.784375 22.2171875 5.784375 22.2171875 2.3125 22.375 C-9.50191054 23.10325933 -17.7258731 25.80680013 -26.0625 34.375 C-30.54236115 41.25478677 -32.13484658 47.27453606 -32.9296875 55.39453125 C-33.01661865 56.22907837 -33.1035498 57.06362549 -33.19311523 57.92346191 C-33.4053758 59.96921457 -33.60973355 62.01578453 -33.8125 64.0625 C-33.15819 64.04029388 -32.50388 64.01808777 -31.82974243 63.99520874 C-24.98389637 63.77297715 -18.13908306 63.62275347 -11.29052734 63.51318359 C-8.73932239 63.46307122 -6.1884021 63.39495907 -3.63818359 63.30810547 C0.04140532 63.18597932 3.71718318 63.12991436 7.3984375 63.0859375 C8.52800873 63.03432465 9.65757996 62.98271179 10.82138062 62.92953491 C17.18387449 62.92508674 21.01844808 63.98857871 25.90380859 68.18212891 C31.53243465 74.60148029 31.65250041 80.91943135 31.515625 89.125 C31.52238016 90.5665042 31.532101 92.0079972 31.5446167 93.44946289 C31.55927569 96.45602948 31.53822918 99.45960477 31.49121094 102.46582031 C31.43420957 106.29407279 31.4670644 110.11531766 31.52693558 113.9433136 C31.56331343 116.91576669 31.55146679 119.88659457 31.52565765 122.85910034 C31.51905193 124.26871603 31.52694269 125.67848605 31.55045319 127.08792114 C31.64836234 134.60452675 31.04822916 140.08570984 26.04589844 145.92089844 C19.64001999 151.41246431 13.23895572 151.52597224 5.125 151.390625 C3.6834958 151.39738016 2.2420028 151.407101 0.80053711 151.4196167 C-2.20602948 151.43427569 -5.20960477 151.41322918 -8.21582031 151.36621094 C-12.04407279 151.30920957 -15.86531766 151.3420644 -19.6933136 151.40193558 C-22.66576669 151.43831343 -25.63659457 151.42646679 -28.60910034 151.40065765 C-30.01871603 151.39405193 -31.42848605 151.40194269 -32.83792114 151.42545319 C-40.13324176 151.52047995 -45.85994576 150.93009476 -51.68408203 146.27905273 C-58.31232236 138.52887906 -57.13183868 128.8981449 -56.9296875 119.26953125 C-56.92116979 117.23468747 -56.91652819 115.19982415 -56.91555786 113.16496277 C-56.90326174 108.90847033 -56.8580645 104.65409732 -56.78662109 100.39819336 C-56.69636554 94.98285995 -56.6665813 89.56944811 -56.65914726 84.15343189 C-56.65022056 79.95183385 -56.61948822 75.75062658 -56.5813942 71.54920006 C-56.56381379 69.55483859 -56.55026641 67.56043682 -56.54107285 65.56601906 C-56.41651929 46.56468369 -54.15652297 29.66437947 -40.5 15.1875 C-29.04736786 4.47124692 -15.43892563 -0.14851439 0 0 Z M-33.8125 86.0625 C-33.8125 99.9225 -33.8125 113.7825 -33.8125 128.0625 C-19.9525 128.0625 -6.0925 128.0625 8.1875 128.0625 C8.1875 114.2025 8.1875 100.3425 8.1875 86.0625 C-5.6725 86.0625 -19.5325 86.0625 -33.8125 86.0625 Z " fill="#fd5f26" transform="translate(193.8125,52.9375)"/>
<path d="M0 0 C3.031875 0.020625 6.06375 0.04125 9.1875 0.0625 C9.1875 7.3225 9.1875 14.5825 9.1875 22.0625 C6.939375 22.145 4.69125 22.2275 2.375 22.3125 C-7.92371574 22.9042902 -17.30117858 25.6365345 -24.8125 33.0625 C-30.47402538 40.1538494 -32.04839996 47.63986774 -32.4375 56.5 C-32.47617187 57.23154297 -32.51484375 57.96308594 -32.5546875 58.71679688 C-32.64783984 60.49833532 -32.73120286 62.28038122 -32.8125 64.0625 C-32.15819 64.04029388 -31.50388 64.01808777 -30.82974243 63.99520874 C-23.98389637 63.77297715 -17.13908306 63.62275347 -10.29052734 63.51318359 C-7.73932239 63.46307122 -5.1884021 63.39495907 -2.63818359 63.30810547 C1.04140532 63.18597932 4.71718318 63.12991436 8.3984375 63.0859375 C9.52800873 63.03432465 10.65757996 62.98271179 11.82138062 62.92953491 C18.18387449 62.92508674 22.01844808 63.98857871 26.90380859 68.18212891 C32.53243465 74.60148029 32.65250041 80.91943135 32.515625 89.125 C32.52238016 90.5665042 32.532101 92.0079972 32.5446167 93.44946289 C32.55927569 96.45602948 32.53822918 99.45960477 32.49121094 102.46582031 C32.43420957 106.29407279 32.4670644 110.11531766 32.52693558 113.9433136 C32.56331343 116.91576669 32.55146679 119.88659457 32.52565765 122.85910034 C32.51905193 124.26871603 32.52694269 125.67848605 32.55045319 127.08792114 C32.64836234 134.60452675 32.04822916 140.08570984 27.04589844 145.92089844 C20.64001999 151.41246431 14.23895572 151.52597224 6.125 151.390625 C4.6834958 151.39738016 3.2420028 151.407101 1.80053711 151.4196167 C-1.20602948 151.43427569 -4.20960477 151.41322918 -7.21582031 151.36621094 C-11.04407279 151.30920957 -14.86531766 151.3420644 -18.6933136 151.40193558 C-21.66576669 151.43831343 -24.63659457 151.42646679 -27.60910034 151.40065765 C-29.01871603 151.39405193 -30.42848605 151.40194269 -31.83792114 151.42545319 C-39.09556501 151.51998918 -44.86343365 150.9319282 -50.68408203 146.34033203 C-57.47195346 138.40095769 -56.1266599 128.13834501 -55.9296875 118.2890625 C-55.92117271 116.15735026 -55.91652851 114.0256194 -55.91555786 111.89389038 C-55.90326151 107.43653639 -55.85805071 102.98120628 -55.78662109 98.52441406 C-55.69618695 92.83976456 -55.66657231 87.15694597 -55.65914726 81.47164345 C-55.65024466 77.07201423 -55.61955641 72.67276112 -55.5813942 68.27329636 C-55.56375779 66.17876623 -55.55023657 64.08419692 -55.54107285 61.98961258 C-55.42374506 43.13628686 -52.30862708 28.40909302 -39.0703125 14.1640625 C-28.02169862 3.88005857 -14.74367494 -0.14182645 0 0 Z M-32.8125 86.0625 C-32.8125 99.9225 -32.8125 113.7825 -32.8125 128.0625 C-18.9525 128.0625 -5.0925 128.0625 9.1875 128.0625 C9.1875 114.2025 9.1875 100.3425 9.1875 86.0625 C-4.6725 86.0625 -18.5325 86.0625 -32.8125 86.0625 Z " fill="#fd5f26" transform="translate(86.8125,52.9375)"/>
</svg>
